<?xml version="1.0" encoding="utf-8" standalone="no"?>
<!DOCTYPE svg PUBLIC "-//W3C//DTD SVG 1.1//EN"
  "http://www.w3.org/Graphics/SVG/1.1/DTD/svg11.dtd">
<svg xmlns:xlink="http://www.w3.org/1999/xlink" width="414.585632pt" height="275.474375pt" viewBox="0 0 414.585632 275.474375" xmlns="http://www.w3.org/2000/svg" version="1.1">
 <metadata>
  <rdf:RDF xmlns:dc="http://purl.org/dc/elements/1.1/" xmlns:cc="http://creativecommons.org/ns#" xmlns:rdf="http://www.w3.org/1999/02/22-rdf-syntax-ns#">
   <cc:Work>
    <dc:type rdf:resource="http://purl.org/dc/dcmitype/StillImage"/>
    <dc:date>2022-05-20T11:24:47.949240</dc:date>
    <dc:format>image/svg+xml</dc:format>
    <dc:creator>
     <cc:Agent>
      <dc:title>Matplotlib v3.5.0, https://matplotlib.org/</dc:title>
     </cc:Agent>
    </dc:creator>
   </cc:Work>
  </rdf:RDF>
 </metadata>
 <defs>
  <style type="text/css">*{stroke-linejoin: round; stroke-linecap: butt}</style>
 </defs>
 <g id="figure_1">
  <g id="patch_1">
   <path d="M 0 275.474375 
L 414.585632 275.474375 
L 414.585632 -0 
L 0 -0 
L 0 275.474375 
z
" style="fill: none"/>
  </g>
  <g id="axes_1">
   <g id="patch_2">
    <path d="M 45.5 237.918125 
L 335.534712 237.918125 
L 335.534712 22.318125 
L 45.5 22.318125 
z
" style="fill: #ffffff"/>
   </g>
   <g id="PathCollection_1">
    <path d="M 150.83901 156.306207 
L 148.204747 132.234823 
L 147.2802 111.258317 
L 146.901079 92.004905 
L 146.728185 73.794752 
L 146.641916 56.248295 
L 146.596388 39.137381 
L 146.57684 22.318125 
L 155.287983 22.318125 
L 187.66988 22.318125 
L 188.640524 22.318125 
L 192.072499 39.137381 
L 213.035483 56.248295 
L 215.888409 59.274119 
L 220.76121 73.794752 
L 241.788956 89.916617 
L 248.149151 92.004905 
L 266.286063 105.389717 
L 289.890338 109.654977 
L 306.270636 111.258317 
L 312.908701 114.159615 
L 335.534712 118.976292 
L 335.534712 132.234823 
L 335.534712 156.306207 
L 335.534712 186.89563 
L 335.534712 187.532696 
L 312.908701 187.697153 
L 289.890338 188.190033 
L 266.286063 188.59348 
L 241.788956 188.592217 
L 215.888409 188.337949 
L 187.66988 187.649924 
L 175.448161 186.89563 
L 155.287983 165.277006 
z
" clip-path="url(#pfd668bd45c)" style="fill: #481c6e"/>
   </g>
   <g id="PathCollection_2">
    <path d="M 113.822865 132.234823 
L 113.388595 111.258317 
L 113.208151 92.004905 
L 113.121456 73.794752 
L 113.073902 56.248295 
L 113.044375 39.137381 
L 113.02401 22.318125 
L 114.13773 22.318125 
L 146.57684 22.318125 
L 146.596388 39.137381 
L 146.641916 56.248295 
L 146.728185 73.794752 
L 146.901079 92.004905 
L 147.2802 111.258317 
L 148.204747 132.234823 
L 150.83901 156.306207 
L 155.287983 165.277006 
L 175.448161 186.89563 
L 187.66988 187.649924 
L 215.888409 188.337949 
L 241.788956 188.592217 
L 266.286063 188.59348 
L 289.890338 188.190033 
L 312.908701 187.697153 
L 335.534712 187.532696 
L 335.534712 192.411924 
L 312.908701 192.3976 
L 289.890338 192.643555 
L 266.286063 192.746574 
L 241.788956 192.399516 
L 215.888409 191.745921 
L 187.66988 190.626858 
L 155.287983 188.609908 
L 142.667337 186.89563 
L 120.499969 156.306207 
L 114.13773 137.027892 
z
" clip-path="url(#pfd668bd45c)" style="fill: #3e4a89"/>
    <path d="M 213.035483 56.248295 
L 192.072499 39.137381 
L 188.640524 22.318125 
L 192.477246 22.318125 
L 203.243104 39.137381 
L 215.888409 48.497919 
L 222.007253 56.248295 
L 238.660332 73.794752 
L 241.788956 76.182851 
L 266.286063 87.433131 
L 287.728822 92.004905 
L 289.890338 92.939525 
L 312.908701 98.650272 
L 335.534712 101.148156 
L 335.534712 111.258317 
L 335.534712 118.976292 
L 312.908701 114.159615 
L 306.270636 111.258317 
L 289.890338 109.654977 
L 266.286063 105.389717 
L 248.149151 92.004905 
L 241.788956 89.916617 
L 220.76121 73.794752 
L 215.888409 59.274119 
z
" clip-path="url(#pfd668bd45c)" style="fill: #3e4a89"/>
   </g>
   <g id="PathCollection_3">
    <path d="M 101.466117 186.89563 
L 93.073501 156.306207 
L 90.8282 132.234823 
L 90.03496 111.258317 
L 89.701708 92.004905 
L 89.542171 73.794752 
L 89.456529 56.248295 
L 89.405439 39.137381 
L 89.371988 22.318125 
L 113.02401 22.318125 
L 113.044375 39.137381 
L 113.073902 56.248295 
L 113.121456 73.794752 
L 113.208151 92.004905 
L 113.388595 111.258317 
L 113.822865 132.234823 
L 114.13773 137.027892 
L 120.499969 156.306207 
L 142.667337 186.89563 
L 155.287983 188.609908 
L 187.66988 190.626858 
L 215.888409 191.745921 
L 241.788956 192.399516 
L 266.286063 192.746574 
L 289.890338 192.643555 
L 312.908701 192.3976 
L 335.534712 192.411924 
L 335.534712 211.331939 
L 312.908701 210.420028 
L 289.890338 209.460508 
L 266.286063 208.147416 
L 241.788956 206.234576 
L 215.888409 203.851907 
L 187.66988 200.953973 
L 155.287983 197.266408 
L 114.13773 191.563752 
z
" clip-path="url(#pfd668bd45c)" style="fill: #2a788e"/>
    <path d="M 203.243104 39.137381 
L 192.477246 22.318125 
L 202.718048 22.318125 
L 215.888409 34.175538 
L 222.119999 39.137381 
L 238.166867 56.248295 
L 241.788956 59.570591 
L 266.286063 70.166827 
L 289.890338 72.468643 
L 306.552997 73.794752 
L 312.908701 74.834429 
L 335.534712 77.654267 
L 335.534712 92.004905 
L 335.534712 101.148156 
L 312.908701 98.650272 
L 289.890338 92.939525 
L 287.728822 92.004905 
L 266.286063 87.433131 
L 241.788956 76.182851 
L 238.660332 73.794752 
L 222.007253 56.248295 
L 215.888409 48.497919 
z
" clip-path="url(#pfd668bd45c)" style="fill: #2a788e"/>
   </g>
   <g id="PathCollection_4">
    <path d="M 45.5 186.89563 
L 45.5 156.306207 
L 45.5 132.234823 
L 45.5 111.258317 
L 45.5 92.004905 
L 45.5 73.794752 
L 45.5 56.248295 
L 45.5 39.137381 
L 45.5 22.318125 
L 89.371988 22.318125 
L 89.405439 39.137381 
L 89.456529 56.248295 
L 89.542171 73.794752 
L 89.701708 92.004905 
L 90.03496 111.258317 
L 90.8282 132.234823 
L 93.073501 156.306207 
L 101.466117 186.89563 
L 114.13773 191.563752 
L 155.287983 197.266408 
L 187.66988 200.953973 
L 215.888409 203.851907 
L 241.788956 206.234576 
L 266.286063 208.147416 
L 289.890338 209.460508 
L 312.908701 210.420028 
L 335.534712 211.331939 
L 335.534712 237.918125 
L 312.908701 237.918125 
L 289.890338 237.918125 
L 266.286063 237.918125 
L 241.788956 237.918125 
L 221.39152 237.918125 
L 215.888409 236.282732 
L 187.66988 226.196104 
L 155.287983 216.868256 
L 114.13773 206.624462 
L 45.5 186.93065 
z
" clip-path="url(#pfd668bd45c)" style="fill: #1fa287"/>
    <path d="M 202.718048 22.318125 
L 215.888409 22.318125 
L 217.094035 22.318125 
L 238.080825 39.137381 
L 241.788956 42.759831 
L 266.286063 52.866595 
L 277.139295 56.248295 
L 289.890338 57.904823 
L 312.908701 59.024168 
L 335.534712 59.708903 
L 335.534712 73.794752 
L 335.534712 77.654267 
L 312.908701 74.834429 
L 306.552997 73.794752 
L 289.890338 72.468643 
L 266.286063 70.166827 
L 241.788956 59.570591 
L 238.166867 56.248295 
L 222.119999 39.137381 
L 215.888409 34.175538 
z
" clip-path="url(#pfd668bd45c)" style="fill: #1fa287"/>
   </g>
   <g id="PathCollection_5">
    <path d="M 114.13773 206.624462 
L 155.287983 216.868256 
L 187.66988 226.196104 
L 215.888409 236.282732 
L 221.39152 237.918125 
L 215.888409 237.918125 
L 187.66988 237.918125 
L 155.287983 237.918125 
L 114.13773 237.918125 
L 90.653162 237.918125 
L 45.5 216.468623 
L 45.5 186.93065 
z
" clip-path="url(#pfd668bd45c)" style="fill: #50c46a"/>
    <path d="M 238.080825 39.137381 
L 217.094035 22.318125 
L 241.788956 22.318125 
L 252.618141 22.318125 
L 266.286063 26.336819 
L 289.890338 28.495902 
L 312.908701 29.701159 
L 335.534712 30.54357 
L 335.534712 39.137381 
L 335.534712 56.248295 
L 335.534712 59.708903 
L 312.908701 59.024168 
L 289.890338 57.904823 
L 277.139295 56.248295 
L 266.286063 52.866595 
L 241.788956 42.759831 
z
" clip-path="url(#pfd668bd45c)" style="fill: #50c46a"/>
   </g>
   <g id="PathCollection_6">
    <path d="M 90.653162 237.918125 
L 45.5 237.918125 
L 45.5 216.468623 
z
" clip-path="url(#pfd668bd45c)" style="fill: #bddf26"/>
    <path d="M 252.618141 22.318125 
L 266.286063 22.318125 
L 289.890338 22.318125 
L 312.908701 22.318125 
L 335.534712 22.318125 
L 335.534712 30.54357 
L 312.908701 29.701159 
L 289.890338 28.495902 
L 266.286063 26.336819 
z
" clip-path="url(#pfd668bd45c)" style="fill: #bddf26"/>
   </g>
   <g id="PathCollection_7">
    <defs>
     <path id="m4f253560ea" d="M -3 3 
L 3 -3 
M -3 -3 
L 3 3 
" style="stroke: #ff0000; stroke-width: 1.5"/>
    </defs>
    <g clip-path="url(#pfd668bd45c)">
     <use xlink:href="#m4f253560ea" x="241.788956" y="186.89563" style="fill: #ff0000; stroke: #ff0000; stroke-width: 1.5"/>
    </g>
   </g>
   <g id="matplotlib.axis_1">
    <g id="xtick_1">
     <g id="line2d_1">
      <defs>
       <path id="m8ece2d3bcf" d="M 0 0 
L 0 3.5 
" style="stroke: #000000; stroke-width: 0.8"/>
      </defs>
      <g>
       <use xlink:href="#m8ece2d3bcf" x="127.608248" y="237.918125" style="stroke: #000000; stroke-width: 0.8"/>
      </g>
     </g>
     <g id="text_1">
      <!-- $\mathdefault{10^{0}}$ -->
      <g transform="translate(118.808248 252.516563)scale(0.1 -0.1)">
       <defs>
        <path id="DejaVuSans-31" d="M 794 531 
L 1825 531 
L 1825 4091 
L 703 3866 
L 703 4441 
L 1819 4666 
L 2450 4666 
L 2450 531 
L 3481 531 
L 3481 0 
L 794 0 
L 794 531 
z
" transform="scale(0.015625)"/>
        <path id="DejaVuSans-30" d="M 2034 4250 
Q 1547 4250 1301 3770 
Q 1056 3291 1056 2328 
Q 1056 1369 1301 889 
Q 1547 409 2034 409 
Q 2525 409 2770 889 
Q 3016 1369 3016 2328 
Q 3016 3291 2770 3770 
Q 2525 4250 2034 4250 
z
M 2034 4750 
Q 2819 4750 3233 4129 
Q 3647 3509 3647 2328 
Q 3647 1150 3233 529 
Q 2819 -91 2034 -91 
Q 1250 -91 836 529 
Q 422 1150 422 2328 
Q 422 3509 836 4129 
Q 1250 4750 2034 4750 
z
" transform="scale(0.015625)"/>
       </defs>
       <use xlink:href="#DejaVuSans-31" transform="translate(0 0.765625)"/>
       <use xlink:href="#DejaVuSans-30" transform="translate(63.623047 0.765625)"/>
       <use xlink:href="#DejaVuSans-30" transform="translate(128.203125 39.046875)scale(0.7)"/>
      </g>
     </g>
    </g>
    <g id="xtick_2">
     <g id="line2d_2">
      <g>
       <use xlink:href="#m8ece2d3bcf" x="267.527648" y="237.918125" style="stroke: #000000; stroke-width: 0.8"/>
      </g>
     </g>
     <g id="text_2">
      <!-- $\mathdefault{10^{1}}$ -->
      <g transform="translate(258.727648 252.516563)scale(0.1 -0.1)">
       <use xlink:href="#DejaVuSans-31" transform="translate(0 0.684375)"/>
       <use xlink:href="#DejaVuSans-30" transform="translate(63.623047 0.684375)"/>
       <use xlink:href="#DejaVuSans-31" transform="translate(128.203125 38.965625)scale(0.7)"/>
      </g>
     </g>
    </g>
    <g id="xtick_3">
     <g id="line2d_3">
      <defs>
       <path id="mac0d70a53a" d="M 0 0 
L 0 2 
" style="stroke: #000000; stroke-width: 0.6"/>
      </defs>
      <g>
       <use xlink:href="#mac0d70a53a" x="54.447367" y="237.918125" style="stroke: #000000; stroke-width: 0.6"/>
      </g>
     </g>
    </g>
    <g id="xtick_4">
     <g id="line2d_4">
      <g>
       <use xlink:href="#mac0d70a53a" x="71.92872" y="237.918125" style="stroke: #000000; stroke-width: 0.6"/>
      </g>
     </g>
    </g>
    <g id="xtick_5">
     <g id="line2d_5">
      <g>
       <use xlink:href="#mac0d70a53a" x="85.488311" y="237.918125" style="stroke: #000000; stroke-width: 0.6"/>
      </g>
     </g>
    </g>
    <g id="xtick_6">
     <g id="line2d_6">
      <g>
       <use xlink:href="#mac0d70a53a" x="96.567304" y="237.918125" style="stroke: #000000; stroke-width: 0.6"/>
      </g>
     </g>
    </g>
    <g id="xtick_7">
     <g id="line2d_7">
      <g>
       <use xlink:href="#mac0d70a53a" x="105.934458" y="237.918125" style="stroke: #000000; stroke-width: 0.6"/>
      </g>
     </g>
    </g>
    <g id="xtick_8">
     <g id="line2d_8">
      <g>
       <use xlink:href="#mac0d70a53a" x="114.048657" y="237.918125" style="stroke: #000000; stroke-width: 0.6"/>
      </g>
     </g>
    </g>
    <g id="xtick_9">
     <g id="line2d_9">
      <g>
       <use xlink:href="#mac0d70a53a" x="121.205887" y="237.918125" style="stroke: #000000; stroke-width: 0.6"/>
      </g>
     </g>
    </g>
    <g id="xtick_10">
     <g id="line2d_10">
      <g>
       <use xlink:href="#mac0d70a53a" x="169.728184" y="237.918125" style="stroke: #000000; stroke-width: 0.6"/>
      </g>
     </g>
    </g>
    <g id="xtick_11">
     <g id="line2d_11">
      <g>
       <use xlink:href="#mac0d70a53a" x="194.366768" y="237.918125" style="stroke: #000000; stroke-width: 0.6"/>
      </g>
     </g>
    </g>
    <g id="xtick_12">
     <g id="line2d_12">
      <g>
       <use xlink:href="#mac0d70a53a" x="211.848121" y="237.918125" style="stroke: #000000; stroke-width: 0.6"/>
      </g>
     </g>
    </g>
    <g id="xtick_13">
     <g id="line2d_13">
      <g>
       <use xlink:href="#mac0d70a53a" x="225.407712" y="237.918125" style="stroke: #000000; stroke-width: 0.6"/>
      </g>
     </g>
    </g>
    <g id="xtick_14">
     <g id="line2d_14">
      <g>
       <use xlink:href="#mac0d70a53a" x="236.486704" y="237.918125" style="stroke: #000000; stroke-width: 0.6"/>
      </g>
     </g>
    </g>
    <g id="xtick_15">
     <g id="line2d_15">
      <g>
       <use xlink:href="#mac0d70a53a" x="245.853859" y="237.918125" style="stroke: #000000; stroke-width: 0.6"/>
      </g>
     </g>
    </g>
    <g id="xtick_16">
     <g id="line2d_16">
      <g>
       <use xlink:href="#mac0d70a53a" x="253.968057" y="237.918125" style="stroke: #000000; stroke-width: 0.6"/>
      </g>
     </g>
    </g>
    <g id="xtick_17">
     <g id="line2d_17">
      <g>
       <use xlink:href="#mac0d70a53a" x="261.125288" y="237.918125" style="stroke: #000000; stroke-width: 0.6"/>
      </g>
     </g>
    </g>
    <g id="xtick_18">
     <g id="line2d_18">
      <g>
       <use xlink:href="#mac0d70a53a" x="309.647585" y="237.918125" style="stroke: #000000; stroke-width: 0.6"/>
      </g>
     </g>
    </g>
    <g id="xtick_19">
     <g id="line2d_19">
      <g>
       <use xlink:href="#mac0d70a53a" x="334.286168" y="237.918125" style="stroke: #000000; stroke-width: 0.6"/>
      </g>
     </g>
    </g>
    <g id="text_3">
     <!--  $ \nu$ -->
     <g transform="translate(186.117356 266.194688)scale(0.1 -0.1)">
      <defs>
       <path id="DejaVuSans-20" transform="scale(0.015625)"/>
       <path id="DejaVuSans-Oblique-3bd" d="M 959 0 
L 572 3500 
L 1191 3500 
L 1522 563 
Q 1972 950 2391 1488 
Q 2706 1891 2788 2241 
Q 2825 2406 2809 2719 
Q 2794 3091 2544 3500 
L 3125 3500 
L 3125 3500 
Q 3288 3222 3353 2834 
Q 3416 2478 3369 2234 
Q 3250 1622 2719 1075 
Q 2025 363 1572 0 
L 959 0 
z
" transform="scale(0.015625)"/>
      </defs>
      <use xlink:href="#DejaVuSans-20" transform="translate(0 0.3125)"/>
      <use xlink:href="#DejaVuSans-Oblique-3bd" transform="translate(31.787109 0.3125)"/>
     </g>
    </g>
   </g>
   <g id="matplotlib.axis_2">
    <g id="ytick_1">
     <g id="line2d_20">
      <defs>
       <path id="m5f5bbeb4b9" d="M 0 0 
L -3.5 0 
" style="stroke: #000000; stroke-width: 0.8"/>
      </defs>
      <g>
       <use xlink:href="#m5f5bbeb4b9" x="45.5" y="176.882196" style="stroke: #000000; stroke-width: 0.8"/>
      </g>
     </g>
     <g id="text_4">
      <!-- $\mathdefault{10^{0}}$ -->
      <g transform="translate(20.9 180.681415)scale(0.1 -0.1)">
       <use xlink:href="#DejaVuSans-31" transform="translate(0 0.765625)"/>
       <use xlink:href="#DejaVuSans-30" transform="translate(63.623047 0.765625)"/>
       <use xlink:href="#DejaVuSans-30" transform="translate(128.203125 39.046875)scale(0.7)"/>
      </g>
     </g>
    </g>
    <g id="ytick_2">
     <g id="line2d_21">
      <g>
       <use xlink:href="#m5f5bbeb4b9" x="45.5" y="72.871809" style="stroke: #000000; stroke-width: 0.8"/>
      </g>
     </g>
     <g id="text_5">
      <!-- $\mathdefault{10^{1}}$ -->
      <g transform="translate(20.9 76.671027)scale(0.1 -0.1)">
       <use xlink:href="#DejaVuSans-31" transform="translate(0 0.684375)"/>
       <use xlink:href="#DejaVuSans-30" transform="translate(63.623047 0.684375)"/>
       <use xlink:href="#DejaVuSans-31" transform="translate(128.203125 38.965625)scale(0.7)"/>
      </g>
     </g>
    </g>
    <g id="ytick_3">
     <g id="line2d_22">
      <defs>
       <path id="mc0641e6322" d="M 0 0 
L -2 0 
" style="stroke: #000000; stroke-width: 0.6"/>
      </defs>
      <g>
       <use xlink:href="#mc0641e6322" x="45.5" y="231.267017" style="stroke: #000000; stroke-width: 0.6"/>
      </g>
     </g>
    </g>
    <g id="ytick_4">
     <g id="line2d_23">
      <g>
       <use xlink:href="#mc0641e6322" x="45.5" y="218.27209" style="stroke: #000000; stroke-width: 0.6"/>
      </g>
     </g>
    </g>
    <g id="ytick_5">
     <g id="line2d_24">
      <g>
       <use xlink:href="#mc0641e6322" x="45.5" y="208.192442" style="stroke: #000000; stroke-width: 0.6"/>
      </g>
     </g>
    </g>
    <g id="ytick_6">
     <g id="line2d_25">
      <g>
       <use xlink:href="#mc0641e6322" x="45.5" y="199.95677" style="stroke: #000000; stroke-width: 0.6"/>
      </g>
     </g>
    </g>
    <g id="ytick_7">
     <g id="line2d_26">
      <g>
       <use xlink:href="#mc0641e6322" x="45.5" y="192.993609" style="stroke: #000000; stroke-width: 0.6"/>
      </g>
     </g>
    </g>
    <g id="ytick_8">
     <g id="line2d_27">
      <g>
       <use xlink:href="#mc0641e6322" x="45.5" y="186.961844" style="stroke: #000000; stroke-width: 0.6"/>
      </g>
     </g>
    </g>
    <g id="ytick_9">
     <g id="line2d_28">
      <g>
       <use xlink:href="#mc0641e6322" x="45.5" y="181.64145" style="stroke: #000000; stroke-width: 0.6"/>
      </g>
     </g>
    </g>
    <g id="ytick_10">
     <g id="line2d_29">
      <g>
       <use xlink:href="#mc0641e6322" x="45.5" y="145.571949" style="stroke: #000000; stroke-width: 0.6"/>
      </g>
     </g>
    </g>
    <g id="ytick_11">
     <g id="line2d_30">
      <g>
       <use xlink:href="#mc0641e6322" x="45.5" y="127.256629" style="stroke: #000000; stroke-width: 0.6"/>
      </g>
     </g>
    </g>
    <g id="ytick_12">
     <g id="line2d_31">
      <g>
       <use xlink:href="#mc0641e6322" x="45.5" y="114.261703" style="stroke: #000000; stroke-width: 0.6"/>
      </g>
     </g>
    </g>
    <g id="ytick_13">
     <g id="line2d_32">
      <g>
       <use xlink:href="#mc0641e6322" x="45.5" y="104.182055" style="stroke: #000000; stroke-width: 0.6"/>
      </g>
     </g>
    </g>
    <g id="ytick_14">
     <g id="line2d_33">
      <g>
       <use xlink:href="#mc0641e6322" x="45.5" y="95.946383" style="stroke: #000000; stroke-width: 0.6"/>
      </g>
     </g>
    </g>
    <g id="ytick_15">
     <g id="line2d_34">
      <g>
       <use xlink:href="#mc0641e6322" x="45.5" y="88.983221" style="stroke: #000000; stroke-width: 0.6"/>
      </g>
     </g>
    </g>
    <g id="ytick_16">
     <g id="line2d_35">
      <g>
       <use xlink:href="#mc0641e6322" x="45.5" y="82.951457" style="stroke: #000000; stroke-width: 0.6"/>
      </g>
     </g>
    </g>
    <g id="ytick_17">
     <g id="line2d_36">
      <g>
       <use xlink:href="#mc0641e6322" x="45.5" y="77.631063" style="stroke: #000000; stroke-width: 0.6"/>
      </g>
     </g>
    </g>
    <g id="ytick_18">
     <g id="line2d_37">
      <g>
       <use xlink:href="#mc0641e6322" x="45.5" y="41.561562" style="stroke: #000000; stroke-width: 0.6"/>
      </g>
     </g>
    </g>
    <g id="ytick_19">
     <g id="line2d_38">
      <g>
       <use xlink:href="#mc0641e6322" x="45.5" y="23.246242" style="stroke: #000000; stroke-width: 0.6"/>
      </g>
     </g>
    </g>
    <g id="text_6">
     <!-- Length Scale, $l$ -->
     <g transform="translate(14.8 167.068125)rotate(-90)scale(0.1 -0.1)">
      <defs>
       <path id="DejaVuSans-4c" d="M 628 4666 
L 1259 4666 
L 1259 531 
L 3531 531 
L 3531 0 
L 628 0 
L 628 4666 
z
" transform="scale(0.015625)"/>
       <path id="DejaVuSans-65" d="M 3597 1894 
L 3597 1613 
L 953 1613 
Q 991 1019 1311 708 
Q 1631 397 2203 397 
Q 2534 397 2845 478 
Q 3156 559 3463 722 
L 3463 178 
Q 3153 47 2828 -22 
Q 2503 -91 2169 -91 
Q 1331 -91 842 396 
Q 353 884 353 1716 
Q 353 2575 817 3079 
Q 1281 3584 2069 3584 
Q 2775 3584 3186 3129 
Q 3597 2675 3597 1894 
z
M 3022 2063 
Q 3016 2534 2758 2815 
Q 2500 3097 2075 3097 
Q 1594 3097 1305 2825 
Q 1016 2553 972 2059 
L 3022 2063 
z
" transform="scale(0.015625)"/>
       <path id="DejaVuSans-6e" d="M 3513 2113 
L 3513 0 
L 2938 0 
L 2938 2094 
Q 2938 2591 2744 2837 
Q 2550 3084 2163 3084 
Q 1697 3084 1428 2787 
Q 1159 2491 1159 1978 
L 1159 0 
L 581 0 
L 581 3500 
L 1159 3500 
L 1159 2956 
Q 1366 3272 1645 3428 
Q 1925 3584 2291 3584 
Q 2894 3584 3203 3211 
Q 3513 2838 3513 2113 
z
" transform="scale(0.015625)"/>
       <path id="DejaVuSans-67" d="M 2906 1791 
Q 2906 2416 2648 2759 
Q 2391 3103 1925 3103 
Q 1463 3103 1205 2759 
Q 947 2416 947 1791 
Q 947 1169 1205 825 
Q 1463 481 1925 481 
Q 2391 481 2648 825 
Q 2906 1169 2906 1791 
z
M 3481 434 
Q 3481 -459 3084 -895 
Q 2688 -1331 1869 -1331 
Q 1566 -1331 1297 -1286 
Q 1028 -1241 775 -1147 
L 775 -588 
Q 1028 -725 1275 -790 
Q 1522 -856 1778 -856 
Q 2344 -856 2625 -561 
Q 2906 -266 2906 331 
L 2906 616 
Q 2728 306 2450 153 
Q 2172 0 1784 0 
Q 1141 0 747 490 
Q 353 981 353 1791 
Q 353 2603 747 3093 
Q 1141 3584 1784 3584 
Q 2172 3584 2450 3431 
Q 2728 3278 2906 2969 
L 2906 3500 
L 3481 3500 
L 3481 434 
z
" transform="scale(0.015625)"/>
       <path id="DejaVuSans-74" d="M 1172 4494 
L 1172 3500 
L 2356 3500 
L 2356 3053 
L 1172 3053 
L 1172 1153 
Q 1172 725 1289 603 
Q 1406 481 1766 481 
L 2356 481 
L 2356 0 
L 1766 0 
Q 1100 0 847 248 
Q 594 497 594 1153 
L 594 3053 
L 172 3053 
L 172 3500 
L 594 3500 
L 594 4494 
L 1172 4494 
z
" transform="scale(0.015625)"/>
       <path id="DejaVuSans-68" d="M 3513 2113 
L 3513 0 
L 2938 0 
L 2938 2094 
Q 2938 2591 2744 2837 
Q 2550 3084 2163 3084 
Q 1697 3084 1428 2787 
Q 1159 2491 1159 1978 
L 1159 0 
L 581 0 
L 581 4863 
L 1159 4863 
L 1159 2956 
Q 1366 3272 1645 3428 
Q 1925 3584 2291 3584 
Q 2894 3584 3203 3211 
Q 3513 2838 3513 2113 
z
" transform="scale(0.015625)"/>
       <path id="DejaVuSans-53" d="M 3425 4513 
L 3425 3897 
Q 3066 4069 2747 4153 
Q 2428 4238 2131 4238 
Q 1616 4238 1336 4038 
Q 1056 3838 1056 3469 
Q 1056 3159 1242 3001 
Q 1428 2844 1947 2747 
L 2328 2669 
Q 3034 2534 3370 2195 
Q 3706 1856 3706 1288 
Q 3706 609 3251 259 
Q 2797 -91 1919 -91 
Q 1588 -91 1214 -16 
Q 841 59 441 206 
L 441 856 
Q 825 641 1194 531 
Q 1563 422 1919 422 
Q 2459 422 2753 634 
Q 3047 847 3047 1241 
Q 3047 1584 2836 1778 
Q 2625 1972 2144 2069 
L 1759 2144 
Q 1053 2284 737 2584 
Q 422 2884 422 3419 
Q 422 4038 858 4394 
Q 1294 4750 2059 4750 
Q 2388 4750 2728 4690 
Q 3069 4631 3425 4513 
z
" transform="scale(0.015625)"/>
       <path id="DejaVuSans-63" d="M 3122 3366 
L 3122 2828 
Q 2878 2963 2633 3030 
Q 2388 3097 2138 3097 
Q 1578 3097 1268 2742 
Q 959 2388 959 1747 
Q 959 1106 1268 751 
Q 1578 397 2138 397 
Q 2388 397 2633 464 
Q 2878 531 3122 666 
L 3122 134 
Q 2881 22 2623 -34 
Q 2366 -91 2075 -91 
Q 1284 -91 818 406 
Q 353 903 353 1747 
Q 353 2603 823 3093 
Q 1294 3584 2113 3584 
Q 2378 3584 2631 3529 
Q 2884 3475 3122 3366 
z
" transform="scale(0.015625)"/>
       <path id="DejaVuSans-61" d="M 2194 1759 
Q 1497 1759 1228 1600 
Q 959 1441 959 1056 
Q 959 750 1161 570 
Q 1363 391 1709 391 
Q 2188 391 2477 730 
Q 2766 1069 2766 1631 
L 2766 1759 
L 2194 1759 
z
M 3341 1997 
L 3341 0 
L 2766 0 
L 2766 531 
Q 2569 213 2275 61 
Q 1981 -91 1556 -91 
Q 1019 -91 701 211 
Q 384 513 384 1019 
Q 384 1609 779 1909 
Q 1175 2209 1959 2209 
L 2766 2209 
L 2766 2266 
Q 2766 2663 2505 2880 
Q 2244 3097 1772 3097 
Q 1472 3097 1187 3025 
Q 903 2953 641 2809 
L 641 3341 
Q 956 3463 1253 3523 
Q 1550 3584 1831 3584 
Q 2591 3584 2966 3190 
Q 3341 2797 3341 1997 
z
" transform="scale(0.015625)"/>
       <path id="DejaVuSans-6c" d="M 603 4863 
L 1178 4863 
L 1178 0 
L 603 0 
L 603 4863 
z
" transform="scale(0.015625)"/>
       <path id="DejaVuSans-2c" d="M 750 794 
L 1409 794 
L 1409 256 
L 897 -744 
L 494 -744 
L 750 256 
L 750 794 
z
" transform="scale(0.015625)"/>
       <path id="DejaVuSans-Oblique-6c" d="M 1172 4863 
L 1747 4863 
L 800 0 
L 225 0 
L 1172 4863 
z
" transform="scale(0.015625)"/>
      </defs>
      <use xlink:href="#DejaVuSans-4c" transform="translate(0 0.015625)"/>
      <use xlink:href="#DejaVuSans-65" transform="translate(55.712891 0.015625)"/>
      <use xlink:href="#DejaVuSans-6e" transform="translate(117.236328 0.015625)"/>
      <use xlink:href="#DejaVuSans-67" transform="translate(180.615234 0.015625)"/>
      <use xlink:href="#DejaVuSans-74" transform="translate(244.091797 0.015625)"/>
      <use xlink:href="#DejaVuSans-68" transform="translate(283.300781 0.015625)"/>
      <use xlink:href="#DejaVuSans-20" transform="translate(346.679688 0.015625)"/>
      <use xlink:href="#DejaVuSans-53" transform="translate(378.466797 0.015625)"/>
      <use xlink:href="#DejaVuSans-63" transform="translate(441.943359 0.015625)"/>
      <use xlink:href="#DejaVuSans-61" transform="translate(496.923828 0.015625)"/>
      <use xlink:href="#DejaVuSans-6c" transform="translate(558.203125 0.015625)"/>
      <use xlink:href="#DejaVuSans-65" transform="translate(585.986328 0.015625)"/>
      <use xlink:href="#DejaVuSans-2c" transform="translate(647.509766 0.015625)"/>
      <use xlink:href="#DejaVuSans-20" transform="translate(679.296875 0.015625)"/>
      <use xlink:href="#DejaVuSans-Oblique-6c" transform="translate(711.083984 0.015625)"/>
     </g>
    </g>
   </g>
   <g id="line2d_39">
    <path d="M 127.608248 237.918125 
L 127.608248 22.318125 
" clip-path="url(#pfd668bd45c)" style="fill: none; stroke-dasharray: 5.55,2.4; stroke-dashoffset: 0; stroke: #ff0000; stroke-width: 1.5"/>
   </g>
   <g id="patch_3">
    <path d="M 45.5 237.918125 
L 45.5 22.318125 
" style="fill: none; stroke: #000000; stroke-width: 0.8; stroke-linejoin: miter; stroke-linecap: square"/>
   </g>
   <g id="patch_4">
    <path d="M 335.534712 237.918125 
L 335.534712 22.318125 
" style="fill: none; stroke: #000000; stroke-width: 0.8; stroke-linejoin: miter; stroke-linecap: square"/>
   </g>
   <g id="patch_5">
    <path d="M 45.5 237.918125 
L 335.534712 237.918125 
" style="fill: none; stroke: #000000; stroke-width: 0.8; stroke-linejoin: miter; stroke-linecap: square"/>
   </g>
   <g id="patch_6">
    <path d="M 45.5 22.318125 
L 335.534712 22.318125 
" style="fill: none; stroke: #000000; stroke-width: 0.8; stroke-linejoin: miter; stroke-linecap: square"/>
   </g>
   <g id="text_7">
    <!-- Best Error: 0.527% -->
    <g style="fill: #ffffff" transform="translate(243.617458 186.89563)scale(0.1 -0.1)">
     <defs>
      <path id="DejaVuSans-42" d="M 1259 2228 
L 1259 519 
L 2272 519 
Q 2781 519 3026 730 
Q 3272 941 3272 1375 
Q 3272 1813 3026 2020 
Q 2781 2228 2272 2228 
L 1259 2228 
z
M 1259 4147 
L 1259 2741 
L 2194 2741 
Q 2656 2741 2882 2914 
Q 3109 3088 3109 3444 
Q 3109 3797 2882 3972 
Q 2656 4147 2194 4147 
L 1259 4147 
z
M 628 4666 
L 2241 4666 
Q 2963 4666 3353 4366 
Q 3744 4066 3744 3513 
Q 3744 3084 3544 2831 
Q 3344 2578 2956 2516 
Q 3422 2416 3680 2098 
Q 3938 1781 3938 1306 
Q 3938 681 3513 340 
Q 3088 0 2303 0 
L 628 0 
L 628 4666 
z
" transform="scale(0.015625)"/>
      <path id="DejaVuSans-73" d="M 2834 3397 
L 2834 2853 
Q 2591 2978 2328 3040 
Q 2066 3103 1784 3103 
Q 1356 3103 1142 2972 
Q 928 2841 928 2578 
Q 928 2378 1081 2264 
Q 1234 2150 1697 2047 
L 1894 2003 
Q 2506 1872 2764 1633 
Q 3022 1394 3022 966 
Q 3022 478 2636 193 
Q 2250 -91 1575 -91 
Q 1294 -91 989 -36 
Q 684 19 347 128 
L 347 722 
Q 666 556 975 473 
Q 1284 391 1588 391 
Q 1994 391 2212 530 
Q 2431 669 2431 922 
Q 2431 1156 2273 1281 
Q 2116 1406 1581 1522 
L 1381 1569 
Q 847 1681 609 1914 
Q 372 2147 372 2553 
Q 372 3047 722 3315 
Q 1072 3584 1716 3584 
Q 2034 3584 2315 3537 
Q 2597 3491 2834 3397 
z
" transform="scale(0.015625)"/>
      <path id="DejaVuSans-45" d="M 628 4666 
L 3578 4666 
L 3578 4134 
L 1259 4134 
L 1259 2753 
L 3481 2753 
L 3481 2222 
L 1259 2222 
L 1259 531 
L 3634 531 
L 3634 0 
L 628 0 
L 628 4666 
z
" transform="scale(0.015625)"/>
      <path id="DejaVuSans-72" d="M 2631 2963 
Q 2534 3019 2420 3045 
Q 2306 3072 2169 3072 
Q 1681 3072 1420 2755 
Q 1159 2438 1159 1844 
L 1159 0 
L 581 0 
L 581 3500 
L 1159 3500 
L 1159 2956 
Q 1341 3275 1631 3429 
Q 1922 3584 2338 3584 
Q 2397 3584 2469 3576 
Q 2541 3569 2628 3553 
L 2631 2963 
z
" transform="scale(0.015625)"/>
      <path id="DejaVuSans-6f" d="M 1959 3097 
Q 1497 3097 1228 2736 
Q 959 2375 959 1747 
Q 959 1119 1226 758 
Q 1494 397 1959 397 
Q 2419 397 2687 759 
Q 2956 1122 2956 1747 
Q 2956 2369 2687 2733 
Q 2419 3097 1959 3097 
z
M 1959 3584 
Q 2709 3584 3137 3096 
Q 3566 2609 3566 1747 
Q 3566 888 3137 398 
Q 2709 -91 1959 -91 
Q 1206 -91 779 398 
Q 353 888 353 1747 
Q 353 2609 779 3096 
Q 1206 3584 1959 3584 
z
" transform="scale(0.015625)"/>
      <path id="DejaVuSans-3a" d="M 750 794 
L 1409 794 
L 1409 0 
L 750 0 
L 750 794 
z
M 750 3309 
L 1409 3309 
L 1409 2516 
L 750 2516 
L 750 3309 
z
" transform="scale(0.015625)"/>
      <path id="DejaVuSans-2e" d="M 684 794 
L 1344 794 
L 1344 0 
L 684 0 
L 684 794 
z
" transform="scale(0.015625)"/>
      <path id="DejaVuSans-35" d="M 691 4666 
L 3169 4666 
L 3169 4134 
L 1269 4134 
L 1269 2991 
Q 1406 3038 1543 3061 
Q 1681 3084 1819 3084 
Q 2600 3084 3056 2656 
Q 3513 2228 3513 1497 
Q 3513 744 3044 326 
Q 2575 -91 1722 -91 
Q 1428 -91 1123 -41 
Q 819 9 494 109 
L 494 744 
Q 775 591 1075 516 
Q 1375 441 1709 441 
Q 2250 441 2565 725 
Q 2881 1009 2881 1497 
Q 2881 1984 2565 2268 
Q 2250 2553 1709 2553 
Q 1456 2553 1204 2497 
Q 953 2441 691 2322 
L 691 4666 
z
" transform="scale(0.015625)"/>
      <path id="DejaVuSans-32" d="M 1228 531 
L 3431 531 
L 3431 0 
L 469 0 
L 469 531 
Q 828 903 1448 1529 
Q 2069 2156 2228 2338 
Q 2531 2678 2651 2914 
Q 2772 3150 2772 3378 
Q 2772 3750 2511 3984 
Q 2250 4219 1831 4219 
Q 1534 4219 1204 4116 
Q 875 4013 500 3803 
L 500 4441 
Q 881 4594 1212 4672 
Q 1544 4750 1819 4750 
Q 2544 4750 2975 4387 
Q 3406 4025 3406 3419 
Q 3406 3131 3298 2873 
Q 3191 2616 2906 2266 
Q 2828 2175 2409 1742 
Q 1991 1309 1228 531 
z
" transform="scale(0.015625)"/>
      <path id="DejaVuSans-37" d="M 525 4666 
L 3525 4666 
L 3525 4397 
L 1831 0 
L 1172 0 
L 2766 4134 
L 525 4134 
L 525 4666 
z
" transform="scale(0.015625)"/>
      <path id="DejaVuSans-25" d="M 4653 2053 
Q 4381 2053 4226 1822 
Q 4072 1591 4072 1178 
Q 4072 772 4226 539 
Q 4381 306 4653 306 
Q 4919 306 5073 539 
Q 5228 772 5228 1178 
Q 5228 1588 5073 1820 
Q 4919 2053 4653 2053 
z
M 4653 2450 
Q 5147 2450 5437 2106 
Q 5728 1763 5728 1178 
Q 5728 594 5436 251 
Q 5144 -91 4653 -91 
Q 4153 -91 3862 251 
Q 3572 594 3572 1178 
Q 3572 1766 3864 2108 
Q 4156 2450 4653 2450 
z
M 1428 4353 
Q 1159 4353 1004 4120 
Q 850 3888 850 3481 
Q 850 3069 1003 2837 
Q 1156 2606 1428 2606 
Q 1700 2606 1854 2837 
Q 2009 3069 2009 3481 
Q 2009 3884 1853 4118 
Q 1697 4353 1428 4353 
z
M 4250 4750 
L 4750 4750 
L 1831 -91 
L 1331 -91 
L 4250 4750 
z
M 1428 4750 
Q 1922 4750 2215 4408 
Q 2509 4066 2509 3481 
Q 2509 2891 2217 2550 
Q 1925 2209 1428 2209 
Q 931 2209 642 2551 
Q 353 2894 353 3481 
Q 353 4063 643 4406 
Q 934 4750 1428 4750 
z
" transform="scale(0.015625)"/>
     </defs>
     <use xlink:href="#DejaVuSans-42"/>
     <use xlink:href="#DejaVuSans-65" x="68.603516"/>
     <use xlink:href="#DejaVuSans-73" x="130.126953"/>
     <use xlink:href="#DejaVuSans-74" x="182.226562"/>
     <use xlink:href="#DejaVuSans-20" x="221.435547"/>
     <use xlink:href="#DejaVuSans-45" x="253.222656"/>
     <use xlink:href="#DejaVuSans-72" x="316.40625"/>
     <use xlink:href="#DejaVuSans-72" x="355.769531"/>
     <use xlink:href="#DejaVuSans-6f" x="394.632812"/>
     <use xlink:href="#DejaVuSans-72" x="455.814453"/>
     <use xlink:href="#DejaVuSans-3a" x="495.177734"/>
     <use xlink:href="#DejaVuSans-20" x="528.869141"/>
     <use xlink:href="#DejaVuSans-30" x="560.65625"/>
     <use xlink:href="#DejaVuSans-2e" x="624.279297"/>
     <use xlink:href="#DejaVuSans-35" x="656.066406"/>
     <use xlink:href="#DejaVuSans-32" x="719.689453"/>
     <use xlink:href="#DejaVuSans-37" x="783.3125"/>
     <use xlink:href="#DejaVuSans-25" x="846.935547"/>
    </g>
   </g>
   <g id="text_8">
    <!-- Validation Error Contour for GP with Matern Kernel -->
    <g transform="translate(39.805794 16.318125)scale(0.12 -0.12)">
     <defs>
      <path id="DejaVuSans-56" d="M 1831 0 
L 50 4666 
L 709 4666 
L 2188 738 
L 3669 4666 
L 4325 4666 
L 2547 0 
L 1831 0 
z
" transform="scale(0.015625)"/>
      <path id="DejaVuSans-69" d="M 603 3500 
L 1178 3500 
L 1178 0 
L 603 0 
L 603 3500 
z
M 603 4863 
L 1178 4863 
L 1178 4134 
L 603 4134 
L 603 4863 
z
" transform="scale(0.015625)"/>
      <path id="DejaVuSans-64" d="M 2906 2969 
L 2906 4863 
L 3481 4863 
L 3481 0 
L 2906 0 
L 2906 525 
Q 2725 213 2448 61 
Q 2172 -91 1784 -91 
Q 1150 -91 751 415 
Q 353 922 353 1747 
Q 353 2572 751 3078 
Q 1150 3584 1784 3584 
Q 2172 3584 2448 3432 
Q 2725 3281 2906 2969 
z
M 947 1747 
Q 947 1113 1208 752 
Q 1469 391 1925 391 
Q 2381 391 2643 752 
Q 2906 1113 2906 1747 
Q 2906 2381 2643 2742 
Q 2381 3103 1925 3103 
Q 1469 3103 1208 2742 
Q 947 2381 947 1747 
z
" transform="scale(0.015625)"/>
      <path id="DejaVuSans-43" d="M 4122 4306 
L 4122 3641 
Q 3803 3938 3442 4084 
Q 3081 4231 2675 4231 
Q 1875 4231 1450 3742 
Q 1025 3253 1025 2328 
Q 1025 1406 1450 917 
Q 1875 428 2675 428 
Q 3081 428 3442 575 
Q 3803 722 4122 1019 
L 4122 359 
Q 3791 134 3420 21 
Q 3050 -91 2638 -91 
Q 1578 -91 968 557 
Q 359 1206 359 2328 
Q 359 3453 968 4101 
Q 1578 4750 2638 4750 
Q 3056 4750 3426 4639 
Q 3797 4528 4122 4306 
z
" transform="scale(0.015625)"/>
      <path id="DejaVuSans-75" d="M 544 1381 
L 544 3500 
L 1119 3500 
L 1119 1403 
Q 1119 906 1312 657 
Q 1506 409 1894 409 
Q 2359 409 2629 706 
Q 2900 1003 2900 1516 
L 2900 3500 
L 3475 3500 
L 3475 0 
L 2900 0 
L 2900 538 
Q 2691 219 2414 64 
Q 2138 -91 1772 -91 
Q 1169 -91 856 284 
Q 544 659 544 1381 
z
M 1991 3584 
L 1991 3584 
z
" transform="scale(0.015625)"/>
      <path id="DejaVuSans-66" d="M 2375 4863 
L 2375 4384 
L 1825 4384 
Q 1516 4384 1395 4259 
Q 1275 4134 1275 3809 
L 1275 3500 
L 2222 3500 
L 2222 3053 
L 1275 3053 
L 1275 0 
L 697 0 
L 697 3053 
L 147 3053 
L 147 3500 
L 697 3500 
L 697 3744 
Q 697 4328 969 4595 
Q 1241 4863 1831 4863 
L 2375 4863 
z
" transform="scale(0.015625)"/>
      <path id="DejaVuSans-47" d="M 3809 666 
L 3809 1919 
L 2778 1919 
L 2778 2438 
L 4434 2438 
L 4434 434 
Q 4069 175 3628 42 
Q 3188 -91 2688 -91 
Q 1594 -91 976 548 
Q 359 1188 359 2328 
Q 359 3472 976 4111 
Q 1594 4750 2688 4750 
Q 3144 4750 3555 4637 
Q 3966 4525 4313 4306 
L 4313 3634 
Q 3963 3931 3569 4081 
Q 3175 4231 2741 4231 
Q 1884 4231 1454 3753 
Q 1025 3275 1025 2328 
Q 1025 1384 1454 906 
Q 1884 428 2741 428 
Q 3075 428 3337 486 
Q 3600 544 3809 666 
z
" transform="scale(0.015625)"/>
      <path id="DejaVuSans-50" d="M 1259 4147 
L 1259 2394 
L 2053 2394 
Q 2494 2394 2734 2622 
Q 2975 2850 2975 3272 
Q 2975 3691 2734 3919 
Q 2494 4147 2053 4147 
L 1259 4147 
z
M 628 4666 
L 2053 4666 
Q 2838 4666 3239 4311 
Q 3641 3956 3641 3272 
Q 3641 2581 3239 2228 
Q 2838 1875 2053 1875 
L 1259 1875 
L 1259 0 
L 628 0 
L 628 4666 
z
" transform="scale(0.015625)"/>
      <path id="DejaVuSans-77" d="M 269 3500 
L 844 3500 
L 1563 769 
L 2278 3500 
L 2956 3500 
L 3675 769 
L 4391 3500 
L 4966 3500 
L 4050 0 
L 3372 0 
L 2619 2869 
L 1863 0 
L 1184 0 
L 269 3500 
z
" transform="scale(0.015625)"/>
      <path id="DejaVuSans-4d" d="M 628 4666 
L 1569 4666 
L 2759 1491 
L 3956 4666 
L 4897 4666 
L 4897 0 
L 4281 0 
L 4281 4097 
L 3078 897 
L 2444 897 
L 1241 4097 
L 1241 0 
L 628 0 
L 628 4666 
z
" transform="scale(0.015625)"/>
      <path id="DejaVuSans-4b" d="M 628 4666 
L 1259 4666 
L 1259 2694 
L 3353 4666 
L 4166 4666 
L 1850 2491 
L 4331 0 
L 3500 0 
L 1259 2247 
L 1259 0 
L 628 0 
L 628 4666 
z
" transform="scale(0.015625)"/>
     </defs>
     <use xlink:href="#DejaVuSans-56"/>
     <use xlink:href="#DejaVuSans-61" x="60.658203"/>
     <use xlink:href="#DejaVuSans-6c" x="121.9375"/>
     <use xlink:href="#DejaVuSans-69" x="149.720703"/>
     <use xlink:href="#DejaVuSans-64" x="177.503906"/>
     <use xlink:href="#DejaVuSans-61" x="240.980469"/>
     <use xlink:href="#DejaVuSans-74" x="302.259766"/>
     <use xlink:href="#DejaVuSans-69" x="341.46875"/>
     <use xlink:href="#DejaVuSans-6f" x="369.251953"/>
     <use xlink:href="#DejaVuSans-6e" x="430.433594"/>
     <use xlink:href="#DejaVuSans-20" x="493.8125"/>
     <use xlink:href="#DejaVuSans-45" x="525.599609"/>
     <use xlink:href="#DejaVuSans-72" x="588.783203"/>
     <use xlink:href="#DejaVuSans-72" x="628.146484"/>
     <use xlink:href="#DejaVuSans-6f" x="667.009766"/>
     <use xlink:href="#DejaVuSans-72" x="728.191406"/>
     <use xlink:href="#DejaVuSans-20" x="769.304688"/>
     <use xlink:href="#DejaVuSans-43" x="801.091797"/>
     <use xlink:href="#DejaVuSans-6f" x="870.916016"/>
     <use xlink:href="#DejaVuSans-6e" x="932.097656"/>
     <use xlink:href="#DejaVuSans-74" x="995.476562"/>
     <use xlink:href="#DejaVuSans-6f" x="1034.685547"/>
     <use xlink:href="#DejaVuSans-75" x="1095.867188"/>
     <use xlink:href="#DejaVuSans-72" x="1159.246094"/>
     <use xlink:href="#DejaVuSans-20" x="1200.359375"/>
     <use xlink:href="#DejaVuSans-66" x="1232.146484"/>
     <use xlink:href="#DejaVuSans-6f" x="1267.351562"/>
     <use xlink:href="#DejaVuSans-72" x="1328.533203"/>
     <use xlink:href="#DejaVuSans-20" x="1369.646484"/>
     <use xlink:href="#DejaVuSans-47" x="1401.433594"/>
     <use xlink:href="#DejaVuSans-50" x="1478.923828"/>
     <use xlink:href="#DejaVuSans-20" x="1539.226562"/>
     <use xlink:href="#DejaVuSans-77" x="1571.013672"/>
     <use xlink:href="#DejaVuSans-69" x="1652.800781"/>
     <use xlink:href="#DejaVuSans-74" x="1680.583984"/>
     <use xlink:href="#DejaVuSans-68" x="1719.792969"/>
     <use xlink:href="#DejaVuSans-20" x="1783.171875"/>
     <use xlink:href="#DejaVuSans-4d" x="1814.958984"/>
     <use xlink:href="#DejaVuSans-61" x="1901.238281"/>
     <use xlink:href="#DejaVuSans-74" x="1962.517578"/>
     <use xlink:href="#DejaVuSans-65" x="2001.726562"/>
     <use xlink:href="#DejaVuSans-72" x="2063.25"/>
     <use xlink:href="#DejaVuSans-6e" x="2102.613281"/>
     <use xlink:href="#DejaVuSans-20" x="2165.992188"/>
     <use xlink:href="#DejaVuSans-4b" x="2197.779297"/>
     <use xlink:href="#DejaVuSans-65" x="2258.355469"/>
     <use xlink:href="#DejaVuSans-72" x="2319.878906"/>
     <use xlink:href="#DejaVuSans-6e" x="2359.242188"/>
     <use xlink:href="#DejaVuSans-65" x="2422.621094"/>
     <use xlink:href="#DejaVuSans-6c" x="2484.144531"/>
    </g>
   </g>
  </g>
  <g id="axes_2">
   <g id="patch_7">
    <path d="M 353.661882 237.918125 
L 364.441882 237.918125 
L 364.441882 22.318125 
L 353.661882 22.318125 
z
" style="fill: #ffffff"/>
   </g>
   <g id="patch_8">
    <path clip-path="url(#p4fe72b9df8)" style="fill: #ffffff; stroke: #ffffff; stroke-width: 0.01; stroke-linejoin: miter"/>
   </g>
   <g id="QuadMesh_1">
    <path d="M 353.661882 237.918125 
L 364.441882 237.918125 
L 364.441882 201.984792 
L 353.661882 201.984792 
L 353.661882 237.918125 
" clip-path="url(#p4fe72b9df8)" style="fill: #481c6e"/>
    <path d="M 353.661882 201.984792 
L 364.441882 201.984792 
L 364.441882 166.051458 
L 353.661882 166.051458 
L 353.661882 201.984792 
" clip-path="url(#p4fe72b9df8)" style="fill: #3e4a89"/>
    <path d="M 353.661882 166.051458 
L 364.441882 166.051458 
L 364.441882 130.118125 
L 353.661882 130.118125 
L 353.661882 166.051458 
" clip-path="url(#p4fe72b9df8)" style="fill: #2a788e"/>
    <path d="M 353.661882 130.118125 
L 364.441882 130.118125 
L 364.441882 94.184792 
L 353.661882 94.184792 
L 353.661882 130.118125 
" clip-path="url(#p4fe72b9df8)" style="fill: #1fa287"/>
    <path d="M 353.661882 94.184792 
L 364.441882 94.184792 
L 364.441882 58.251458 
L 353.661882 58.251458 
L 353.661882 94.184792 
" clip-path="url(#p4fe72b9df8)" style="fill: #50c46a"/>
    <path d="M 353.661882 58.251458 
L 364.441882 58.251458 
L 364.441882 22.318125 
L 353.661882 22.318125 
L 353.661882 58.251458 
" clip-path="url(#p4fe72b9df8)" style="fill: #bddf26"/>
   </g>
   <g id="matplotlib.axis_3">
    <g id="ytick_20">
     <g id="line2d_40">
      <defs>
       <path id="m75d202ff16" d="M 0 0 
L 3.5 0 
" style="stroke: #000000; stroke-width: 0.8"/>
      </defs>
      <g>
       <use xlink:href="#m75d202ff16" x="364.441882" y="237.918125" style="stroke: #000000; stroke-width: 0.8"/>
      </g>
     </g>
     <g id="text_9">
      <!-- 0.5 -->
      <g transform="translate(371.441882 241.717344)scale(0.1 -0.1)">
       <use xlink:href="#DejaVuSans-30"/>
       <use xlink:href="#DejaVuSans-2e" x="63.623047"/>
       <use xlink:href="#DejaVuSans-35" x="95.410156"/>
      </g>
     </g>
    </g>
    <g id="ytick_21">
     <g id="line2d_41">
      <g>
       <use xlink:href="#m75d202ff16" x="364.441882" y="201.984792" style="stroke: #000000; stroke-width: 0.8"/>
      </g>
     </g>
     <g id="text_10">
      <!-- 1.0 -->
      <g transform="translate(371.441882 205.78401)scale(0.1 -0.1)">
       <use xlink:href="#DejaVuSans-31"/>
       <use xlink:href="#DejaVuSans-2e" x="63.623047"/>
       <use xlink:href="#DejaVuSans-30" x="95.410156"/>
      </g>
     </g>
    </g>
    <g id="ytick_22">
     <g id="line2d_42">
      <g>
       <use xlink:href="#m75d202ff16" x="364.441882" y="166.051458" style="stroke: #000000; stroke-width: 0.8"/>
      </g>
     </g>
     <g id="text_11">
      <!-- 2.0 -->
      <g transform="translate(371.441882 169.850677)scale(0.1 -0.1)">
       <use xlink:href="#DejaVuSans-32"/>
       <use xlink:href="#DejaVuSans-2e" x="63.623047"/>
       <use xlink:href="#DejaVuSans-30" x="95.410156"/>
      </g>
     </g>
    </g>
    <g id="ytick_23">
     <g id="line2d_43">
      <g>
       <use xlink:href="#m75d202ff16" x="364.441882" y="130.118125" style="stroke: #000000; stroke-width: 0.8"/>
      </g>
     </g>
     <g id="text_12">
      <!-- 5.0 -->
      <g transform="translate(371.441882 133.917344)scale(0.1 -0.1)">
       <use xlink:href="#DejaVuSans-35"/>
       <use xlink:href="#DejaVuSans-2e" x="63.623047"/>
       <use xlink:href="#DejaVuSans-30" x="95.410156"/>
      </g>
     </g>
    </g>
    <g id="ytick_24">
     <g id="line2d_44">
      <g>
       <use xlink:href="#m75d202ff16" x="364.441882" y="94.184792" style="stroke: #000000; stroke-width: 0.8"/>
      </g>
     </g>
     <g id="text_13">
      <!-- 10.0 -->
      <g transform="translate(371.441882 97.98401)scale(0.1 -0.1)">
       <use xlink:href="#DejaVuSans-31"/>
       <use xlink:href="#DejaVuSans-30" x="63.623047"/>
       <use xlink:href="#DejaVuSans-2e" x="127.246094"/>
       <use xlink:href="#DejaVuSans-30" x="159.033203"/>
      </g>
     </g>
    </g>
    <g id="ytick_25">
     <g id="line2d_45">
      <g>
       <use xlink:href="#m75d202ff16" x="364.441882" y="58.251458" style="stroke: #000000; stroke-width: 0.8"/>
      </g>
     </g>
     <g id="text_14">
      <!-- 20.0 -->
      <g transform="translate(371.441882 62.050677)scale(0.1 -0.1)">
       <use xlink:href="#DejaVuSans-32"/>
       <use xlink:href="#DejaVuSans-30" x="63.623047"/>
       <use xlink:href="#DejaVuSans-2e" x="127.246094"/>
       <use xlink:href="#DejaVuSans-30" x="159.033203"/>
      </g>
     </g>
    </g>
    <g id="ytick_26">
     <g id="line2d_46">
      <g>
       <use xlink:href="#m75d202ff16" x="364.441882" y="22.318125" style="stroke: #000000; stroke-width: 0.8"/>
      </g>
     </g>
     <g id="text_15">
      <!-- 50.0 -->
      <g transform="translate(371.441882 26.117344)scale(0.1 -0.1)">
       <use xlink:href="#DejaVuSans-35"/>
       <use xlink:href="#DejaVuSans-30" x="63.623047"/>
       <use xlink:href="#DejaVuSans-2e" x="127.246094"/>
       <use xlink:href="#DejaVuSans-30" x="159.033203"/>
      </g>
     </g>
    </g>
    <g id="text_16">
     <!-- Validation relRMSE [%] -->
     <g transform="translate(405.305945 187.169688)rotate(-90)scale(0.1 -0.1)">
      <defs>
       <path id="DejaVuSans-52" d="M 2841 2188 
Q 3044 2119 3236 1894 
Q 3428 1669 3622 1275 
L 4263 0 
L 3584 0 
L 2988 1197 
Q 2756 1666 2539 1819 
Q 2322 1972 1947 1972 
L 1259 1972 
L 1259 0 
L 628 0 
L 628 4666 
L 2053 4666 
Q 2853 4666 3247 4331 
Q 3641 3997 3641 3322 
Q 3641 2881 3436 2590 
Q 3231 2300 2841 2188 
z
M 1259 4147 
L 1259 2491 
L 2053 2491 
Q 2509 2491 2742 2702 
Q 2975 2913 2975 3322 
Q 2975 3731 2742 3939 
Q 2509 4147 2053 4147 
L 1259 4147 
z
" transform="scale(0.015625)"/>
       <path id="DejaVuSans-5b" d="M 550 4863 
L 1875 4863 
L 1875 4416 
L 1125 4416 
L 1125 -397 
L 1875 -397 
L 1875 -844 
L 550 -844 
L 550 4863 
z
" transform="scale(0.015625)"/>
       <path id="DejaVuSans-5d" d="M 1947 4863 
L 1947 -844 
L 622 -844 
L 622 -397 
L 1369 -397 
L 1369 4416 
L 622 4416 
L 622 4863 
L 1947 4863 
z
" transform="scale(0.015625)"/>
      </defs>
      <use xlink:href="#DejaVuSans-56"/>
      <use xlink:href="#DejaVuSans-61" x="60.658203"/>
      <use xlink:href="#DejaVuSans-6c" x="121.9375"/>
      <use xlink:href="#DejaVuSans-69" x="149.720703"/>
      <use xlink:href="#DejaVuSans-64" x="177.503906"/>
      <use xlink:href="#DejaVuSans-61" x="240.980469"/>
      <use xlink:href="#DejaVuSans-74" x="302.259766"/>
      <use xlink:href="#DejaVuSans-69" x="341.46875"/>
      <use xlink:href="#DejaVuSans-6f" x="369.251953"/>
      <use xlink:href="#DejaVuSans-6e" x="430.433594"/>
      <use xlink:href="#DejaVuSans-20" x="493.8125"/>
      <use xlink:href="#DejaVuSans-72" x="525.599609"/>
      <use xlink:href="#DejaVuSans-65" x="564.462891"/>
      <use xlink:href="#DejaVuSans-6c" x="625.986328"/>
      <use xlink:href="#DejaVuSans-52" x="653.769531"/>
      <use xlink:href="#DejaVuSans-4d" x="723.251953"/>
      <use xlink:href="#DejaVuSans-53" x="809.53125"/>
      <use xlink:href="#DejaVuSans-45" x="873.007812"/>
      <use xlink:href="#DejaVuSans-20" x="936.191406"/>
      <use xlink:href="#DejaVuSans-5b" x="967.978516"/>
      <use xlink:href="#DejaVuSans-25" x="1006.992188"/>
      <use xlink:href="#DejaVuSans-5d" x="1102.011719"/>
     </g>
    </g>
   </g>
   <g id="LineCollection_1"/>
   <g id="patch_9">
    <path d="M 353.661882 237.918125 
L 359.051882 237.918125 
L 364.441882 237.918125 
L 364.441882 22.318125 
L 359.051882 22.318125 
L 353.661882 22.318125 
L 353.661882 237.918125 
z
" style="fill: none; stroke: #000000; stroke-width: 0.8; stroke-linejoin: miter; stroke-linecap: square"/>
   </g>
  </g>
 </g>
 <defs>
  <clipPath id="pfd668bd45c">
   <rect x="45.5" y="22.318125" width="290.034712" height="215.6"/>
  </clipPath>
  <clipPath id="p4fe72b9df8">
   <rect x="353.661882" y="22.318125" width="10.78" height="215.6"/>
  </clipPath>
 </defs>
</svg>
