<?xml version="1.0" encoding="utf-8" standalone="no"?>
<!DOCTYPE svg PUBLIC "-//W3C//DTD SVG 1.1//EN"
  "http://www.w3.org/Graphics/SVG/1.1/DTD/svg11.dtd">
<svg xmlns:xlink="http://www.w3.org/1999/xlink" width="416.426589pt" height="271.674375pt" viewBox="0 0 416.426589 271.674375" xmlns="http://www.w3.org/2000/svg" version="1.1">
 <metadata>
  <rdf:RDF xmlns:dc="http://purl.org/dc/elements/1.1/" xmlns:cc="http://creativecommons.org/ns#" xmlns:rdf="http://www.w3.org/1999/02/22-rdf-syntax-ns#">
   <cc:Work>
    <dc:type rdf:resource="http://purl.org/dc/dcmitype/StillImage"/>
    <dc:date>2022-05-20T11:22:12.386946</dc:date>
    <dc:format>image/svg+xml</dc:format>
    <dc:creator>
     <cc:Agent>
      <dc:title>Matplotlib v3.5.0, https://matplotlib.org/</dc:title>
     </cc:Agent>
    </dc:creator>
   </cc:Work>
  </rdf:RDF>
 </metadata>
 <defs>
  <style type="text/css">*{stroke-linejoin: round; stroke-linecap: butt}</style>
 </defs>
 <g id="figure_1">
  <g id="patch_1">
   <path d="M 0 271.674375 
L 416.426589 271.674375 
L 416.426589 0 
L 0 0 
L 0 271.674375 
z
" style="fill: none"/>
  </g>
  <g id="axes_1">
   <g id="patch_2">
    <path d="M 51.4 234.118125 
L 331.805025 234.118125 
L 331.805025 22.318125 
L 51.4 22.318125 
z
" style="fill: #ffffff"/>
   </g>
   <g id="PathCollection_1">
    <path d="M 131.291087 141.457963 
L 174.074103 120.921328 
L 210.375973 124.229802 
L 231.779405 141.457963 
L 235.129831 141.466107 
L 255.144397 141.474912 
L 263.405311 141.457963 
L 272.639504 124.877812 
L 288.617164 117.603756 
L 303.612331 115.996245 
L 317.941478 115.36338 
L 331.805025 115.026232 
L 331.805025 114.037855 
L 331.805025 95.340376 
L 331.805025 92.154376 
L 317.941478 92.627451 
L 303.612331 93.070162 
L 288.617164 93.491301 
L 272.639504 93.903997 
L 255.144397 94.317223 
L 235.129831 94.731091 
L 210.375973 95.139682 
L 197.759537 95.340376 
L 174.074103 96.388294 
L 51.4 103.672135 
L 51.4 114.037855 
L 51.4 141.457963 
L 51.4 141.509083 
z
" clip-path="url(#p7f0da7a3bf)" style="fill: #48186a"/>
   </g>
   <g id="PathCollection_2">
    <path d="M 174.074103 141.722215 
L 210.375973 141.779778 
L 235.129831 141.827834 
L 255.144397 141.836632 
L 272.639504 141.796695 
L 288.617164 141.717757 
L 303.612331 141.614554 
L 317.941478 141.497605 
L 322.853254 141.457963 
L 331.805025 134.66668 
L 331.805025 115.026232 
L 317.941478 115.36338 
L 303.612331 115.996245 
L 288.617164 117.603756 
L 272.639504 124.877812 
L 263.405311 141.457963 
L 255.144397 141.474912 
L 235.129831 141.466107 
L 231.779405 141.457963 
L 210.375973 124.229802 
L 174.074103 120.921328 
L 131.291087 141.457963 
L 51.4 141.509083 
L 51.4 141.870778 
z
" clip-path="url(#p7f0da7a3bf)" style="fill: #414287"/>
    <path d="M 174.074103 96.388294 
L 197.759537 95.340376 
L 210.375973 95.139682 
L 235.129831 94.731091 
L 255.144397 94.317223 
L 272.639504 93.903997 
L 288.617164 93.491301 
L 303.612331 93.070162 
L 317.941478 92.627451 
L 331.805025 92.154376 
L 331.805025 80.222654 
L 331.805025 69.752528 
L 317.941478 70.639476 
L 303.612331 71.747621 
L 288.617164 73.027201 
L 272.639504 74.391305 
L 255.144397 75.746611 
L 235.129831 77.02064 
L 210.375973 78.175798 
L 174.074103 79.262708 
L 166.851783 80.222654 
L 51.4 86.406777 
L 51.4 95.340376 
L 51.4 103.672135 
z
" clip-path="url(#p7f0da7a3bf)" style="fill: #414287"/>
   </g>
   <g id="PathCollection_3">
    <path d="M 174.074103 142.457551 
L 210.375973 142.515025 
L 235.129831 142.563006 
L 255.144397 142.57179 
L 272.639504 142.531915 
L 288.617164 142.453099 
L 303.612331 142.350057 
L 317.941478 142.233289 
L 331.805025 142.109331 
L 331.805025 141.457963 
L 331.805025 134.66668 
L 322.853254 141.457963 
L 317.941478 141.497605 
L 303.612331 141.614554 
L 288.617164 141.717757 
L 272.639504 141.796695 
L 255.144397 141.836632 
L 235.129831 141.827834 
L 210.375973 141.779778 
L 174.074103 141.722215 
L 51.4 141.870778 
L 51.4 142.605882 
z
" clip-path="url(#p7f0da7a3bf)" style="fill: #31668e"/>
    <path d="M 166.851783 80.222654 
L 174.074103 79.262708 
L 210.375973 78.175798 
L 235.129831 77.02064 
L 255.144397 75.746611 
L 272.639504 74.391305 
L 288.617164 73.027201 
L 303.612331 71.747621 
L 317.941478 70.639476 
L 331.805025 69.752528 
L 331.805025 67.007971 
L 331.805025 57.133888 
L 317.941478 57.574055 
L 303.612331 58.007061 
L 288.617164 58.491021 
L 272.639504 59.11747 
L 255.144397 60.046577 
L 235.129831 61.558538 
L 210.375973 64.024016 
L 179.15948 67.007971 
L 174.074103 67.237365 
L 51.4 73.176199 
L 51.4 80.222654 
L 51.4 86.406777 
z
" clip-path="url(#p7f0da7a3bf)" style="fill: #31668e"/>
   </g>
   <g id="PathCollection_4">
    <path d="M 174.074103 142.83125 
L 210.375973 142.888678 
L 235.129831 142.93662 
L 255.144397 142.945397 
L 272.639504 142.905555 
L 288.617164 142.826802 
L 303.612331 142.723843 
L 317.941478 142.607168 
L 331.805025 142.483309 
L 331.805025 142.109331 
L 317.941478 142.233289 
L 303.612331 142.350057 
L 288.617164 142.453099 
L 272.639504 142.531915 
L 255.144397 142.57179 
L 235.129831 142.563006 
L 210.375973 142.515025 
L 174.074103 142.457551 
L 51.4 142.605882 
L 51.4 142.979462 
z
" clip-path="url(#p7f0da7a3bf)" style="fill: #297b8e"/>
    <path d="M 174.074103 67.237365 
L 179.15948 67.007971 
L 210.375973 64.024016 
L 235.129831 61.558538 
L 255.144397 60.046577 
L 272.639504 59.11747 
L 288.617164 58.491021 
L 303.612331 58.007061 
L 317.941478 57.574055 
L 331.805025 57.133888 
L 331.805025 54.939469 
L 331.805025 51.31856 
L 317.941478 52.397796 
L 303.612331 53.203943 
L 288.617164 53.801829 
L 272.639504 54.280567 
L 255.144397 54.747309 
L 250.143055 54.939469 
L 235.129831 55.709334 
L 210.375973 57.886774 
L 174.074103 61.785805 
L 124.449673 67.007971 
L 51.4 68.60575 
L 51.4 73.176199 
z
" clip-path="url(#p7f0da7a3bf)" style="fill: #297b8e"/>
   </g>
   <g id="PathCollection_5">
    <path d="M 174.074103 144.763748 
L 210.375973 144.820928 
L 235.129831 144.868663 
L 255.144397 144.877403 
L 272.639504 144.837732 
L 288.617164 144.759319 
L 303.612331 144.656802 
L 317.941478 144.540628 
L 331.805025 144.417298 
L 331.805025 142.483309 
L 317.941478 142.607168 
L 303.612331 142.723843 
L 288.617164 142.826802 
L 272.639504 142.905555 
L 255.144397 142.945397 
L 235.129831 142.93662 
L 210.375973 142.888678 
L 174.074103 142.83125 
L 51.4 142.979462 
L 51.4 144.91132 
z
" clip-path="url(#p7f0da7a3bf)" style="fill: #21918c"/>
    <path d="M 124.449673 67.007971 
L 174.074103 61.785805 
L 210.375973 57.886774 
L 235.129831 55.709334 
L 250.143055 54.939469 
L 255.144397 54.747309 
L 272.639504 54.280567 
L 288.617164 53.801829 
L 303.612331 53.203943 
L 317.941478 52.397796 
L 331.805025 51.31856 
L 331.805025 43.61308 
L 331.805025 34.670257 
L 317.941478 35.207476 
L 303.612331 35.812772 
L 288.617164 36.575954 
L 272.639504 37.649176 
L 255.144397 39.326034 
L 235.129831 42.215787 
L 228.200306 43.61308 
L 210.375973 44.463087 
L 174.074103 45.87437 
L 97.194568 54.939469 
L 51.4 55.943177 
L 51.4 67.007971 
L 51.4 68.60575 
z
" clip-path="url(#p7f0da7a3bf)" style="fill: #21918c"/>
   </g>
   <g id="PathCollection_6">
    <path d="M 174.074103 148.991899 
L 210.375973 149.048486 
L 235.129831 149.095725 
L 255.144397 149.104374 
L 272.639504 149.065115 
L 288.617164 148.987516 
L 303.612331 148.88606 
L 317.941478 148.771084 
L 331.805025 148.649022 
L 331.805025 144.417298 
L 317.941478 144.540628 
L 303.612331 144.656802 
L 288.617164 144.759319 
L 272.639504 144.837732 
L 255.144397 144.877403 
L 235.129831 144.868663 
L 210.375973 144.820928 
L 174.074103 144.763748 
L 51.4 144.91132 
L 51.4 149.137938 
z
" clip-path="url(#p7f0da7a3bf)" style="fill: #29af7f"/>
    <path d="M 97.194568 54.939469 
L 174.074103 45.87437 
L 210.375973 44.463087 
L 228.200306 43.61308 
L 235.129831 42.215787 
L 255.144397 39.326034 
L 272.639504 37.649176 
L 288.617164 36.575954 
L 303.612331 35.812772 
L 317.941478 35.207476 
L 331.805025 34.670257 
L 331.805025 32.789761 
L 331.805025 22.318125 
L 317.941478 22.318125 
L 303.612331 22.318125 
L 288.617164 22.318125 
L 272.639504 22.318125 
L 255.144397 22.318125 
L 235.129831 22.318125 
L 210.375973 22.318125 
L 192.729657 22.318125 
L 174.074103 23.857971 
L 119.748363 32.789761 
L 51.4 35.262932 
L 51.4 43.61308 
L 51.4 54.939469 
L 51.4 55.943177 
z
" clip-path="url(#p7f0da7a3bf)" style="fill: #29af7f"/>
   </g>
   <g id="PathCollection_7">
    <path d="M 174.074103 159.44451 
L 210.375973 159.499273 
L 235.129831 159.544987 
L 255.144397 159.553356 
L 272.639504 159.515365 
L 288.617164 159.440269 
L 303.612331 159.342076 
L 317.941478 159.230787 
L 331.805025 159.112626 
L 331.805025 148.649022 
L 317.941478 148.771084 
L 303.612331 148.88606 
L 288.617164 148.987516 
L 272.639504 149.065115 
L 255.144397 149.104374 
L 235.129831 149.095725 
L 210.375973 149.048486 
L 174.074103 148.991899 
L 51.4 149.137938 
L 51.4 159.585835 
z
" clip-path="url(#p7f0da7a3bf)" style="fill: #63cb5f"/>
    <path d="M 119.748363 32.789761 
L 174.074103 23.857971 
L 192.729657 22.318125 
L 174.074103 22.318125 
L 51.4 22.318125 
L 51.4 32.789761 
L 51.4 35.262932 
z
" clip-path="url(#p7f0da7a3bf)" style="fill: #63cb5f"/>
   </g>
   <g id="PathCollection_8">
    <path d="M 174.074103 166.184212 
L 210.375973 166.237465 
L 235.129831 166.281916 
L 255.144397 166.290054 
L 272.639504 166.253113 
L 288.617164 166.180088 
L 303.612331 166.084597 
L 317.941478 165.97636 
L 331.805025 165.86143 
L 331.805025 159.112626 
L 317.941478 159.230787 
L 303.612331 159.342076 
L 288.617164 159.440269 
L 272.639504 159.515365 
L 255.144397 159.553356 
L 235.129831 159.544987 
L 210.375973 159.499273 
L 174.074103 159.44451 
L 51.4 159.585835 
L 51.4 166.321635 
z
" clip-path="url(#p7f0da7a3bf)" style="fill: #9bd93c"/>
   </g>
   <g id="PathCollection_9">
    <path d="M 174.074103 234.118125 
L 210.375973 234.118125 
L 235.129831 234.118125 
L 255.144397 234.118125 
L 272.639504 234.118125 
L 288.617164 234.118125 
L 303.612331 234.118125 
L 317.941478 234.118125 
L 331.805025 234.118125 
L 331.805025 165.86143 
L 317.941478 165.97636 
L 303.612331 166.084597 
L 288.617164 166.180088 
L 272.639504 166.253113 
L 255.144397 166.290054 
L 235.129831 166.281916 
L 210.375973 166.237465 
L 174.074103 166.184212 
L 51.4 166.321635 
L 51.4 234.118125 
z
" clip-path="url(#p7f0da7a3bf)" style="fill: #d5e21a"/>
   </g>
   <g id="matplotlib.axis_1">
    <g id="xtick_1">
     <g id="line2d_1">
      <defs>
       <path id="m893c1418a5" d="M 0 0 
L 0 3.5 
" style="stroke: #000000; stroke-width: 0.8"/>
      </defs>
      <g>
       <use xlink:href="#m893c1418a5" x="117.193245" y="234.118125" style="stroke: #000000; stroke-width: 0.8"/>
      </g>
     </g>
     <g id="text_1">
      <!-- $\mathdefault{10^{-1}}$ -->
      <g transform="translate(105.443245 248.716563)scale(0.1 -0.1)">
       <defs>
        <path id="DejaVuSans-31" d="M 794 531 
L 1825 531 
L 1825 4091 
L 703 3866 
L 703 4441 
L 1819 4666 
L 2450 4666 
L 2450 531 
L 3481 531 
L 3481 0 
L 794 0 
L 794 531 
z
" transform="scale(0.015625)"/>
        <path id="DejaVuSans-30" d="M 2034 4250 
Q 1547 4250 1301 3770 
Q 1056 3291 1056 2328 
Q 1056 1369 1301 889 
Q 1547 409 2034 409 
Q 2525 409 2770 889 
Q 3016 1369 3016 2328 
Q 3016 3291 2770 3770 
Q 2525 4250 2034 4250 
z
M 2034 4750 
Q 2819 4750 3233 4129 
Q 3647 3509 3647 2328 
Q 3647 1150 3233 529 
Q 2819 -91 2034 -91 
Q 1250 -91 836 529 
Q 422 1150 422 2328 
Q 422 3509 836 4129 
Q 1250 4750 2034 4750 
z
" transform="scale(0.015625)"/>
        <path id="DejaVuSans-2212" d="M 678 2272 
L 4684 2272 
L 4684 1741 
L 678 1741 
L 678 2272 
z
" transform="scale(0.015625)"/>
       </defs>
       <use xlink:href="#DejaVuSans-31" transform="translate(0 0.684375)"/>
       <use xlink:href="#DejaVuSans-30" transform="translate(63.623047 0.684375)"/>
       <use xlink:href="#DejaVuSans-2212" transform="translate(128.203125 38.965625)scale(0.7)"/>
       <use xlink:href="#DejaVuSans-31" transform="translate(186.855469 38.965625)scale(0.7)"/>
      </g>
     </g>
    </g>
    <g id="xtick_2">
     <g id="line2d_2">
      <g>
       <use xlink:href="#m893c1418a5" x="221.169025" y="234.118125" style="stroke: #000000; stroke-width: 0.8"/>
      </g>
     </g>
     <g id="text_2">
      <!-- $\mathdefault{10^{0}}$ -->
      <g transform="translate(212.369025 248.716563)scale(0.1 -0.1)">
       <use xlink:href="#DejaVuSans-31" transform="translate(0 0.765625)"/>
       <use xlink:href="#DejaVuSans-30" transform="translate(63.623047 0.765625)"/>
       <use xlink:href="#DejaVuSans-30" transform="translate(128.203125 39.046875)scale(0.7)"/>
      </g>
     </g>
    </g>
    <g id="xtick_3">
     <g id="line2d_3">
      <g>
       <use xlink:href="#m893c1418a5" x="325.144806" y="234.118125" style="stroke: #000000; stroke-width: 0.8"/>
      </g>
     </g>
     <g id="text_3">
      <!-- $\mathdefault{10^{1}}$ -->
      <g transform="translate(316.344806 248.716563)scale(0.1 -0.1)">
       <use xlink:href="#DejaVuSans-31" transform="translate(0 0.684375)"/>
       <use xlink:href="#DejaVuSans-30" transform="translate(63.623047 0.684375)"/>
       <use xlink:href="#DejaVuSans-31" transform="translate(128.203125 38.965625)scale(0.7)"/>
      </g>
     </g>
    </g>
    <g id="xtick_4">
     <g id="line2d_4">
      <defs>
       <path id="m9e4f05d93f" d="M 0 0 
L 0 2 
" style="stroke: #000000; stroke-width: 0.6"/>
      </defs>
      <g>
       <use xlink:href="#m9e4f05d93f" x="62.826519" y="234.118125" style="stroke: #000000; stroke-width: 0.6"/>
      </g>
     </g>
    </g>
    <g id="xtick_5">
     <g id="line2d_5">
      <g>
       <use xlink:href="#m9e4f05d93f" x="75.817122" y="234.118125" style="stroke: #000000; stroke-width: 0.6"/>
      </g>
     </g>
    </g>
    <g id="xtick_6">
     <g id="line2d_6">
      <g>
       <use xlink:href="#m9e4f05d93f" x="85.893416" y="234.118125" style="stroke: #000000; stroke-width: 0.6"/>
      </g>
     </g>
    </g>
    <g id="xtick_7">
     <g id="line2d_7">
      <g>
       <use xlink:href="#m9e4f05d93f" x="94.126348" y="234.118125" style="stroke: #000000; stroke-width: 0.6"/>
      </g>
     </g>
    </g>
    <g id="xtick_8">
     <g id="line2d_8">
      <g>
       <use xlink:href="#m9e4f05d93f" x="101.087193" y="234.118125" style="stroke: #000000; stroke-width: 0.6"/>
      </g>
     </g>
    </g>
    <g id="xtick_9">
     <g id="line2d_9">
      <g>
       <use xlink:href="#m9e4f05d93f" x="107.116951" y="234.118125" style="stroke: #000000; stroke-width: 0.6"/>
      </g>
     </g>
    </g>
    <g id="xtick_10">
     <g id="line2d_10">
      <g>
       <use xlink:href="#m9e4f05d93f" x="112.435574" y="234.118125" style="stroke: #000000; stroke-width: 0.6"/>
      </g>
     </g>
    </g>
    <g id="xtick_11">
     <g id="line2d_11">
      <g>
       <use xlink:href="#m9e4f05d93f" x="148.493074" y="234.118125" style="stroke: #000000; stroke-width: 0.6"/>
      </g>
     </g>
    </g>
    <g id="xtick_12">
     <g id="line2d_12">
      <g>
       <use xlink:href="#m9e4f05d93f" x="166.8023" y="234.118125" style="stroke: #000000; stroke-width: 0.6"/>
      </g>
     </g>
    </g>
    <g id="xtick_13">
     <g id="line2d_13">
      <g>
       <use xlink:href="#m9e4f05d93f" x="179.792903" y="234.118125" style="stroke: #000000; stroke-width: 0.6"/>
      </g>
     </g>
    </g>
    <g id="xtick_14">
     <g id="line2d_14">
      <g>
       <use xlink:href="#m9e4f05d93f" x="189.869197" y="234.118125" style="stroke: #000000; stroke-width: 0.6"/>
      </g>
     </g>
    </g>
    <g id="xtick_15">
     <g id="line2d_15">
      <g>
       <use xlink:href="#m9e4f05d93f" x="198.102129" y="234.118125" style="stroke: #000000; stroke-width: 0.6"/>
      </g>
     </g>
    </g>
    <g id="xtick_16">
     <g id="line2d_16">
      <g>
       <use xlink:href="#m9e4f05d93f" x="205.062973" y="234.118125" style="stroke: #000000; stroke-width: 0.6"/>
      </g>
     </g>
    </g>
    <g id="xtick_17">
     <g id="line2d_17">
      <g>
       <use xlink:href="#m9e4f05d93f" x="211.092731" y="234.118125" style="stroke: #000000; stroke-width: 0.6"/>
      </g>
     </g>
    </g>
    <g id="xtick_18">
     <g id="line2d_18">
      <g>
       <use xlink:href="#m9e4f05d93f" x="216.411355" y="234.118125" style="stroke: #000000; stroke-width: 0.6"/>
      </g>
     </g>
    </g>
    <g id="xtick_19">
     <g id="line2d_19">
      <g>
       <use xlink:href="#m9e4f05d93f" x="252.468854" y="234.118125" style="stroke: #000000; stroke-width: 0.6"/>
      </g>
     </g>
    </g>
    <g id="xtick_20">
     <g id="line2d_20">
      <g>
       <use xlink:href="#m9e4f05d93f" x="270.77808" y="234.118125" style="stroke: #000000; stroke-width: 0.6"/>
      </g>
     </g>
    </g>
    <g id="xtick_21">
     <g id="line2d_21">
      <g>
       <use xlink:href="#m9e4f05d93f" x="283.768683" y="234.118125" style="stroke: #000000; stroke-width: 0.6"/>
      </g>
     </g>
    </g>
    <g id="xtick_22">
     <g id="line2d_22">
      <g>
       <use xlink:href="#m9e4f05d93f" x="293.844977" y="234.118125" style="stroke: #000000; stroke-width: 0.6"/>
      </g>
     </g>
    </g>
    <g id="xtick_23">
     <g id="line2d_23">
      <g>
       <use xlink:href="#m9e4f05d93f" x="302.077909" y="234.118125" style="stroke: #000000; stroke-width: 0.6"/>
      </g>
     </g>
    </g>
    <g id="xtick_24">
     <g id="line2d_24">
      <g>
       <use xlink:href="#m9e4f05d93f" x="309.038754" y="234.118125" style="stroke: #000000; stroke-width: 0.6"/>
      </g>
     </g>
    </g>
    <g id="xtick_25">
     <g id="line2d_25">
      <g>
       <use xlink:href="#m9e4f05d93f" x="315.068512" y="234.118125" style="stroke: #000000; stroke-width: 0.6"/>
      </g>
     </g>
    </g>
    <g id="xtick_26">
     <g id="line2d_26">
      <g>
       <use xlink:href="#m9e4f05d93f" x="320.387135" y="234.118125" style="stroke: #000000; stroke-width: 0.6"/>
      </g>
     </g>
    </g>
    <g id="text_4">
     <!-- Constant Value, $\sigma_0$ -->
     <g transform="translate(144.702513 262.394688)scale(0.1 -0.1)">
      <defs>
       <path id="DejaVuSans-43" d="M 4122 4306 
L 4122 3641 
Q 3803 3938 3442 4084 
Q 3081 4231 2675 4231 
Q 1875 4231 1450 3742 
Q 1025 3253 1025 2328 
Q 1025 1406 1450 917 
Q 1875 428 2675 428 
Q 3081 428 3442 575 
Q 3803 722 4122 1019 
L 4122 359 
Q 3791 134 3420 21 
Q 3050 -91 2638 -91 
Q 1578 -91 968 557 
Q 359 1206 359 2328 
Q 359 3453 968 4101 
Q 1578 4750 2638 4750 
Q 3056 4750 3426 4639 
Q 3797 4528 4122 4306 
z
" transform="scale(0.015625)"/>
       <path id="DejaVuSans-6f" d="M 1959 3097 
Q 1497 3097 1228 2736 
Q 959 2375 959 1747 
Q 959 1119 1226 758 
Q 1494 397 1959 397 
Q 2419 397 2687 759 
Q 2956 1122 2956 1747 
Q 2956 2369 2687 2733 
Q 2419 3097 1959 3097 
z
M 1959 3584 
Q 2709 3584 3137 3096 
Q 3566 2609 3566 1747 
Q 3566 888 3137 398 
Q 2709 -91 1959 -91 
Q 1206 -91 779 398 
Q 353 888 353 1747 
Q 353 2609 779 3096 
Q 1206 3584 1959 3584 
z
" transform="scale(0.015625)"/>
       <path id="DejaVuSans-6e" d="M 3513 2113 
L 3513 0 
L 2938 0 
L 2938 2094 
Q 2938 2591 2744 2837 
Q 2550 3084 2163 3084 
Q 1697 3084 1428 2787 
Q 1159 2491 1159 1978 
L 1159 0 
L 581 0 
L 581 3500 
L 1159 3500 
L 1159 2956 
Q 1366 3272 1645 3428 
Q 1925 3584 2291 3584 
Q 2894 3584 3203 3211 
Q 3513 2838 3513 2113 
z
" transform="scale(0.015625)"/>
       <path id="DejaVuSans-73" d="M 2834 3397 
L 2834 2853 
Q 2591 2978 2328 3040 
Q 2066 3103 1784 3103 
Q 1356 3103 1142 2972 
Q 928 2841 928 2578 
Q 928 2378 1081 2264 
Q 1234 2150 1697 2047 
L 1894 2003 
Q 2506 1872 2764 1633 
Q 3022 1394 3022 966 
Q 3022 478 2636 193 
Q 2250 -91 1575 -91 
Q 1294 -91 989 -36 
Q 684 19 347 128 
L 347 722 
Q 666 556 975 473 
Q 1284 391 1588 391 
Q 1994 391 2212 530 
Q 2431 669 2431 922 
Q 2431 1156 2273 1281 
Q 2116 1406 1581 1522 
L 1381 1569 
Q 847 1681 609 1914 
Q 372 2147 372 2553 
Q 372 3047 722 3315 
Q 1072 3584 1716 3584 
Q 2034 3584 2315 3537 
Q 2597 3491 2834 3397 
z
" transform="scale(0.015625)"/>
       <path id="DejaVuSans-74" d="M 1172 4494 
L 1172 3500 
L 2356 3500 
L 2356 3053 
L 1172 3053 
L 1172 1153 
Q 1172 725 1289 603 
Q 1406 481 1766 481 
L 2356 481 
L 2356 0 
L 1766 0 
Q 1100 0 847 248 
Q 594 497 594 1153 
L 594 3053 
L 172 3053 
L 172 3500 
L 594 3500 
L 594 4494 
L 1172 4494 
z
" transform="scale(0.015625)"/>
       <path id="DejaVuSans-61" d="M 2194 1759 
Q 1497 1759 1228 1600 
Q 959 1441 959 1056 
Q 959 750 1161 570 
Q 1363 391 1709 391 
Q 2188 391 2477 730 
Q 2766 1069 2766 1631 
L 2766 1759 
L 2194 1759 
z
M 3341 1997 
L 3341 0 
L 2766 0 
L 2766 531 
Q 2569 213 2275 61 
Q 1981 -91 1556 -91 
Q 1019 -91 701 211 
Q 384 513 384 1019 
Q 384 1609 779 1909 
Q 1175 2209 1959 2209 
L 2766 2209 
L 2766 2266 
Q 2766 2663 2505 2880 
Q 2244 3097 1772 3097 
Q 1472 3097 1187 3025 
Q 903 2953 641 2809 
L 641 3341 
Q 956 3463 1253 3523 
Q 1550 3584 1831 3584 
Q 2591 3584 2966 3190 
Q 3341 2797 3341 1997 
z
" transform="scale(0.015625)"/>
       <path id="DejaVuSans-20" transform="scale(0.015625)"/>
       <path id="DejaVuSans-56" d="M 1831 0 
L 50 4666 
L 709 4666 
L 2188 738 
L 3669 4666 
L 4325 4666 
L 2547 0 
L 1831 0 
z
" transform="scale(0.015625)"/>
       <path id="DejaVuSans-6c" d="M 603 4863 
L 1178 4863 
L 1178 0 
L 603 0 
L 603 4863 
z
" transform="scale(0.015625)"/>
       <path id="DejaVuSans-75" d="M 544 1381 
L 544 3500 
L 1119 3500 
L 1119 1403 
Q 1119 906 1312 657 
Q 1506 409 1894 409 
Q 2359 409 2629 706 
Q 2900 1003 2900 1516 
L 2900 3500 
L 3475 3500 
L 3475 0 
L 2900 0 
L 2900 538 
Q 2691 219 2414 64 
Q 2138 -91 1772 -91 
Q 1169 -91 856 284 
Q 544 659 544 1381 
z
M 1991 3584 
L 1991 3584 
z
" transform="scale(0.015625)"/>
       <path id="DejaVuSans-65" d="M 3597 1894 
L 3597 1613 
L 953 1613 
Q 991 1019 1311 708 
Q 1631 397 2203 397 
Q 2534 397 2845 478 
Q 3156 559 3463 722 
L 3463 178 
Q 3153 47 2828 -22 
Q 2503 -91 2169 -91 
Q 1331 -91 842 396 
Q 353 884 353 1716 
Q 353 2575 817 3079 
Q 1281 3584 2069 3584 
Q 2775 3584 3186 3129 
Q 3597 2675 3597 1894 
z
M 3022 2063 
Q 3016 2534 2758 2815 
Q 2500 3097 2075 3097 
Q 1594 3097 1305 2825 
Q 1016 2553 972 2059 
L 3022 2063 
z
" transform="scale(0.015625)"/>
       <path id="DejaVuSans-2c" d="M 750 794 
L 1409 794 
L 1409 256 
L 897 -744 
L 494 -744 
L 750 256 
L 750 794 
z
" transform="scale(0.015625)"/>
       <path id="DejaVuSans-Oblique-3c3" d="M 2219 3044 
Q 1744 3044 1422 2700 
Q 1081 2341 969 1747 
Q 844 1119 1044 756 
Q 1241 397 1706 397 
Q 2166 397 2503 759 
Q 2844 1122 2966 1747 
Q 3075 2319 2881 2700 
Q 2700 3044 2219 3044 
z
M 2309 3503 
L 4219 3500 
L 4106 2925 
L 3463 2925 
Q 3706 2438 3575 1747 
Q 3406 888 2884 400 
Q 2359 -91 1609 -91 
Q 856 -91 525 400 
Q 194 888 363 1747 
Q 528 2609 1050 3097 
Q 1484 3503 2309 3503 
z
" transform="scale(0.015625)"/>
      </defs>
      <use xlink:href="#DejaVuSans-43" transform="translate(0 0.015625)"/>
      <use xlink:href="#DejaVuSans-6f" transform="translate(69.824219 0.015625)"/>
      <use xlink:href="#DejaVuSans-6e" transform="translate(131.005859 0.015625)"/>
      <use xlink:href="#DejaVuSans-73" transform="translate(194.384766 0.015625)"/>
      <use xlink:href="#DejaVuSans-74" transform="translate(246.484375 0.015625)"/>
      <use xlink:href="#DejaVuSans-61" transform="translate(285.693359 0.015625)"/>
      <use xlink:href="#DejaVuSans-6e" transform="translate(346.972656 0.015625)"/>
      <use xlink:href="#DejaVuSans-74" transform="translate(410.351562 0.015625)"/>
      <use xlink:href="#DejaVuSans-20" transform="translate(449.560547 0.015625)"/>
      <use xlink:href="#DejaVuSans-56" transform="translate(481.347656 0.015625)"/>
      <use xlink:href="#DejaVuSans-61" transform="translate(549.755859 0.015625)"/>
      <use xlink:href="#DejaVuSans-6c" transform="translate(611.035156 0.015625)"/>
      <use xlink:href="#DejaVuSans-75" transform="translate(638.818359 0.015625)"/>
      <use xlink:href="#DejaVuSans-65" transform="translate(702.197266 0.015625)"/>
      <use xlink:href="#DejaVuSans-2c" transform="translate(763.720703 0.015625)"/>
      <use xlink:href="#DejaVuSans-20" transform="translate(795.507812 0.015625)"/>
      <use xlink:href="#DejaVuSans-Oblique-3c3" transform="translate(827.294922 0.015625)"/>
      <use xlink:href="#DejaVuSans-30" transform="translate(890.673828 -16.390625)scale(0.7)"/>
     </g>
    </g>
   </g>
   <g id="matplotlib.axis_2">
    <g id="ytick_1">
     <g id="line2d_27">
      <defs>
       <path id="m9de79cf515" d="M 0 0 
L -3.5 0 
" style="stroke: #000000; stroke-width: 0.8"/>
      </defs>
      <g>
       <use xlink:href="#m9de79cf515" x="51.4" y="184.422121" style="stroke: #000000; stroke-width: 0.8"/>
      </g>
     </g>
     <g id="text_5">
      <!-- $\mathdefault{10^{-1}}$ -->
      <g transform="translate(20.9 188.22134)scale(0.1 -0.1)">
       <use xlink:href="#DejaVuSans-31" transform="translate(0 0.684375)"/>
       <use xlink:href="#DejaVuSans-30" transform="translate(63.623047 0.684375)"/>
       <use xlink:href="#DejaVuSans-2212" transform="translate(128.203125 38.965625)scale(0.7)"/>
       <use xlink:href="#DejaVuSans-31" transform="translate(186.855469 38.965625)scale(0.7)"/>
      </g>
     </g>
    </g>
    <g id="ytick_2">
     <g id="line2d_28">
      <g>
       <use xlink:href="#m9de79cf515" x="51.4" y="105.885474" style="stroke: #000000; stroke-width: 0.8"/>
      </g>
     </g>
     <g id="text_6">
      <!-- $\mathdefault{10^{0}}$ -->
      <g transform="translate(26.8 109.684693)scale(0.1 -0.1)">
       <use xlink:href="#DejaVuSans-31" transform="translate(0 0.765625)"/>
       <use xlink:href="#DejaVuSans-30" transform="translate(63.623047 0.765625)"/>
       <use xlink:href="#DejaVuSans-30" transform="translate(128.203125 39.046875)scale(0.7)"/>
      </g>
     </g>
    </g>
    <g id="ytick_3">
     <g id="line2d_29">
      <g>
       <use xlink:href="#m9de79cf515" x="51.4" y="27.348828" style="stroke: #000000; stroke-width: 0.8"/>
      </g>
     </g>
     <g id="text_7">
      <!-- $\mathdefault{10^{1}}$ -->
      <g transform="translate(26.8 31.148047)scale(0.1 -0.1)">
       <use xlink:href="#DejaVuSans-31" transform="translate(0 0.684375)"/>
       <use xlink:href="#DejaVuSans-30" transform="translate(63.623047 0.684375)"/>
       <use xlink:href="#DejaVuSans-31" transform="translate(128.203125 38.965625)scale(0.7)"/>
      </g>
     </g>
    </g>
    <g id="ytick_4">
     <g id="line2d_30">
      <defs>
       <path id="mde22cc27ba" d="M 0 0 
L -2 0 
" style="stroke: #000000; stroke-width: 0.6"/>
      </defs>
      <g>
       <use xlink:href="#mde22cc27ba" x="51.4" y="225.487264" style="stroke: #000000; stroke-width: 0.6"/>
      </g>
     </g>
    </g>
    <g id="ytick_5">
     <g id="line2d_31">
      <g>
       <use xlink:href="#mde22cc27ba" x="51.4" y="215.674995" style="stroke: #000000; stroke-width: 0.6"/>
      </g>
     </g>
    </g>
    <g id="ytick_6">
     <g id="line2d_32">
      <g>
       <use xlink:href="#mde22cc27ba" x="51.4" y="208.064007" style="stroke: #000000; stroke-width: 0.6"/>
      </g>
     </g>
    </g>
    <g id="ytick_7">
     <g id="line2d_33">
      <g>
       <use xlink:href="#mde22cc27ba" x="51.4" y="201.845378" style="stroke: #000000; stroke-width: 0.6"/>
      </g>
     </g>
    </g>
    <g id="ytick_8">
     <g id="line2d_34">
      <g>
       <use xlink:href="#mde22cc27ba" x="51.4" y="196.587601" style="stroke: #000000; stroke-width: 0.6"/>
      </g>
     </g>
    </g>
    <g id="ytick_9">
     <g id="line2d_35">
      <g>
       <use xlink:href="#mde22cc27ba" x="51.4" y="192.033108" style="stroke: #000000; stroke-width: 0.6"/>
      </g>
     </g>
    </g>
    <g id="ytick_10">
     <g id="line2d_36">
      <g>
       <use xlink:href="#mde22cc27ba" x="51.4" y="188.015761" style="stroke: #000000; stroke-width: 0.6"/>
      </g>
     </g>
    </g>
    <g id="ytick_11">
     <g id="line2d_37">
      <g>
       <use xlink:href="#mde22cc27ba" x="51.4" y="160.780234" style="stroke: #000000; stroke-width: 0.6"/>
      </g>
     </g>
    </g>
    <g id="ytick_12">
     <g id="line2d_38">
      <g>
       <use xlink:href="#mde22cc27ba" x="51.4" y="146.950618" style="stroke: #000000; stroke-width: 0.6"/>
      </g>
     </g>
    </g>
    <g id="ytick_13">
     <g id="line2d_39">
      <g>
       <use xlink:href="#mde22cc27ba" x="51.4" y="137.138348" style="stroke: #000000; stroke-width: 0.6"/>
      </g>
     </g>
    </g>
    <g id="ytick_14">
     <g id="line2d_40">
      <g>
       <use xlink:href="#mde22cc27ba" x="51.4" y="129.527361" style="stroke: #000000; stroke-width: 0.6"/>
      </g>
     </g>
    </g>
    <g id="ytick_15">
     <g id="line2d_41">
      <g>
       <use xlink:href="#mde22cc27ba" x="51.4" y="123.308731" style="stroke: #000000; stroke-width: 0.6"/>
      </g>
     </g>
    </g>
    <g id="ytick_16">
     <g id="line2d_42">
      <g>
       <use xlink:href="#mde22cc27ba" x="51.4" y="118.050955" style="stroke: #000000; stroke-width: 0.6"/>
      </g>
     </g>
    </g>
    <g id="ytick_17">
     <g id="line2d_43">
      <g>
       <use xlink:href="#mde22cc27ba" x="51.4" y="113.496462" style="stroke: #000000; stroke-width: 0.6"/>
      </g>
     </g>
    </g>
    <g id="ytick_18">
     <g id="line2d_44">
      <g>
       <use xlink:href="#mde22cc27ba" x="51.4" y="109.479114" style="stroke: #000000; stroke-width: 0.6"/>
      </g>
     </g>
    </g>
    <g id="ytick_19">
     <g id="line2d_45">
      <g>
       <use xlink:href="#mde22cc27ba" x="51.4" y="82.243588" style="stroke: #000000; stroke-width: 0.6"/>
      </g>
     </g>
    </g>
    <g id="ytick_20">
     <g id="line2d_46">
      <g>
       <use xlink:href="#mde22cc27ba" x="51.4" y="68.413971" style="stroke: #000000; stroke-width: 0.6"/>
      </g>
     </g>
    </g>
    <g id="ytick_21">
     <g id="line2d_47">
      <g>
       <use xlink:href="#mde22cc27ba" x="51.4" y="58.601702" style="stroke: #000000; stroke-width: 0.6"/>
      </g>
     </g>
    </g>
    <g id="ytick_22">
     <g id="line2d_48">
      <g>
       <use xlink:href="#mde22cc27ba" x="51.4" y="50.990714" style="stroke: #000000; stroke-width: 0.6"/>
      </g>
     </g>
    </g>
    <g id="ytick_23">
     <g id="line2d_49">
      <g>
       <use xlink:href="#mde22cc27ba" x="51.4" y="44.772085" style="stroke: #000000; stroke-width: 0.6"/>
      </g>
     </g>
    </g>
    <g id="ytick_24">
     <g id="line2d_50">
      <g>
       <use xlink:href="#mde22cc27ba" x="51.4" y="39.514308" style="stroke: #000000; stroke-width: 0.6"/>
      </g>
     </g>
    </g>
    <g id="ytick_25">
     <g id="line2d_51">
      <g>
       <use xlink:href="#mde22cc27ba" x="51.4" y="34.959815" style="stroke: #000000; stroke-width: 0.6"/>
      </g>
     </g>
    </g>
    <g id="ytick_26">
     <g id="line2d_52">
      <g>
       <use xlink:href="#mde22cc27ba" x="51.4" y="30.942468" style="stroke: #000000; stroke-width: 0.6"/>
      </g>
     </g>
    </g>
    <g id="text_8">
     <!-- Length Scale, $l$ -->
     <g transform="translate(14.8 165.168125)rotate(-90)scale(0.1 -0.1)">
      <defs>
       <path id="DejaVuSans-4c" d="M 628 4666 
L 1259 4666 
L 1259 531 
L 3531 531 
L 3531 0 
L 628 0 
L 628 4666 
z
" transform="scale(0.015625)"/>
       <path id="DejaVuSans-67" d="M 2906 1791 
Q 2906 2416 2648 2759 
Q 2391 3103 1925 3103 
Q 1463 3103 1205 2759 
Q 947 2416 947 1791 
Q 947 1169 1205 825 
Q 1463 481 1925 481 
Q 2391 481 2648 825 
Q 2906 1169 2906 1791 
z
M 3481 434 
Q 3481 -459 3084 -895 
Q 2688 -1331 1869 -1331 
Q 1566 -1331 1297 -1286 
Q 1028 -1241 775 -1147 
L 775 -588 
Q 1028 -725 1275 -790 
Q 1522 -856 1778 -856 
Q 2344 -856 2625 -561 
Q 2906 -266 2906 331 
L 2906 616 
Q 2728 306 2450 153 
Q 2172 0 1784 0 
Q 1141 0 747 490 
Q 353 981 353 1791 
Q 353 2603 747 3093 
Q 1141 3584 1784 3584 
Q 2172 3584 2450 3431 
Q 2728 3278 2906 2969 
L 2906 3500 
L 3481 3500 
L 3481 434 
z
" transform="scale(0.015625)"/>
       <path id="DejaVuSans-68" d="M 3513 2113 
L 3513 0 
L 2938 0 
L 2938 2094 
Q 2938 2591 2744 2837 
Q 2550 3084 2163 3084 
Q 1697 3084 1428 2787 
Q 1159 2491 1159 1978 
L 1159 0 
L 581 0 
L 581 4863 
L 1159 4863 
L 1159 2956 
Q 1366 3272 1645 3428 
Q 1925 3584 2291 3584 
Q 2894 3584 3203 3211 
Q 3513 2838 3513 2113 
z
" transform="scale(0.015625)"/>
       <path id="DejaVuSans-53" d="M 3425 4513 
L 3425 3897 
Q 3066 4069 2747 4153 
Q 2428 4238 2131 4238 
Q 1616 4238 1336 4038 
Q 1056 3838 1056 3469 
Q 1056 3159 1242 3001 
Q 1428 2844 1947 2747 
L 2328 2669 
Q 3034 2534 3370 2195 
Q 3706 1856 3706 1288 
Q 3706 609 3251 259 
Q 2797 -91 1919 -91 
Q 1588 -91 1214 -16 
Q 841 59 441 206 
L 441 856 
Q 825 641 1194 531 
Q 1563 422 1919 422 
Q 2459 422 2753 634 
Q 3047 847 3047 1241 
Q 3047 1584 2836 1778 
Q 2625 1972 2144 2069 
L 1759 2144 
Q 1053 2284 737 2584 
Q 422 2884 422 3419 
Q 422 4038 858 4394 
Q 1294 4750 2059 4750 
Q 2388 4750 2728 4690 
Q 3069 4631 3425 4513 
z
" transform="scale(0.015625)"/>
       <path id="DejaVuSans-63" d="M 3122 3366 
L 3122 2828 
Q 2878 2963 2633 3030 
Q 2388 3097 2138 3097 
Q 1578 3097 1268 2742 
Q 959 2388 959 1747 
Q 959 1106 1268 751 
Q 1578 397 2138 397 
Q 2388 397 2633 464 
Q 2878 531 3122 666 
L 3122 134 
Q 2881 22 2623 -34 
Q 2366 -91 2075 -91 
Q 1284 -91 818 406 
Q 353 903 353 1747 
Q 353 2603 823 3093 
Q 1294 3584 2113 3584 
Q 2378 3584 2631 3529 
Q 2884 3475 3122 3366 
z
" transform="scale(0.015625)"/>
       <path id="DejaVuSans-Oblique-6c" d="M 1172 4863 
L 1747 4863 
L 800 0 
L 225 0 
L 1172 4863 
z
" transform="scale(0.015625)"/>
      </defs>
      <use xlink:href="#DejaVuSans-4c" transform="translate(0 0.015625)"/>
      <use xlink:href="#DejaVuSans-65" transform="translate(55.712891 0.015625)"/>
      <use xlink:href="#DejaVuSans-6e" transform="translate(117.236328 0.015625)"/>
      <use xlink:href="#DejaVuSans-67" transform="translate(180.615234 0.015625)"/>
      <use xlink:href="#DejaVuSans-74" transform="translate(244.091797 0.015625)"/>
      <use xlink:href="#DejaVuSans-68" transform="translate(283.300781 0.015625)"/>
      <use xlink:href="#DejaVuSans-20" transform="translate(346.679688 0.015625)"/>
      <use xlink:href="#DejaVuSans-53" transform="translate(378.466797 0.015625)"/>
      <use xlink:href="#DejaVuSans-63" transform="translate(441.943359 0.015625)"/>
      <use xlink:href="#DejaVuSans-61" transform="translate(496.923828 0.015625)"/>
      <use xlink:href="#DejaVuSans-6c" transform="translate(558.203125 0.015625)"/>
      <use xlink:href="#DejaVuSans-65" transform="translate(585.986328 0.015625)"/>
      <use xlink:href="#DejaVuSans-2c" transform="translate(647.509766 0.015625)"/>
      <use xlink:href="#DejaVuSans-20" transform="translate(679.296875 0.015625)"/>
      <use xlink:href="#DejaVuSans-Oblique-6c" transform="translate(711.083984 0.015625)"/>
     </g>
    </g>
   </g>
   <g id="line2d_53">
    <path d="M 221.169025 234.118125 
L 221.169025 22.318125 
" clip-path="url(#p7f0da7a3bf)" style="fill: none; stroke-dasharray: 5.55,2.4; stroke-dashoffset: 0; stroke: #ff0000; stroke-width: 1.5"/>
   </g>
   <g id="patch_3">
    <path d="M 51.4 234.118125 
L 51.4 22.318125 
" style="fill: none; stroke: #000000; stroke-width: 0.8; stroke-linejoin: miter; stroke-linecap: square"/>
   </g>
   <g id="patch_4">
    <path d="M 331.805025 234.118125 
L 331.805025 22.318125 
" style="fill: none; stroke: #000000; stroke-width: 0.8; stroke-linejoin: miter; stroke-linecap: square"/>
   </g>
   <g id="patch_5">
    <path d="M 51.4 234.118125 
L 331.805025 234.118125 
" style="fill: none; stroke: #000000; stroke-width: 0.8; stroke-linejoin: miter; stroke-linecap: square"/>
   </g>
   <g id="patch_6">
    <path d="M 51.4 22.318125 
L 331.805025 22.318125 
" style="fill: none; stroke: #000000; stroke-width: 0.8; stroke-linejoin: miter; stroke-linecap: square"/>
   </g>
   <g id="text_9">
    <!-- Validation Error Contour for GP with RBF Kernel -->
    <g transform="translate(50.216263 16.318125)scale(0.12 -0.12)">
     <defs>
      <path id="DejaVuSans-69" d="M 603 3500 
L 1178 3500 
L 1178 0 
L 603 0 
L 603 3500 
z
M 603 4863 
L 1178 4863 
L 1178 4134 
L 603 4134 
L 603 4863 
z
" transform="scale(0.015625)"/>
      <path id="DejaVuSans-64" d="M 2906 2969 
L 2906 4863 
L 3481 4863 
L 3481 0 
L 2906 0 
L 2906 525 
Q 2725 213 2448 61 
Q 2172 -91 1784 -91 
Q 1150 -91 751 415 
Q 353 922 353 1747 
Q 353 2572 751 3078 
Q 1150 3584 1784 3584 
Q 2172 3584 2448 3432 
Q 2725 3281 2906 2969 
z
M 947 1747 
Q 947 1113 1208 752 
Q 1469 391 1925 391 
Q 2381 391 2643 752 
Q 2906 1113 2906 1747 
Q 2906 2381 2643 2742 
Q 2381 3103 1925 3103 
Q 1469 3103 1208 2742 
Q 947 2381 947 1747 
z
" transform="scale(0.015625)"/>
      <path id="DejaVuSans-45" d="M 628 4666 
L 3578 4666 
L 3578 4134 
L 1259 4134 
L 1259 2753 
L 3481 2753 
L 3481 2222 
L 1259 2222 
L 1259 531 
L 3634 531 
L 3634 0 
L 628 0 
L 628 4666 
z
" transform="scale(0.015625)"/>
      <path id="DejaVuSans-72" d="M 2631 2963 
Q 2534 3019 2420 3045 
Q 2306 3072 2169 3072 
Q 1681 3072 1420 2755 
Q 1159 2438 1159 1844 
L 1159 0 
L 581 0 
L 581 3500 
L 1159 3500 
L 1159 2956 
Q 1341 3275 1631 3429 
Q 1922 3584 2338 3584 
Q 2397 3584 2469 3576 
Q 2541 3569 2628 3553 
L 2631 2963 
z
" transform="scale(0.015625)"/>
      <path id="DejaVuSans-66" d="M 2375 4863 
L 2375 4384 
L 1825 4384 
Q 1516 4384 1395 4259 
Q 1275 4134 1275 3809 
L 1275 3500 
L 2222 3500 
L 2222 3053 
L 1275 3053 
L 1275 0 
L 697 0 
L 697 3053 
L 147 3053 
L 147 3500 
L 697 3500 
L 697 3744 
Q 697 4328 969 4595 
Q 1241 4863 1831 4863 
L 2375 4863 
z
" transform="scale(0.015625)"/>
      <path id="DejaVuSans-47" d="M 3809 666 
L 3809 1919 
L 2778 1919 
L 2778 2438 
L 4434 2438 
L 4434 434 
Q 4069 175 3628 42 
Q 3188 -91 2688 -91 
Q 1594 -91 976 548 
Q 359 1188 359 2328 
Q 359 3472 976 4111 
Q 1594 4750 2688 4750 
Q 3144 4750 3555 4637 
Q 3966 4525 4313 4306 
L 4313 3634 
Q 3963 3931 3569 4081 
Q 3175 4231 2741 4231 
Q 1884 4231 1454 3753 
Q 1025 3275 1025 2328 
Q 1025 1384 1454 906 
Q 1884 428 2741 428 
Q 3075 428 3337 486 
Q 3600 544 3809 666 
z
" transform="scale(0.015625)"/>
      <path id="DejaVuSans-50" d="M 1259 4147 
L 1259 2394 
L 2053 2394 
Q 2494 2394 2734 2622 
Q 2975 2850 2975 3272 
Q 2975 3691 2734 3919 
Q 2494 4147 2053 4147 
L 1259 4147 
z
M 628 4666 
L 2053 4666 
Q 2838 4666 3239 4311 
Q 3641 3956 3641 3272 
Q 3641 2581 3239 2228 
Q 2838 1875 2053 1875 
L 1259 1875 
L 1259 0 
L 628 0 
L 628 4666 
z
" transform="scale(0.015625)"/>
      <path id="DejaVuSans-77" d="M 269 3500 
L 844 3500 
L 1563 769 
L 2278 3500 
L 2956 3500 
L 3675 769 
L 4391 3500 
L 4966 3500 
L 4050 0 
L 3372 0 
L 2619 2869 
L 1863 0 
L 1184 0 
L 269 3500 
z
" transform="scale(0.015625)"/>
      <path id="DejaVuSans-52" d="M 2841 2188 
Q 3044 2119 3236 1894 
Q 3428 1669 3622 1275 
L 4263 0 
L 3584 0 
L 2988 1197 
Q 2756 1666 2539 1819 
Q 2322 1972 1947 1972 
L 1259 1972 
L 1259 0 
L 628 0 
L 628 4666 
L 2053 4666 
Q 2853 4666 3247 4331 
Q 3641 3997 3641 3322 
Q 3641 2881 3436 2590 
Q 3231 2300 2841 2188 
z
M 1259 4147 
L 1259 2491 
L 2053 2491 
Q 2509 2491 2742 2702 
Q 2975 2913 2975 3322 
Q 2975 3731 2742 3939 
Q 2509 4147 2053 4147 
L 1259 4147 
z
" transform="scale(0.015625)"/>
      <path id="DejaVuSans-42" d="M 1259 2228 
L 1259 519 
L 2272 519 
Q 2781 519 3026 730 
Q 3272 941 3272 1375 
Q 3272 1813 3026 2020 
Q 2781 2228 2272 2228 
L 1259 2228 
z
M 1259 4147 
L 1259 2741 
L 2194 2741 
Q 2656 2741 2882 2914 
Q 3109 3088 3109 3444 
Q 3109 3797 2882 3972 
Q 2656 4147 2194 4147 
L 1259 4147 
z
M 628 4666 
L 2241 4666 
Q 2963 4666 3353 4366 
Q 3744 4066 3744 3513 
Q 3744 3084 3544 2831 
Q 3344 2578 2956 2516 
Q 3422 2416 3680 2098 
Q 3938 1781 3938 1306 
Q 3938 681 3513 340 
Q 3088 0 2303 0 
L 628 0 
L 628 4666 
z
" transform="scale(0.015625)"/>
      <path id="DejaVuSans-46" d="M 628 4666 
L 3309 4666 
L 3309 4134 
L 1259 4134 
L 1259 2759 
L 3109 2759 
L 3109 2228 
L 1259 2228 
L 1259 0 
L 628 0 
L 628 4666 
z
" transform="scale(0.015625)"/>
      <path id="DejaVuSans-4b" d="M 628 4666 
L 1259 4666 
L 1259 2694 
L 3353 4666 
L 4166 4666 
L 1850 2491 
L 4331 0 
L 3500 0 
L 1259 2247 
L 1259 0 
L 628 0 
L 628 4666 
z
" transform="scale(0.015625)"/>
     </defs>
     <use xlink:href="#DejaVuSans-56"/>
     <use xlink:href="#DejaVuSans-61" x="60.658203"/>
     <use xlink:href="#DejaVuSans-6c" x="121.9375"/>
     <use xlink:href="#DejaVuSans-69" x="149.720703"/>
     <use xlink:href="#DejaVuSans-64" x="177.503906"/>
     <use xlink:href="#DejaVuSans-61" x="240.980469"/>
     <use xlink:href="#DejaVuSans-74" x="302.259766"/>
     <use xlink:href="#DejaVuSans-69" x="341.46875"/>
     <use xlink:href="#DejaVuSans-6f" x="369.251953"/>
     <use xlink:href="#DejaVuSans-6e" x="430.433594"/>
     <use xlink:href="#DejaVuSans-20" x="493.8125"/>
     <use xlink:href="#DejaVuSans-45" x="525.599609"/>
     <use xlink:href="#DejaVuSans-72" x="588.783203"/>
     <use xlink:href="#DejaVuSans-72" x="628.146484"/>
     <use xlink:href="#DejaVuSans-6f" x="667.009766"/>
     <use xlink:href="#DejaVuSans-72" x="728.191406"/>
     <use xlink:href="#DejaVuSans-20" x="769.304688"/>
     <use xlink:href="#DejaVuSans-43" x="801.091797"/>
     <use xlink:href="#DejaVuSans-6f" x="870.916016"/>
     <use xlink:href="#DejaVuSans-6e" x="932.097656"/>
     <use xlink:href="#DejaVuSans-74" x="995.476562"/>
     <use xlink:href="#DejaVuSans-6f" x="1034.685547"/>
     <use xlink:href="#DejaVuSans-75" x="1095.867188"/>
     <use xlink:href="#DejaVuSans-72" x="1159.246094"/>
     <use xlink:href="#DejaVuSans-20" x="1200.359375"/>
     <use xlink:href="#DejaVuSans-66" x="1232.146484"/>
     <use xlink:href="#DejaVuSans-6f" x="1267.351562"/>
     <use xlink:href="#DejaVuSans-72" x="1328.533203"/>
     <use xlink:href="#DejaVuSans-20" x="1369.646484"/>
     <use xlink:href="#DejaVuSans-47" x="1401.433594"/>
     <use xlink:href="#DejaVuSans-50" x="1478.923828"/>
     <use xlink:href="#DejaVuSans-20" x="1539.226562"/>
     <use xlink:href="#DejaVuSans-77" x="1571.013672"/>
     <use xlink:href="#DejaVuSans-69" x="1652.800781"/>
     <use xlink:href="#DejaVuSans-74" x="1680.583984"/>
     <use xlink:href="#DejaVuSans-68" x="1719.792969"/>
     <use xlink:href="#DejaVuSans-20" x="1783.171875"/>
     <use xlink:href="#DejaVuSans-52" x="1814.958984"/>
     <use xlink:href="#DejaVuSans-42" x="1884.441406"/>
     <use xlink:href="#DejaVuSans-46" x="1953.044922"/>
     <use xlink:href="#DejaVuSans-20" x="2010.564453"/>
     <use xlink:href="#DejaVuSans-4b" x="2042.351562"/>
     <use xlink:href="#DejaVuSans-65" x="2102.927734"/>
     <use xlink:href="#DejaVuSans-72" x="2164.451172"/>
     <use xlink:href="#DejaVuSans-6e" x="2203.814453"/>
     <use xlink:href="#DejaVuSans-65" x="2267.193359"/>
     <use xlink:href="#DejaVuSans-6c" x="2328.716797"/>
    </g>
   </g>
  </g>
  <g id="axes_2">
   <g id="patch_7">
    <path d="M 349.330339 234.118125 
L 359.920339 234.118125 
L 359.920339 22.318125 
L 349.330339 22.318125 
z
" style="fill: #ffffff"/>
   </g>
   <g id="patch_8">
    <path clip-path="url(#p203d005a8e)" style="fill: #ffffff; stroke: #ffffff; stroke-width: 0.01; stroke-linejoin: miter"/>
   </g>
   <g id="QuadMesh_1">
    <path d="M 349.330339 234.118125 
L 359.920339 234.118125 
L 359.920339 210.584792 
L 349.330339 210.584792 
L 349.330339 234.118125 
" clip-path="url(#p203d005a8e)" style="fill: #48186a"/>
    <path d="M 349.330339 210.584792 
L 359.920339 210.584792 
L 359.920339 187.051458 
L 349.330339 187.051458 
L 349.330339 210.584792 
" clip-path="url(#p203d005a8e)" style="fill: #414287"/>
    <path d="M 349.330339 187.051458 
L 359.920339 187.051458 
L 359.920339 163.518125 
L 349.330339 163.518125 
L 349.330339 187.051458 
" clip-path="url(#p203d005a8e)" style="fill: #31668e"/>
    <path d="M 349.330339 163.518125 
L 359.920339 163.518125 
L 359.920339 139.984792 
L 349.330339 139.984792 
L 349.330339 163.518125 
" clip-path="url(#p203d005a8e)" style="fill: #297b8e"/>
    <path d="M 349.330339 139.984792 
L 359.920339 139.984792 
L 359.920339 116.451458 
L 349.330339 116.451458 
L 349.330339 139.984792 
" clip-path="url(#p203d005a8e)" style="fill: #21918c"/>
    <path d="M 349.330339 116.451458 
L 359.920339 116.451458 
L 359.920339 92.918125 
L 349.330339 92.918125 
L 349.330339 116.451458 
" clip-path="url(#p203d005a8e)" style="fill: #29af7f"/>
    <path d="M 349.330339 92.918125 
L 359.920339 92.918125 
L 359.920339 69.384792 
L 349.330339 69.384792 
L 349.330339 92.918125 
" clip-path="url(#p203d005a8e)" style="fill: #63cb5f"/>
    <path d="M 349.330339 69.384792 
L 359.920339 69.384792 
L 359.920339 45.851458 
L 349.330339 45.851458 
L 349.330339 69.384792 
" clip-path="url(#p203d005a8e)" style="fill: #9bd93c"/>
    <path d="M 349.330339 45.851458 
L 359.920339 45.851458 
L 359.920339 22.318125 
L 349.330339 22.318125 
L 349.330339 45.851458 
" clip-path="url(#p203d005a8e)" style="fill: #d5e21a"/>
   </g>
   <g id="matplotlib.axis_3">
    <g id="ytick_27">
     <g id="line2d_54">
      <defs>
       <path id="me0a44f7957" d="M 0 0 
L 3.5 0 
" style="stroke: #000000; stroke-width: 0.8"/>
      </defs>
      <g>
       <use xlink:href="#me0a44f7957" x="359.920339" y="234.118125" style="stroke: #000000; stroke-width: 0.8"/>
      </g>
     </g>
     <g id="text_10">
      <!-- 0.5 -->
      <g transform="translate(366.920339 237.917344)scale(0.1 -0.1)">
       <defs>
        <path id="DejaVuSans-2e" d="M 684 794 
L 1344 794 
L 1344 0 
L 684 0 
L 684 794 
z
" transform="scale(0.015625)"/>
        <path id="DejaVuSans-35" d="M 691 4666 
L 3169 4666 
L 3169 4134 
L 1269 4134 
L 1269 2991 
Q 1406 3038 1543 3061 
Q 1681 3084 1819 3084 
Q 2600 3084 3056 2656 
Q 3513 2228 3513 1497 
Q 3513 744 3044 326 
Q 2575 -91 1722 -91 
Q 1428 -91 1123 -41 
Q 819 9 494 109 
L 494 744 
Q 775 591 1075 516 
Q 1375 441 1709 441 
Q 2250 441 2565 725 
Q 2881 1009 2881 1497 
Q 2881 1984 2565 2268 
Q 2250 2553 1709 2553 
Q 1456 2553 1204 2497 
Q 953 2441 691 2322 
L 691 4666 
z
" transform="scale(0.015625)"/>
       </defs>
       <use xlink:href="#DejaVuSans-30"/>
       <use xlink:href="#DejaVuSans-2e" x="63.623047"/>
       <use xlink:href="#DejaVuSans-35" x="95.410156"/>
      </g>
     </g>
    </g>
    <g id="ytick_28">
     <g id="line2d_55">
      <g>
       <use xlink:href="#me0a44f7957" x="359.920339" y="210.584792" style="stroke: #000000; stroke-width: 0.8"/>
      </g>
     </g>
     <g id="text_11">
      <!-- 1.0 -->
      <g transform="translate(366.920339 214.38401)scale(0.1 -0.1)">
       <use xlink:href="#DejaVuSans-31"/>
       <use xlink:href="#DejaVuSans-2e" x="63.623047"/>
       <use xlink:href="#DejaVuSans-30" x="95.410156"/>
      </g>
     </g>
    </g>
    <g id="ytick_29">
     <g id="line2d_56">
      <g>
       <use xlink:href="#me0a44f7957" x="359.920339" y="187.051458" style="stroke: #000000; stroke-width: 0.8"/>
      </g>
     </g>
     <g id="text_12">
      <!-- 2.0 -->
      <g transform="translate(366.920339 190.850677)scale(0.1 -0.1)">
       <defs>
        <path id="DejaVuSans-32" d="M 1228 531 
L 3431 531 
L 3431 0 
L 469 0 
L 469 531 
Q 828 903 1448 1529 
Q 2069 2156 2228 2338 
Q 2531 2678 2651 2914 
Q 2772 3150 2772 3378 
Q 2772 3750 2511 3984 
Q 2250 4219 1831 4219 
Q 1534 4219 1204 4116 
Q 875 4013 500 3803 
L 500 4441 
Q 881 4594 1212 4672 
Q 1544 4750 1819 4750 
Q 2544 4750 2975 4387 
Q 3406 4025 3406 3419 
Q 3406 3131 3298 2873 
Q 3191 2616 2906 2266 
Q 2828 2175 2409 1742 
Q 1991 1309 1228 531 
z
" transform="scale(0.015625)"/>
       </defs>
       <use xlink:href="#DejaVuSans-32"/>
       <use xlink:href="#DejaVuSans-2e" x="63.623047"/>
       <use xlink:href="#DejaVuSans-30" x="95.410156"/>
      </g>
     </g>
    </g>
    <g id="ytick_30">
     <g id="line2d_57">
      <g>
       <use xlink:href="#me0a44f7957" x="359.920339" y="163.518125" style="stroke: #000000; stroke-width: 0.8"/>
      </g>
     </g>
     <g id="text_13">
      <!-- 4.0 -->
      <g transform="translate(366.920339 167.317344)scale(0.1 -0.1)">
       <defs>
        <path id="DejaVuSans-34" d="M 2419 4116 
L 825 1625 
L 2419 1625 
L 2419 4116 
z
M 2253 4666 
L 3047 4666 
L 3047 1625 
L 3713 1625 
L 3713 1100 
L 3047 1100 
L 3047 0 
L 2419 0 
L 2419 1100 
L 313 1100 
L 313 1709 
L 2253 4666 
z
" transform="scale(0.015625)"/>
       </defs>
       <use xlink:href="#DejaVuSans-34"/>
       <use xlink:href="#DejaVuSans-2e" x="63.623047"/>
       <use xlink:href="#DejaVuSans-30" x="95.410156"/>
      </g>
     </g>
    </g>
    <g id="ytick_31">
     <g id="line2d_58">
      <g>
       <use xlink:href="#me0a44f7957" x="359.920339" y="139.984792" style="stroke: #000000; stroke-width: 0.8"/>
      </g>
     </g>
     <g id="text_14">
      <!-- 5.0 -->
      <g transform="translate(366.920339 143.78401)scale(0.1 -0.1)">
       <use xlink:href="#DejaVuSans-35"/>
       <use xlink:href="#DejaVuSans-2e" x="63.623047"/>
       <use xlink:href="#DejaVuSans-30" x="95.410156"/>
      </g>
     </g>
    </g>
    <g id="ytick_32">
     <g id="line2d_59">
      <g>
       <use xlink:href="#me0a44f7957" x="359.920339" y="116.451458" style="stroke: #000000; stroke-width: 0.8"/>
      </g>
     </g>
     <g id="text_15">
      <!-- 10.0 -->
      <g transform="translate(366.920339 120.250677)scale(0.1 -0.1)">
       <use xlink:href="#DejaVuSans-31"/>
       <use xlink:href="#DejaVuSans-30" x="63.623047"/>
       <use xlink:href="#DejaVuSans-2e" x="127.246094"/>
       <use xlink:href="#DejaVuSans-30" x="159.033203"/>
      </g>
     </g>
    </g>
    <g id="ytick_33">
     <g id="line2d_60">
      <g>
       <use xlink:href="#me0a44f7957" x="359.920339" y="92.918125" style="stroke: #000000; stroke-width: 0.8"/>
      </g>
     </g>
     <g id="text_16">
      <!-- 20.0 -->
      <g transform="translate(366.920339 96.717344)scale(0.1 -0.1)">
       <use xlink:href="#DejaVuSans-32"/>
       <use xlink:href="#DejaVuSans-30" x="63.623047"/>
       <use xlink:href="#DejaVuSans-2e" x="127.246094"/>
       <use xlink:href="#DejaVuSans-30" x="159.033203"/>
      </g>
     </g>
    </g>
    <g id="ytick_34">
     <g id="line2d_61">
      <g>
       <use xlink:href="#me0a44f7957" x="359.920339" y="69.384792" style="stroke: #000000; stroke-width: 0.8"/>
      </g>
     </g>
     <g id="text_17">
      <!-- 40.0 -->
      <g transform="translate(366.920339 73.18401)scale(0.1 -0.1)">
       <use xlink:href="#DejaVuSans-34"/>
       <use xlink:href="#DejaVuSans-30" x="63.623047"/>
       <use xlink:href="#DejaVuSans-2e" x="127.246094"/>
       <use xlink:href="#DejaVuSans-30" x="159.033203"/>
      </g>
     </g>
    </g>
    <g id="ytick_35">
     <g id="line2d_62">
      <g>
       <use xlink:href="#me0a44f7957" x="359.920339" y="45.851458" style="stroke: #000000; stroke-width: 0.8"/>
      </g>
     </g>
     <g id="text_18">
      <!-- 50.0 -->
      <g transform="translate(366.920339 49.650677)scale(0.1 -0.1)">
       <use xlink:href="#DejaVuSans-35"/>
       <use xlink:href="#DejaVuSans-30" x="63.623047"/>
       <use xlink:href="#DejaVuSans-2e" x="127.246094"/>
       <use xlink:href="#DejaVuSans-30" x="159.033203"/>
      </g>
     </g>
    </g>
    <g id="ytick_36">
     <g id="line2d_63">
      <g>
       <use xlink:href="#me0a44f7957" x="359.920339" y="22.318125" style="stroke: #000000; stroke-width: 0.8"/>
      </g>
     </g>
     <g id="text_19">
      <!-- 100.0 -->
      <g transform="translate(366.920339 26.117344)scale(0.1 -0.1)">
       <use xlink:href="#DejaVuSans-31"/>
       <use xlink:href="#DejaVuSans-30" x="63.623047"/>
       <use xlink:href="#DejaVuSans-30" x="127.246094"/>
       <use xlink:href="#DejaVuSans-2e" x="190.869141"/>
       <use xlink:href="#DejaVuSans-30" x="222.65625"/>
      </g>
     </g>
    </g>
    <g id="text_20">
     <!-- Validation relRMSE [%] -->
     <g transform="translate(407.146902 185.269688)rotate(-90)scale(0.1 -0.1)">
      <defs>
       <path id="DejaVuSans-4d" d="M 628 4666 
L 1569 4666 
L 2759 1491 
L 3956 4666 
L 4897 4666 
L 4897 0 
L 4281 0 
L 4281 4097 
L 3078 897 
L 2444 897 
L 1241 4097 
L 1241 0 
L 628 0 
L 628 4666 
z
" transform="scale(0.015625)"/>
       <path id="DejaVuSans-5b" d="M 550 4863 
L 1875 4863 
L 1875 4416 
L 1125 4416 
L 1125 -397 
L 1875 -397 
L 1875 -844 
L 550 -844 
L 550 4863 
z
" transform="scale(0.015625)"/>
       <path id="DejaVuSans-25" d="M 4653 2053 
Q 4381 2053 4226 1822 
Q 4072 1591 4072 1178 
Q 4072 772 4226 539 
Q 4381 306 4653 306 
Q 4919 306 5073 539 
Q 5228 772 5228 1178 
Q 5228 1588 5073 1820 
Q 4919 2053 4653 2053 
z
M 4653 2450 
Q 5147 2450 5437 2106 
Q 5728 1763 5728 1178 
Q 5728 594 5436 251 
Q 5144 -91 4653 -91 
Q 4153 -91 3862 251 
Q 3572 594 3572 1178 
Q 3572 1766 3864 2108 
Q 4156 2450 4653 2450 
z
M 1428 4353 
Q 1159 4353 1004 4120 
Q 850 3888 850 3481 
Q 850 3069 1003 2837 
Q 1156 2606 1428 2606 
Q 1700 2606 1854 2837 
Q 2009 3069 2009 3481 
Q 2009 3884 1853 4118 
Q 1697 4353 1428 4353 
z
M 4250 4750 
L 4750 4750 
L 1831 -91 
L 1331 -91 
L 4250 4750 
z
M 1428 4750 
Q 1922 4750 2215 4408 
Q 2509 4066 2509 3481 
Q 2509 2891 2217 2550 
Q 1925 2209 1428 2209 
Q 931 2209 642 2551 
Q 353 2894 353 3481 
Q 353 4063 643 4406 
Q 934 4750 1428 4750 
z
" transform="scale(0.015625)"/>
       <path id="DejaVuSans-5d" d="M 1947 4863 
L 1947 -844 
L 622 -844 
L 622 -397 
L 1369 -397 
L 1369 4416 
L 622 4416 
L 622 4863 
L 1947 4863 
z
" transform="scale(0.015625)"/>
      </defs>
      <use xlink:href="#DejaVuSans-56"/>
      <use xlink:href="#DejaVuSans-61" x="60.658203"/>
      <use xlink:href="#DejaVuSans-6c" x="121.9375"/>
      <use xlink:href="#DejaVuSans-69" x="149.720703"/>
      <use xlink:href="#DejaVuSans-64" x="177.503906"/>
      <use xlink:href="#DejaVuSans-61" x="240.980469"/>
      <use xlink:href="#DejaVuSans-74" x="302.259766"/>
      <use xlink:href="#DejaVuSans-69" x="341.46875"/>
      <use xlink:href="#DejaVuSans-6f" x="369.251953"/>
      <use xlink:href="#DejaVuSans-6e" x="430.433594"/>
      <use xlink:href="#DejaVuSans-20" x="493.8125"/>
      <use xlink:href="#DejaVuSans-72" x="525.599609"/>
      <use xlink:href="#DejaVuSans-65" x="564.462891"/>
      <use xlink:href="#DejaVuSans-6c" x="625.986328"/>
      <use xlink:href="#DejaVuSans-52" x="653.769531"/>
      <use xlink:href="#DejaVuSans-4d" x="723.251953"/>
      <use xlink:href="#DejaVuSans-53" x="809.53125"/>
      <use xlink:href="#DejaVuSans-45" x="873.007812"/>
      <use xlink:href="#DejaVuSans-20" x="936.191406"/>
      <use xlink:href="#DejaVuSans-5b" x="967.978516"/>
      <use xlink:href="#DejaVuSans-25" x="1006.992188"/>
      <use xlink:href="#DejaVuSans-5d" x="1102.011719"/>
     </g>
    </g>
   </g>
   <g id="LineCollection_1"/>
   <g id="patch_9">
    <path d="M 349.330339 234.118125 
L 354.625339 234.118125 
L 359.920339 234.118125 
L 359.920339 22.318125 
L 354.625339 22.318125 
L 349.330339 22.318125 
L 349.330339 234.118125 
z
" style="fill: none; stroke: #000000; stroke-width: 0.8; stroke-linejoin: miter; stroke-linecap: square"/>
   </g>
  </g>
 </g>
 <defs>
  <clipPath id="p7f0da7a3bf">
   <rect x="51.4" y="22.318125" width="280.405025" height="211.8"/>
  </clipPath>
  <clipPath id="p203d005a8e">
   <rect x="349.330339" y="22.318125" width="10.59" height="211.8"/>
  </clipPath>
 </defs>
</svg>
