<?xml version="1.0" encoding="utf-8" standalone="no"?>
<!DOCTYPE svg PUBLIC "-//W3C//DTD SVG 1.1//EN"
  "http://www.w3.org/Graphics/SVG/1.1/DTD/svg11.dtd">
<svg xmlns:xlink="http://www.w3.org/1999/xlink" width="399.595781pt" height="281.109844pt" viewBox="0 0 399.595781 281.109844" xmlns="http://www.w3.org/2000/svg" version="1.1">
 <metadata>
  <rdf:RDF xmlns:dc="http://purl.org/dc/elements/1.1/" xmlns:cc="http://creativecommons.org/ns#" xmlns:rdf="http://www.w3.org/1999/02/22-rdf-syntax-ns#">
   <cc:Work>
    <dc:type rdf:resource="http://purl.org/dc/dcmitype/StillImage"/>
    <dc:date>2022-04-26T08:52:25.296702</dc:date>
    <dc:format>image/svg+xml</dc:format>
    <dc:creator>
     <cc:Agent>
      <dc:title>Matplotlib v3.5.0, https://matplotlib.org/</dc:title>
     </cc:Agent>
    </dc:creator>
   </cc:Work>
  </rdf:RDF>
 </metadata>
 <defs>
  <style type="text/css">*{stroke-linejoin: round; stroke-linecap: butt}</style>
 </defs>
 <g id="figure_1">
  <g id="patch_1">
   <path d="M 0 281.109844 
L 399.595781 281.109844 
L 399.595781 0 
L 0 0 
z
" style="fill: #ffffff"/>
  </g>
  <g id="axes_1">
   <g id="patch_2">
    <path d="M 57.595781 239.375625 
L 392.395781 239.375625 
L 392.395781 21.935625 
L 57.595781 21.935625 
z
" style="fill: #eaeaf2"/>
   </g>
   <g id="matplotlib.axis_1">
    <g id="xtick_1">
     <g id="line2d_1">
      <path d="M 98.177599 239.375625 
L 98.177599 21.935625 
" clip-path="url(#pfc2c174669)" style="fill: none; stroke: #ffffff; stroke-linecap: round"/>
     </g>
     <g id="text_1">
      <!-- −150 -->
      <g style="fill: #262626" transform="translate(85.789709 256.749219)scale(0.11 -0.11)">
       <defs>
        <path id="ArialMT-2212" d="M 3381 1997 
L 356 1997 
L 356 2522 
L 3381 2522 
L 3381 1997 
z
" transform="scale(0.015625)"/>
        <path id="ArialMT-31" d="M 2384 0 
L 1822 0 
L 1822 3584 
Q 1619 3391 1289 3197 
Q 959 3003 697 2906 
L 697 3450 
Q 1169 3672 1522 3987 
Q 1875 4303 2022 4600 
L 2384 4600 
L 2384 0 
z
" transform="scale(0.015625)"/>
        <path id="ArialMT-35" d="M 266 1200 
L 856 1250 
Q 922 819 1161 601 
Q 1400 384 1738 384 
Q 2144 384 2425 690 
Q 2706 997 2706 1503 
Q 2706 1984 2436 2262 
Q 2166 2541 1728 2541 
Q 1456 2541 1237 2417 
Q 1019 2294 894 2097 
L 366 2166 
L 809 4519 
L 3088 4519 
L 3088 3981 
L 1259 3981 
L 1013 2750 
Q 1425 3038 1878 3038 
Q 2478 3038 2890 2622 
Q 3303 2206 3303 1553 
Q 3303 931 2941 478 
Q 2500 -78 1738 -78 
Q 1113 -78 717 272 
Q 322 622 266 1200 
z
" transform="scale(0.015625)"/>
        <path id="ArialMT-30" d="M 266 2259 
Q 266 3072 433 3567 
Q 600 4063 929 4331 
Q 1259 4600 1759 4600 
Q 2128 4600 2406 4451 
Q 2684 4303 2865 4023 
Q 3047 3744 3150 3342 
Q 3253 2941 3253 2259 
Q 3253 1453 3087 958 
Q 2922 463 2592 192 
Q 2263 -78 1759 -78 
Q 1097 -78 719 397 
Q 266 969 266 2259 
z
M 844 2259 
Q 844 1131 1108 757 
Q 1372 384 1759 384 
Q 2147 384 2411 759 
Q 2675 1134 2675 2259 
Q 2675 3391 2411 3762 
Q 2147 4134 1753 4134 
Q 1366 4134 1134 3806 
Q 844 3388 844 2259 
z
" transform="scale(0.015625)"/>
       </defs>
       <use xlink:href="#ArialMT-2212"/>
       <use xlink:href="#ArialMT-31" x="58.398438"/>
       <use xlink:href="#ArialMT-35" x="114.013672"/>
       <use xlink:href="#ArialMT-30" x="169.628906"/>
      </g>
     </g>
    </g>
    <g id="xtick_2">
     <g id="line2d_2">
      <path d="M 140.450327 239.375625 
L 140.450327 21.935625 
" clip-path="url(#pfc2c174669)" style="fill: none; stroke: #ffffff; stroke-linecap: round"/>
     </g>
     <g id="text_2">
      <!-- −100 -->
      <g style="fill: #262626" transform="translate(128.062436 256.749219)scale(0.11 -0.11)">
       <use xlink:href="#ArialMT-2212"/>
       <use xlink:href="#ArialMT-31" x="58.398438"/>
       <use xlink:href="#ArialMT-30" x="114.013672"/>
       <use xlink:href="#ArialMT-30" x="169.628906"/>
      </g>
     </g>
    </g>
    <g id="xtick_3">
     <g id="line2d_3">
      <path d="M 182.723054 239.375625 
L 182.723054 21.935625 
" clip-path="url(#pfc2c174669)" style="fill: none; stroke: #ffffff; stroke-linecap: round"/>
     </g>
     <g id="text_3">
      <!-- −50 -->
      <g style="fill: #262626" transform="translate(173.393679 256.749219)scale(0.11 -0.11)">
       <use xlink:href="#ArialMT-2212"/>
       <use xlink:href="#ArialMT-35" x="58.398438"/>
       <use xlink:href="#ArialMT-30" x="114.013672"/>
      </g>
     </g>
    </g>
    <g id="xtick_4">
     <g id="line2d_4">
      <path d="M 224.995781 239.375625 
L 224.995781 21.935625 
" clip-path="url(#pfc2c174669)" style="fill: none; stroke: #ffffff; stroke-linecap: round"/>
     </g>
     <g id="text_4">
      <!-- 0 -->
      <g style="fill: #262626" transform="translate(221.937266 256.749219)scale(0.11 -0.11)">
       <use xlink:href="#ArialMT-30"/>
      </g>
     </g>
    </g>
    <g id="xtick_5">
     <g id="line2d_5">
      <path d="M 267.268509 239.375625 
L 267.268509 21.935625 
" clip-path="url(#pfc2c174669)" style="fill: none; stroke: #ffffff; stroke-linecap: round"/>
     </g>
     <g id="text_5">
      <!-- 50 -->
      <g style="fill: #262626" transform="translate(261.151477 256.749219)scale(0.11 -0.11)">
       <use xlink:href="#ArialMT-35"/>
       <use xlink:href="#ArialMT-30" x="55.615234"/>
      </g>
     </g>
    </g>
    <g id="xtick_6">
     <g id="line2d_6">
      <path d="M 309.541236 239.375625 
L 309.541236 21.935625 
" clip-path="url(#pfc2c174669)" style="fill: none; stroke: #ffffff; stroke-linecap: round"/>
     </g>
     <g id="text_6">
      <!-- 100 -->
      <g style="fill: #262626" transform="translate(300.365689 256.749219)scale(0.11 -0.11)">
       <use xlink:href="#ArialMT-31"/>
       <use xlink:href="#ArialMT-30" x="55.615234"/>
       <use xlink:href="#ArialMT-30" x="111.230469"/>
      </g>
     </g>
    </g>
    <g id="xtick_7">
     <g id="line2d_7">
      <path d="M 351.813963 239.375625 
L 351.813963 21.935625 
" clip-path="url(#pfc2c174669)" style="fill: none; stroke: #ffffff; stroke-linecap: round"/>
     </g>
     <g id="text_7">
      <!-- 150 -->
      <g style="fill: #262626" transform="translate(342.638416 256.749219)scale(0.11 -0.11)">
       <use xlink:href="#ArialMT-31"/>
       <use xlink:href="#ArialMT-35" x="55.615234"/>
       <use xlink:href="#ArialMT-30" x="111.230469"/>
      </g>
     </g>
    </g>
    <g id="text_8">
     <!-- $\theta\degree$ -->
     <g style="fill: #262626" transform="translate(218.275781 271.524844)scale(0.12 -0.12)">
      <defs>
       <path id="DejaVuSans-Oblique-3b8" d="M 2913 2219 
L 925 2219 
Q 791 1284 928 888 
Q 1100 400 1566 400 
Q 2034 400 2391 891 
Q 2703 1322 2913 2219 
z
M 3009 2750 
Q 3094 3638 2984 3950 
Q 2813 4444 2353 4444 
Q 1875 4444 1525 3956 
Q 1250 3563 1034 2750 
L 3009 2750 
z
M 2444 4913 
Q 3194 4913 3494 4250 
Q 3794 3591 3566 2422 
Q 3341 1256 2781 594 
Q 2225 -72 1475 -72 
Q 722 -72 425 594 
Q 128 1256 353 2422 
Q 581 3591 1134 4250 
Q 1691 4913 2444 4913 
z
" transform="scale(0.015625)"/>
       <path id="DejaVuSans-b0" d="M 1600 4347 
Q 1350 4347 1178 4173 
Q 1006 4000 1006 3750 
Q 1006 3503 1178 3333 
Q 1350 3163 1600 3163 
Q 1850 3163 2022 3333 
Q 2194 3503 2194 3750 
Q 2194 3997 2020 4172 
Q 1847 4347 1600 4347 
z
M 1600 4750 
Q 1800 4750 1984 4673 
Q 2169 4597 2303 4453 
Q 2447 4313 2519 4134 
Q 2591 3956 2591 3750 
Q 2591 3338 2302 3052 
Q 2013 2766 1594 2766 
Q 1172 2766 890 3047 
Q 609 3328 609 3750 
Q 609 4169 896 4459 
Q 1184 4750 1600 4750 
z
" transform="scale(0.015625)"/>
      </defs>
      <use xlink:href="#DejaVuSans-Oblique-3b8" transform="translate(0 0.234375)"/>
      <use xlink:href="#DejaVuSans-b0" transform="translate(61.181641 0.234375)"/>
     </g>
    </g>
   </g>
   <g id="matplotlib.axis_2">
    <g id="ytick_1">
     <g id="line2d_8">
      <path d="M 57.595781 232.314222 
L 392.395781 232.314222 
" clip-path="url(#pfc2c174669)" style="fill: none; stroke: #ffffff; stroke-linecap: round"/>
     </g>
     <g id="text_9">
      <!-- −100 -->
      <g style="fill: #262626" transform="translate(23.32 236.251018)scale(0.11 -0.11)">
       <use xlink:href="#ArialMT-2212"/>
       <use xlink:href="#ArialMT-31" x="58.398438"/>
       <use xlink:href="#ArialMT-30" x="114.013672"/>
       <use xlink:href="#ArialMT-30" x="169.628906"/>
      </g>
     </g>
    </g>
    <g id="ytick_2">
     <g id="line2d_9">
      <path d="M 57.595781 204.837142 
L 392.395781 204.837142 
" clip-path="url(#pfc2c174669)" style="fill: none; stroke: #ffffff; stroke-linecap: round"/>
     </g>
     <g id="text_10">
      <!-- −80 -->
      <g style="fill: #262626" transform="translate(29.437031 208.773939)scale(0.11 -0.11)">
       <defs>
        <path id="ArialMT-38" d="M 1131 2484 
Q 781 2613 612 2850 
Q 444 3088 444 3419 
Q 444 3919 803 4259 
Q 1163 4600 1759 4600 
Q 2359 4600 2725 4251 
Q 3091 3903 3091 3403 
Q 3091 3084 2923 2848 
Q 2756 2613 2416 2484 
Q 2838 2347 3058 2040 
Q 3278 1734 3278 1309 
Q 3278 722 2862 322 
Q 2447 -78 1769 -78 
Q 1091 -78 675 323 
Q 259 725 259 1325 
Q 259 1772 486 2073 
Q 713 2375 1131 2484 
z
M 1019 3438 
Q 1019 3113 1228 2906 
Q 1438 2700 1772 2700 
Q 2097 2700 2305 2904 
Q 2513 3109 2513 3406 
Q 2513 3716 2298 3927 
Q 2084 4138 1766 4138 
Q 1444 4138 1231 3931 
Q 1019 3725 1019 3438 
z
M 838 1322 
Q 838 1081 952 856 
Q 1066 631 1291 507 
Q 1516 384 1775 384 
Q 2178 384 2440 643 
Q 2703 903 2703 1303 
Q 2703 1709 2433 1975 
Q 2163 2241 1756 2241 
Q 1359 2241 1098 1978 
Q 838 1716 838 1322 
z
" transform="scale(0.015625)"/>
       </defs>
       <use xlink:href="#ArialMT-2212"/>
       <use xlink:href="#ArialMT-38" x="58.398438"/>
       <use xlink:href="#ArialMT-30" x="114.013672"/>
      </g>
     </g>
    </g>
    <g id="ytick_3">
     <g id="line2d_10">
      <path d="M 57.595781 177.360062 
L 392.395781 177.360062 
" clip-path="url(#pfc2c174669)" style="fill: none; stroke: #ffffff; stroke-linecap: round"/>
     </g>
     <g id="text_11">
      <!-- −60 -->
      <g style="fill: #262626" transform="translate(29.437031 181.296859)scale(0.11 -0.11)">
       <defs>
        <path id="ArialMT-36" d="M 3184 3459 
L 2625 3416 
Q 2550 3747 2413 3897 
Q 2184 4138 1850 4138 
Q 1581 4138 1378 3988 
Q 1113 3794 959 3422 
Q 806 3050 800 2363 
Q 1003 2672 1297 2822 
Q 1591 2972 1913 2972 
Q 2475 2972 2870 2558 
Q 3266 2144 3266 1488 
Q 3266 1056 3080 686 
Q 2894 316 2569 119 
Q 2244 -78 1831 -78 
Q 1128 -78 684 439 
Q 241 956 241 2144 
Q 241 3472 731 4075 
Q 1159 4600 1884 4600 
Q 2425 4600 2770 4297 
Q 3116 3994 3184 3459 
z
M 888 1484 
Q 888 1194 1011 928 
Q 1134 663 1356 523 
Q 1578 384 1822 384 
Q 2178 384 2434 671 
Q 2691 959 2691 1453 
Q 2691 1928 2437 2201 
Q 2184 2475 1800 2475 
Q 1419 2475 1153 2201 
Q 888 1928 888 1484 
z
" transform="scale(0.015625)"/>
       </defs>
       <use xlink:href="#ArialMT-2212"/>
       <use xlink:href="#ArialMT-36" x="58.398438"/>
       <use xlink:href="#ArialMT-30" x="114.013672"/>
      </g>
     </g>
    </g>
    <g id="ytick_4">
     <g id="line2d_11">
      <path d="M 57.595781 149.882983 
L 392.395781 149.882983 
" clip-path="url(#pfc2c174669)" style="fill: none; stroke: #ffffff; stroke-linecap: round"/>
     </g>
     <g id="text_12">
      <!-- −40 -->
      <g style="fill: #262626" transform="translate(29.437031 153.81978)scale(0.11 -0.11)">
       <defs>
        <path id="ArialMT-34" d="M 2069 0 
L 2069 1097 
L 81 1097 
L 81 1613 
L 2172 4581 
L 2631 4581 
L 2631 1613 
L 3250 1613 
L 3250 1097 
L 2631 1097 
L 2631 0 
L 2069 0 
z
M 2069 1613 
L 2069 3678 
L 634 1613 
L 2069 1613 
z
" transform="scale(0.015625)"/>
       </defs>
       <use xlink:href="#ArialMT-2212"/>
       <use xlink:href="#ArialMT-34" x="58.398438"/>
       <use xlink:href="#ArialMT-30" x="114.013672"/>
      </g>
     </g>
    </g>
    <g id="ytick_5">
     <g id="line2d_12">
      <path d="M 57.595781 122.405903 
L 392.395781 122.405903 
" clip-path="url(#pfc2c174669)" style="fill: none; stroke: #ffffff; stroke-linecap: round"/>
     </g>
     <g id="text_13">
      <!-- −20 -->
      <g style="fill: #262626" transform="translate(29.437031 126.3427)scale(0.11 -0.11)">
       <defs>
        <path id="ArialMT-32" d="M 3222 541 
L 3222 0 
L 194 0 
Q 188 203 259 391 
Q 375 700 629 1000 
Q 884 1300 1366 1694 
Q 2113 2306 2375 2664 
Q 2638 3022 2638 3341 
Q 2638 3675 2398 3904 
Q 2159 4134 1775 4134 
Q 1369 4134 1125 3890 
Q 881 3647 878 3216 
L 300 3275 
Q 359 3922 746 4261 
Q 1134 4600 1788 4600 
Q 2447 4600 2831 4234 
Q 3216 3869 3216 3328 
Q 3216 3053 3103 2787 
Q 2991 2522 2730 2228 
Q 2469 1934 1863 1422 
Q 1356 997 1212 845 
Q 1069 694 975 541 
L 3222 541 
z
" transform="scale(0.015625)"/>
       </defs>
       <use xlink:href="#ArialMT-2212"/>
       <use xlink:href="#ArialMT-32" x="58.398438"/>
       <use xlink:href="#ArialMT-30" x="114.013672"/>
      </g>
     </g>
    </g>
    <g id="ytick_6">
     <g id="line2d_13">
      <path d="M 57.595781 94.928824 
L 392.395781 94.928824 
" clip-path="url(#pfc2c174669)" style="fill: none; stroke: #ffffff; stroke-linecap: round"/>
     </g>
     <g id="text_14">
      <!-- 0 -->
      <g style="fill: #262626" transform="translate(41.97875 98.865621)scale(0.11 -0.11)">
       <use xlink:href="#ArialMT-30"/>
      </g>
     </g>
    </g>
    <g id="ytick_7">
     <g id="line2d_14">
      <path d="M 57.595781 67.451744 
L 392.395781 67.451744 
" clip-path="url(#pfc2c174669)" style="fill: none; stroke: #ffffff; stroke-linecap: round"/>
     </g>
     <g id="text_15">
      <!-- 20 -->
      <g style="fill: #262626" transform="translate(35.861719 71.388541)scale(0.11 -0.11)">
       <use xlink:href="#ArialMT-32"/>
       <use xlink:href="#ArialMT-30" x="55.615234"/>
      </g>
     </g>
    </g>
    <g id="ytick_8">
     <g id="line2d_15">
      <path d="M 57.595781 39.974664 
L 392.395781 39.974664 
" clip-path="url(#pfc2c174669)" style="fill: none; stroke: #ffffff; stroke-linecap: round"/>
     </g>
     <g id="text_16">
      <!-- 40 -->
      <g style="fill: #262626" transform="translate(35.861719 43.911461)scale(0.11 -0.11)">
       <use xlink:href="#ArialMT-34"/>
       <use xlink:href="#ArialMT-30" x="55.615234"/>
      </g>
     </g>
    </g>
    <g id="text_17">
     <!-- $|E_{co}|$ dB -->
     <g style="fill: #262626" transform="translate(16.44 152.555625)rotate(-90)scale(0.12 -0.12)">
      <defs>
       <path id="DejaVuSans-7c" d="M 1344 4891 
L 1344 -1509 
L 813 -1509 
L 813 4891 
L 1344 4891 
z
" transform="scale(0.015625)"/>
       <path id="DejaVuSans-Oblique-45" d="M 1081 4666 
L 4031 4666 
L 3928 4134 
L 1606 4134 
L 1338 2753 
L 3566 2753 
L 3463 2222 
L 1234 2222 
L 909 531 
L 3284 531 
L 3181 0 
L 172 0 
L 1081 4666 
z
" transform="scale(0.015625)"/>
       <path id="DejaVuSans-Oblique-63" d="M 3431 3366 
L 3316 2797 
Q 3109 2947 2876 3022 
Q 2644 3097 2394 3097 
Q 2119 3097 1870 3000 
Q 1622 2903 1453 2725 
Q 1184 2453 1037 2087 
Q 891 1722 891 1331 
Q 891 859 1127 628 
Q 1363 397 1844 397 
Q 2081 397 2348 469 
Q 2616 541 2906 684 
L 2797 116 
Q 2547 13 2283 -39 
Q 2019 -91 1741 -91 
Q 1044 -91 669 257 
Q 294 606 294 1253 
Q 294 1797 489 2255 
Q 684 2713 1069 3078 
Q 1331 3328 1684 3456 
Q 2038 3584 2456 3584 
Q 2700 3584 2940 3529 
Q 3181 3475 3431 3366 
z
" transform="scale(0.015625)"/>
       <path id="DejaVuSans-Oblique-6f" d="M 1625 -91 
Q 1009 -91 651 289 
Q 294 669 294 1325 
Q 294 1706 417 2101 
Q 541 2497 738 2766 
Q 1047 3184 1428 3384 
Q 1809 3584 2291 3584 
Q 2888 3584 3255 3212 
Q 3622 2841 3622 2241 
Q 3622 1825 3500 1412 
Q 3378 1000 3181 728 
Q 2875 309 2494 109 
Q 2113 -91 1625 -91 
z
M 891 1344 
Q 891 869 1089 633 
Q 1288 397 1691 397 
Q 2269 397 2648 901 
Q 3028 1406 3028 2181 
Q 3028 2634 2825 2865 
Q 2622 3097 2228 3097 
Q 1903 3097 1650 2945 
Q 1397 2794 1197 2484 
Q 1050 2253 970 1956 
Q 891 1659 891 1344 
z
" transform="scale(0.015625)"/>
       <path id="ArialMT-20" transform="scale(0.015625)"/>
       <path id="ArialMT-64" d="M 2575 0 
L 2575 419 
Q 2259 -75 1647 -75 
Q 1250 -75 917 144 
Q 584 363 401 755 
Q 219 1147 219 1656 
Q 219 2153 384 2558 
Q 550 2963 881 3178 
Q 1213 3394 1622 3394 
Q 1922 3394 2156 3267 
Q 2391 3141 2538 2938 
L 2538 4581 
L 3097 4581 
L 3097 0 
L 2575 0 
z
M 797 1656 
Q 797 1019 1065 703 
Q 1334 388 1700 388 
Q 2069 388 2326 689 
Q 2584 991 2584 1609 
Q 2584 2291 2321 2609 
Q 2059 2928 1675 2928 
Q 1300 2928 1048 2622 
Q 797 2316 797 1656 
z
" transform="scale(0.015625)"/>
       <path id="ArialMT-42" d="M 469 0 
L 469 4581 
L 2188 4581 
Q 2713 4581 3030 4442 
Q 3347 4303 3526 4014 
Q 3706 3725 3706 3409 
Q 3706 3116 3547 2856 
Q 3388 2597 3066 2438 
Q 3481 2316 3704 2022 
Q 3928 1728 3928 1328 
Q 3928 1006 3792 729 
Q 3656 453 3456 303 
Q 3256 153 2954 76 
Q 2653 0 2216 0 
L 469 0 
z
M 1075 2656 
L 2066 2656 
Q 2469 2656 2644 2709 
Q 2875 2778 2992 2937 
Q 3109 3097 3109 3338 
Q 3109 3566 3000 3739 
Q 2891 3913 2687 3977 
Q 2484 4041 1991 4041 
L 1075 4041 
L 1075 2656 
z
M 1075 541 
L 2216 541 
Q 2509 541 2628 563 
Q 2838 600 2978 687 
Q 3119 775 3209 942 
Q 3300 1109 3300 1328 
Q 3300 1584 3169 1773 
Q 3038 1963 2805 2039 
Q 2572 2116 2134 2116 
L 1075 2116 
L 1075 541 
z
" transform="scale(0.015625)"/>
      </defs>
      <use xlink:href="#DejaVuSans-7c" transform="translate(0 0.578125)"/>
      <use xlink:href="#DejaVuSans-Oblique-45" transform="translate(33.691406 0.578125)"/>
      <use xlink:href="#DejaVuSans-Oblique-63" transform="translate(96.875 -15.828125)scale(0.7)"/>
      <use xlink:href="#DejaVuSans-Oblique-6f" transform="translate(135.361328 -15.828125)scale(0.7)"/>
      <use xlink:href="#DejaVuSans-7c" transform="translate(180.922852 0.578125)"/>
      <use xlink:href="#ArialMT-20" transform="translate(214.614258 0.578125)"/>
      <use xlink:href="#ArialMT-64" transform="translate(242.397461 0.578125)"/>
      <use xlink:href="#ArialMT-42" transform="translate(298.012695 0.578125)"/>
     </g>
    </g>
   </g>
   <g id="line2d_16">
    <path d="M 72.813963 186.448699 
L 73.659418 190.656833 
L 74.504872 208.620278 
L 75.350327 220.205173 
L 76.195781 189.440571 
L 77.041236 178.472731 
L 77.88669 174.345188 
L 78.732145 175.002842 
L 79.577599 180.553593 
L 80.423054 193.446835 
L 81.268509 224.337713 
L 82.113963 204.40022 
L 82.959418 191.192045 
L 83.804872 188.090273 
L 84.650327 191.382724 
L 86.341236 211.225502 
L 88.032145 196.745203 
L 88.877599 195.73782 
L 89.723054 199.892856 
L 90.568509 206.319259 
L 91.413963 205.914831 
L 92.259418 200.908427 
L 93.104872 199.234459 
L 93.950327 202.015866 
L 94.795781 206.548689 
L 95.641236 205.496021 
L 96.48669 201.048788 
L 97.332145 199.882177 
L 98.177599 203.426845 
L 99.023054 208.584736 
L 99.868509 205.957027 
L 100.713963 200.43318 
L 101.559418 199.440432 
L 102.404872 204.059698 
L 103.250327 210.216114 
L 104.095781 205.776514 
L 104.941236 199.744152 
L 105.78669 199.543875 
L 107.477599 210.747371 
L 108.323054 204.084757 
L 109.168509 199.195802 
L 110.013963 200.971405 
L 110.859418 208.262172 
L 111.704872 209.019643 
L 112.550327 201.809913 
L 113.395781 199.731857 
L 114.241236 204.299927 
L 115.08669 210.259123 
L 116.777599 200.80911 
L 117.623054 202.471956 
L 118.468509 208.730433 
L 119.313963 208.607122 
L 120.159418 203.166169 
L 121.004872 202.59191 
L 121.850327 207.464198 
L 122.695781 210.535745 
L 123.541236 206.186861 
L 124.38669 204.15685 
L 125.232145 207.485951 
L 126.077599 211.942159 
L 126.923054 209.708384 
L 127.768509 206.969957 
L 128.613963 208.939098 
L 129.459418 213.718872 
L 130.304872 213.953967 
L 131.150327 211.185008 
L 131.995781 211.838085 
L 132.841236 216.088501 
L 133.68669 218.633893 
L 134.532145 216.375314 
L 135.377599 214.717205 
L 137.068509 216.760323 
L 137.913963 214.027118 
L 138.759418 208.931207 
L 139.604872 204.865349 
L 140.450327 201.982613 
L 141.295781 198.467756 
L 142.98669 189.483657 
L 146.368509 176.085285 
L 148.059418 170.839731 
L 149.750327 166.078408 
L 150.595781 164.213528 
L 152.28669 161.350942 
L 153.132145 160.267562 
L 153.977599 159.636088 
L 154.823054 159.457974 
L 155.668509 159.642146 
L 156.513963 160.272091 
L 157.359418 161.561248 
L 158.204872 163.605772 
L 159.050327 166.388528 
L 159.895781 170.023725 
L 161.58669 179.745493 
L 162.432145 182.565812 
L 163.277599 180.826208 
L 164.968509 171.880227 
L 165.813963 168.480173 
L 166.659418 166.669703 
L 167.504872 166.606633 
L 168.350327 168.508434 
L 169.195781 173.073884 
L 170.041236 182.022351 
L 170.88669 195.549412 
L 171.732145 185.241466 
L 172.577599 169.407681 
L 173.423054 158.98284 
L 174.268509 151.845374 
L 175.113963 146.951563 
L 175.959418 143.823481 
L 176.804872 142.19258 
L 177.650327 141.867421 
L 178.495781 142.628747 
L 179.341236 143.971923 
L 180.18669 144.68685 
L 181.032145 143.224605 
L 181.877599 139.60517 
L 182.723054 135.432174 
L 183.568509 131.986712 
L 184.413963 129.846 
L 185.259418 129.306673 
L 186.104872 130.674283 
L 186.950327 134.384401 
L 188.641236 146.528722 
L 189.48669 141.349515 
L 190.332145 131.14521 
L 191.177599 123.049714 
L 192.023054 117.383618 
L 192.868509 113.633827 
L 193.713963 111.364637 
L 194.559418 110.163012 
L 196.250327 108.757563 
L 197.095781 107.319146 
L 197.941236 105.102429 
L 199.632145 100.189936 
L 200.477599 98.434909 
L 201.323054 97.397667 
L 203.013963 96.392639 
L 203.859418 94.904103 
L 204.704872 91.778654 
L 207.241236 78.427012 
L 208.08669 74.831452 
L 208.932145 71.914683 
L 211.468509 64.69609 
L 213.159418 58.537025 
L 214.850327 52.16802 
L 215.695781 49.525433 
L 216.541236 47.3491 
L 218.232145 43.959576 
L 219.923054 40.535332 
L 222.459418 34.615042 
L 223.304872 33.131595 
L 224.150327 32.185432 
L 224.995781 31.86111 
L 225.841236 32.185432 
L 226.68669 33.131595 
L 227.532145 34.615042 
L 229.223054 38.534179 
L 230.913963 42.340534 
L 233.450327 47.3491 
L 234.295781 49.525433 
L 235.141236 52.16802 
L 236.832145 58.537025 
L 238.523054 64.69609 
L 241.904872 74.831452 
L 242.750327 78.427012 
L 245.28669 91.778654 
L 246.132145 94.904103 
L 246.977599 96.392639 
L 248.668509 97.397667 
L 249.513963 98.434909 
L 250.359418 100.189936 
L 252.895781 107.319146 
L 253.741236 108.757563 
L 255.432145 110.163012 
L 256.277599 111.364637 
L 257.123054 113.633827 
L 257.968509 117.383618 
L 258.813963 123.049714 
L 259.659418 131.14521 
L 260.504872 141.349515 
L 261.350327 146.528722 
L 263.041236 134.384401 
L 263.88669 130.674283 
L 264.732145 129.306673 
L 265.577599 129.846 
L 266.423054 131.986712 
L 267.268509 135.432174 
L 268.959418 143.224605 
L 269.804872 144.68685 
L 270.650327 143.971923 
L 271.495781 142.628747 
L 272.341236 141.867421 
L 273.18669 142.19258 
L 274.032145 143.823481 
L 274.877599 146.951563 
L 275.723054 151.845374 
L 276.568509 158.98284 
L 277.413963 169.407681 
L 278.259418 185.241466 
L 279.104872 195.549412 
L 279.950327 182.022351 
L 280.795781 173.073884 
L 281.641236 168.508434 
L 282.48669 166.606633 
L 283.332145 166.669703 
L 284.177599 168.480173 
L 285.023054 171.880227 
L 286.713963 180.826208 
L 287.559418 182.565812 
L 288.404872 179.745493 
L 290.095781 170.023725 
L 290.941236 166.388528 
L 291.78669 163.605772 
L 292.632145 161.561248 
L 293.477599 160.272091 
L 294.323054 159.642146 
L 295.168509 159.457974 
L 296.013963 159.636088 
L 296.859418 160.267562 
L 297.704872 161.350942 
L 299.395781 164.213528 
L 300.241236 166.078408 
L 301.932145 170.839731 
L 303.623054 176.085285 
L 307.004872 189.483657 
L 309.541236 201.982613 
L 310.38669 204.865349 
L 311.232145 208.931207 
L 312.077599 214.027118 
L 312.923054 216.760323 
L 314.613963 214.717205 
L 315.459418 216.375314 
L 316.304872 218.633893 
L 317.150327 216.088501 
L 317.995781 211.838085 
L 318.841236 211.185008 
L 319.68669 213.953967 
L 320.532145 213.718872 
L 321.377599 208.939098 
L 322.223054 206.969957 
L 323.068509 209.708384 
L 323.913963 211.942159 
L 324.759418 207.485951 
L 325.604872 204.15685 
L 326.450327 206.186861 
L 327.295781 210.535745 
L 328.141236 207.464198 
L 328.98669 202.59191 
L 329.832145 203.166169 
L 330.677599 208.607122 
L 331.523054 208.730433 
L 332.368509 202.471956 
L 333.213963 200.80911 
L 334.904872 210.259123 
L 335.750327 204.299927 
L 336.595781 199.731857 
L 337.441236 201.809913 
L 338.28669 209.019643 
L 339.132145 208.262172 
L 339.977599 200.971405 
L 340.823054 199.195802 
L 341.668509 204.084757 
L 342.513963 210.747371 
L 343.359418 205.520036 
L 344.204872 199.543875 
L 345.050327 199.744152 
L 345.895781 205.776514 
L 346.741236 210.216114 
L 347.58669 204.059698 
L 348.432145 199.440432 
L 349.277599 200.43318 
L 350.123054 205.957027 
L 350.968509 208.584736 
L 351.813963 203.426845 
L 352.659418 199.882177 
L 353.504872 201.048788 
L 354.350327 205.496021 
L 355.195781 206.548689 
L 356.041236 202.015866 
L 356.88669 199.234459 
L 357.732145 200.908427 
L 358.577599 205.914831 
L 359.423054 206.319259 
L 360.268509 199.892856 
L 361.113963 195.73782 
L 361.959418 196.745203 
L 363.650327 211.225502 
L 365.341236 191.382724 
L 366.18669 188.090273 
L 367.032145 191.192045 
L 367.877599 204.40022 
L 368.723054 224.337713 
L 369.568509 193.446835 
L 370.413963 180.553593 
L 371.259418 175.002842 
L 372.104872 174.345188 
L 372.950327 178.472731 
L 373.795781 189.440571 
L 374.641236 220.205173 
L 375.48669 208.620278 
L 376.332145 190.656833 
L 377.177599 186.448699 
L 377.177599 186.448699 
" clip-path="url(#pfc2c174669)" style="fill: none; stroke: #4c72b0; stroke-width: 1.5; stroke-linecap: round"/>
   </g>
   <g id="line2d_17">
    <path d="M 72.813963 182.033388 
L 73.659418 185.895939 
L 74.504872 201.706641 
L 75.350327 229.491989 
L 76.195781 189.31268 
L 77.041236 177.272449 
L 77.88669 172.732191 
L 78.732145 173.15545 
L 79.577599 178.533078 
L 80.423054 191.311771 
L 81.268509 225.563268 
L 82.113963 203.559216 
L 82.959418 189.366305 
L 83.804872 185.88106 
L 84.650327 188.843441 
L 85.495781 198.274248 
L 86.341236 211.632662 
L 87.18669 205.209352 
L 88.032145 196.586383 
L 88.877599 194.546886 
L 89.723054 197.81347 
L 90.568509 204.176235 
L 91.413963 206.103764 
L 92.259418 202.082544 
L 93.104872 200.016658 
L 93.950327 201.822204 
L 94.795781 205.145393 
L 95.641236 204.660045 
L 96.48669 201.620811 
L 97.332145 201.207818 
L 99.023054 208.756842 
L 99.868509 205.533168 
L 100.713963 200.899828 
L 101.559418 200.819412 
L 103.250327 211.84792 
L 104.941236 200.698373 
L 105.78669 201.329404 
L 106.632145 208.416644 
L 107.477599 213.46254 
L 108.323054 205.58621 
L 109.168509 200.986191 
L 110.013963 203.622817 
L 110.859418 212.407449 
L 111.704872 212.554485 
L 112.550327 204.412036 
L 113.395781 202.677321 
L 114.241236 208.4535 
L 115.08669 216.106855 
L 115.932145 209.942714 
L 116.777599 204.759309 
L 117.623054 207.073523 
L 118.468509 215.441 
L 119.313963 215.799715 
L 120.159418 208.925938 
L 121.004872 208.239669 
L 122.695781 220.192609 
L 123.541236 214.489894 
L 124.38669 211.16942 
L 125.232145 214.481765 
L 126.077599 221.342899 
L 126.923054 219.693151 
L 127.768509 214.335367 
L 128.613963 213.913438 
L 129.459418 217.88042 
L 130.304872 219.243349 
L 131.150327 214.21915 
L 131.995781 210.732317 
L 132.841236 210.988494 
L 133.68669 211.747948 
L 134.532145 208.689305 
L 135.377599 204.7054 
L 136.223054 202.976043 
L 137.068509 202.443364 
L 137.913963 200.334257 
L 138.759418 196.954654 
L 139.604872 194.465158 
L 140.450327 192.920384 
L 141.295781 190.83304 
L 142.98669 185.086093 
L 144.677599 180.677845 
L 146.368509 175.383113 
L 148.904872 169.072915 
L 149.750327 167.097136 
L 150.595781 165.533368 
L 152.28669 163.137959 
L 153.132145 162.279429 
L 153.977599 161.922243 
L 154.823054 162.054462 
L 155.668509 162.575498 
L 156.513963 163.624985 
L 157.359418 165.501988 
L 158.204872 168.336401 
L 159.050327 172.091596 
L 159.895781 176.846808 
L 160.741236 182.242118 
L 161.58669 184.957485 
L 162.432145 181.311162 
L 164.123054 169.426819 
L 164.968509 165.011554 
L 165.813963 161.9758 
L 166.659418 160.437469 
L 167.504872 160.43635 
L 168.350327 162.084044 
L 169.195781 165.841197 
L 170.041236 172.763009 
L 170.88669 183.683231 
L 171.732145 184.876787 
L 172.577599 170.751773 
L 173.423054 159.718495 
L 174.268509 152.162283 
L 175.113963 147.061594 
L 175.959418 143.879839 
L 176.804872 142.302557 
L 177.650327 142.090923 
L 178.495781 142.953006 
L 179.341236 144.21991 
L 180.18669 144.404035 
L 181.032145 142.020539 
L 182.723054 133.249354 
L 183.568509 129.786992 
L 184.413963 127.739695 
L 185.259418 127.344717 
L 186.104872 128.910431 
L 186.950327 132.952267 
L 188.641236 147.436113 
L 189.48669 141.989675 
L 190.332145 130.935762 
L 191.177599 122.609056 
L 192.023054 116.985928 
L 192.868509 113.414843 
L 193.713963 111.415646 
L 194.559418 110.541283 
L 195.404872 110.197913 
L 196.250327 109.584251 
L 197.095781 108.017413 
L 200.477599 98.255123 
L 201.323054 97.190119 
L 203.013963 96.126732 
L 203.859418 94.580482 
L 204.704872 91.440851 
L 207.241236 78.340339 
L 208.08669 74.819144 
L 208.932145 71.947019 
L 211.468509 64.690125 
L 213.159418 58.495661 
L 214.850327 52.160597 
L 215.695781 49.542202 
L 216.541236 47.385466 
L 218.232145 44.005947 
L 219.923054 40.550754 
L 222.459418 34.583102 
L 223.304872 33.093509 
L 224.150327 32.144423 
L 224.995781 31.819261 
L 225.841236 32.144423 
L 226.68669 33.093509 
L 227.532145 34.583102 
L 229.223054 38.529433 
L 230.913963 42.37505 
L 233.450327 47.385466 
L 234.295781 49.542202 
L 235.141236 52.160597 
L 236.832145 58.495661 
L 238.523054 64.690125 
L 241.904872 74.819144 
L 242.750327 78.340339 
L 246.132145 94.580482 
L 246.977599 96.126732 
L 248.668509 97.190119 
L 249.513963 98.255123 
L 250.359418 100.096292 
L 252.895781 108.017413 
L 253.741236 109.584251 
L 254.58669 110.197913 
L 255.432145 110.541283 
L 256.277599 111.415646 
L 257.123054 113.414843 
L 257.968509 116.985928 
L 258.813963 122.609056 
L 259.659418 130.935762 
L 260.504872 141.989675 
L 261.350327 147.436113 
L 263.041236 132.952267 
L 263.88669 128.910431 
L 264.732145 127.344717 
L 265.577599 127.739695 
L 266.423054 129.786992 
L 267.268509 133.249354 
L 268.959418 142.020539 
L 269.804872 144.404035 
L 270.650327 144.21991 
L 271.495781 142.953006 
L 272.341236 142.090923 
L 273.18669 142.302557 
L 274.032145 143.879839 
L 274.877599 147.061594 
L 275.723054 152.162283 
L 276.568509 159.718495 
L 277.413963 170.751773 
L 278.259418 184.876787 
L 279.104872 183.683231 
L 279.950327 172.763009 
L 280.795781 165.841197 
L 281.641236 162.084044 
L 282.48669 160.43635 
L 283.332145 160.437469 
L 284.177599 161.9758 
L 285.023054 165.011554 
L 285.868509 169.426819 
L 287.559418 181.311162 
L 288.404872 184.957485 
L 289.250327 182.242118 
L 290.941236 172.091596 
L 291.78669 168.336401 
L 292.632145 165.501988 
L 293.477599 163.624985 
L 294.323054 162.575498 
L 295.168509 162.054462 
L 296.013963 161.922243 
L 296.859418 162.279429 
L 297.704872 163.137959 
L 299.395781 165.533368 
L 300.241236 167.097136 
L 302.777599 173.213046 
L 303.623054 175.383113 
L 306.159418 182.923447 
L 307.004872 185.086093 
L 308.695781 190.83304 
L 309.541236 192.920384 
L 310.38669 194.465158 
L 311.232145 196.954654 
L 312.077599 200.334257 
L 312.923054 202.443364 
L 313.768509 202.976043 
L 314.613963 204.7054 
L 315.459418 208.689305 
L 316.304872 211.747948 
L 317.150327 210.988494 
L 317.995781 210.732317 
L 318.841236 214.21915 
L 319.68669 219.243349 
L 320.532145 217.88042 
L 321.377599 213.913438 
L 322.223054 214.335367 
L 323.068509 219.693151 
L 323.913963 221.342899 
L 324.759418 214.481765 
L 325.604872 211.16942 
L 326.450327 214.489894 
L 327.295781 220.192609 
L 328.98669 208.239669 
L 329.832145 208.925938 
L 330.677599 215.799715 
L 331.523054 215.441 
L 332.368509 207.073523 
L 333.213963 204.759309 
L 334.059418 209.942714 
L 334.904872 216.106855 
L 335.750327 208.4535 
L 336.595781 202.677321 
L 337.441236 204.412036 
L 338.28669 212.554485 
L 339.132145 212.407449 
L 339.977599 203.622817 
L 340.823054 200.986191 
L 341.668509 205.58621 
L 342.513963 213.46254 
L 343.359418 208.416644 
L 344.204872 201.329404 
L 345.050327 200.698373 
L 346.741236 211.84792 
L 348.432145 200.819412 
L 349.277599 200.899828 
L 350.123054 205.533168 
L 350.968509 208.756842 
L 352.659418 201.207818 
L 353.504872 201.620811 
L 354.350327 204.660045 
L 355.195781 205.145393 
L 356.041236 201.822204 
L 356.88669 200.016658 
L 357.732145 202.082544 
L 358.577599 206.103764 
L 359.423054 204.176235 
L 360.268509 197.81347 
L 361.113963 194.546886 
L 361.959418 196.586383 
L 362.804872 205.209352 
L 363.650327 211.632662 
L 364.495781 198.274248 
L 365.341236 188.843441 
L 366.18669 185.88106 
L 367.032145 189.366305 
L 367.877599 203.559216 
L 368.723054 225.563268 
L 369.568509 191.311771 
L 370.413963 178.533078 
L 371.259418 173.15545 
L 372.104872 172.732191 
L 372.950327 177.272449 
L 373.795781 189.31268 
L 374.641236 229.491989 
L 375.48669 201.706641 
L 376.332145 185.895939 
L 377.177599 182.033388 
L 377.177599 182.033388 
" clip-path="url(#pfc2c174669)" style="fill: none; stroke: #dd8452; stroke-width: 1.5; stroke-linecap: round"/>
   </g>
   <g id="patch_3">
    <path d="M 57.595781 239.375625 
L 57.595781 21.935625 
" style="fill: none; stroke: #ffffff; stroke-width: 1.25; stroke-linejoin: miter; stroke-linecap: square"/>
   </g>
   <g id="patch_4">
    <path d="M 392.395781 239.375625 
L 392.395781 21.935625 
" style="fill: none; stroke: #ffffff; stroke-width: 1.25; stroke-linejoin: miter; stroke-linecap: square"/>
   </g>
   <g id="patch_5">
    <path d="M 57.595781 239.375625 
L 392.395781 239.375625 
" style="fill: none; stroke: #ffffff; stroke-width: 1.25; stroke-linejoin: miter; stroke-linecap: square"/>
   </g>
   <g id="patch_6">
    <path d="M 57.595781 21.935625 
L 392.395781 21.935625 
" style="fill: none; stroke: #ffffff; stroke-width: 1.25; stroke-linejoin: miter; stroke-linecap: square"/>
   </g>
   <g id="text_18">
    <!-- GP Prediction in 20D Latent Space -->
    <g style="fill: #262626" transform="translate(132.050156 15.935625)scale(0.12 -0.12)">
     <defs>
      <path id="ArialMT-47" d="M 2638 1797 
L 2638 2334 
L 4578 2338 
L 4578 638 
Q 4131 281 3656 101 
Q 3181 -78 2681 -78 
Q 2006 -78 1454 211 
Q 903 500 622 1047 
Q 341 1594 341 2269 
Q 341 2938 620 3517 
Q 900 4097 1425 4378 
Q 1950 4659 2634 4659 
Q 3131 4659 3532 4498 
Q 3934 4338 4162 4050 
Q 4391 3763 4509 3300 
L 3963 3150 
Q 3859 3500 3706 3700 
Q 3553 3900 3268 4020 
Q 2984 4141 2638 4141 
Q 2222 4141 1919 4014 
Q 1616 3888 1430 3681 
Q 1244 3475 1141 3228 
Q 966 2803 966 2306 
Q 966 1694 1177 1281 
Q 1388 869 1791 669 
Q 2194 469 2647 469 
Q 3041 469 3416 620 
Q 3791 772 3984 944 
L 3984 1797 
L 2638 1797 
z
" transform="scale(0.015625)"/>
      <path id="ArialMT-50" d="M 494 0 
L 494 4581 
L 2222 4581 
Q 2678 4581 2919 4538 
Q 3256 4481 3484 4323 
Q 3713 4166 3852 3881 
Q 3991 3597 3991 3256 
Q 3991 2672 3619 2267 
Q 3247 1863 2275 1863 
L 1100 1863 
L 1100 0 
L 494 0 
z
M 1100 2403 
L 2284 2403 
Q 2872 2403 3119 2622 
Q 3366 2841 3366 3238 
Q 3366 3525 3220 3729 
Q 3075 3934 2838 4000 
Q 2684 4041 2272 4041 
L 1100 4041 
L 1100 2403 
z
" transform="scale(0.015625)"/>
      <path id="ArialMT-72" d="M 416 0 
L 416 3319 
L 922 3319 
L 922 2816 
Q 1116 3169 1280 3281 
Q 1444 3394 1641 3394 
Q 1925 3394 2219 3213 
L 2025 2691 
Q 1819 2813 1613 2813 
Q 1428 2813 1281 2702 
Q 1134 2591 1072 2394 
Q 978 2094 978 1738 
L 978 0 
L 416 0 
z
" transform="scale(0.015625)"/>
      <path id="ArialMT-65" d="M 2694 1069 
L 3275 997 
Q 3138 488 2766 206 
Q 2394 -75 1816 -75 
Q 1088 -75 661 373 
Q 234 822 234 1631 
Q 234 2469 665 2931 
Q 1097 3394 1784 3394 
Q 2450 3394 2872 2941 
Q 3294 2488 3294 1666 
Q 3294 1616 3291 1516 
L 816 1516 
Q 847 969 1125 678 
Q 1403 388 1819 388 
Q 2128 388 2347 550 
Q 2566 713 2694 1069 
z
M 847 1978 
L 2700 1978 
Q 2663 2397 2488 2606 
Q 2219 2931 1791 2931 
Q 1403 2931 1139 2672 
Q 875 2413 847 1978 
z
" transform="scale(0.015625)"/>
      <path id="ArialMT-69" d="M 425 3934 
L 425 4581 
L 988 4581 
L 988 3934 
L 425 3934 
z
M 425 0 
L 425 3319 
L 988 3319 
L 988 0 
L 425 0 
z
" transform="scale(0.015625)"/>
      <path id="ArialMT-63" d="M 2588 1216 
L 3141 1144 
Q 3050 572 2676 248 
Q 2303 -75 1759 -75 
Q 1078 -75 664 370 
Q 250 816 250 1647 
Q 250 2184 428 2587 
Q 606 2991 970 3192 
Q 1334 3394 1763 3394 
Q 2303 3394 2647 3120 
Q 2991 2847 3088 2344 
L 2541 2259 
Q 2463 2594 2264 2762 
Q 2066 2931 1784 2931 
Q 1359 2931 1093 2626 
Q 828 2322 828 1663 
Q 828 994 1084 691 
Q 1341 388 1753 388 
Q 2084 388 2306 591 
Q 2528 794 2588 1216 
z
" transform="scale(0.015625)"/>
      <path id="ArialMT-74" d="M 1650 503 
L 1731 6 
Q 1494 -44 1306 -44 
Q 1000 -44 831 53 
Q 663 150 594 308 
Q 525 466 525 972 
L 525 2881 
L 113 2881 
L 113 3319 
L 525 3319 
L 525 4141 
L 1084 4478 
L 1084 3319 
L 1650 3319 
L 1650 2881 
L 1084 2881 
L 1084 941 
Q 1084 700 1114 631 
Q 1144 563 1211 522 
Q 1278 481 1403 481 
Q 1497 481 1650 503 
z
" transform="scale(0.015625)"/>
      <path id="ArialMT-6f" d="M 213 1659 
Q 213 2581 725 3025 
Q 1153 3394 1769 3394 
Q 2453 3394 2887 2945 
Q 3322 2497 3322 1706 
Q 3322 1066 3130 698 
Q 2938 331 2570 128 
Q 2203 -75 1769 -75 
Q 1072 -75 642 372 
Q 213 819 213 1659 
z
M 791 1659 
Q 791 1022 1069 705 
Q 1347 388 1769 388 
Q 2188 388 2466 706 
Q 2744 1025 2744 1678 
Q 2744 2294 2464 2611 
Q 2184 2928 1769 2928 
Q 1347 2928 1069 2612 
Q 791 2297 791 1659 
z
" transform="scale(0.015625)"/>
      <path id="ArialMT-6e" d="M 422 0 
L 422 3319 
L 928 3319 
L 928 2847 
Q 1294 3394 1984 3394 
Q 2284 3394 2536 3286 
Q 2788 3178 2913 3003 
Q 3038 2828 3088 2588 
Q 3119 2431 3119 2041 
L 3119 0 
L 2556 0 
L 2556 2019 
Q 2556 2363 2490 2533 
Q 2425 2703 2258 2804 
Q 2091 2906 1866 2906 
Q 1506 2906 1245 2678 
Q 984 2450 984 1813 
L 984 0 
L 422 0 
z
" transform="scale(0.015625)"/>
      <path id="ArialMT-44" d="M 494 0 
L 494 4581 
L 2072 4581 
Q 2606 4581 2888 4516 
Q 3281 4425 3559 4188 
Q 3922 3881 4101 3404 
Q 4281 2928 4281 2316 
Q 4281 1794 4159 1391 
Q 4038 988 3847 723 
Q 3656 459 3429 307 
Q 3203 156 2883 78 
Q 2563 0 2147 0 
L 494 0 
z
M 1100 541 
L 2078 541 
Q 2531 541 2789 625 
Q 3047 709 3200 863 
Q 3416 1078 3536 1442 
Q 3656 1806 3656 2325 
Q 3656 3044 3420 3430 
Q 3184 3816 2847 3947 
Q 2603 4041 2063 4041 
L 1100 4041 
L 1100 541 
z
" transform="scale(0.015625)"/>
      <path id="ArialMT-4c" d="M 469 0 
L 469 4581 
L 1075 4581 
L 1075 541 
L 3331 541 
L 3331 0 
L 469 0 
z
" transform="scale(0.015625)"/>
      <path id="ArialMT-61" d="M 2588 409 
Q 2275 144 1986 34 
Q 1697 -75 1366 -75 
Q 819 -75 525 192 
Q 231 459 231 875 
Q 231 1119 342 1320 
Q 453 1522 633 1644 
Q 813 1766 1038 1828 
Q 1203 1872 1538 1913 
Q 2219 1994 2541 2106 
Q 2544 2222 2544 2253 
Q 2544 2597 2384 2738 
Q 2169 2928 1744 2928 
Q 1347 2928 1158 2789 
Q 969 2650 878 2297 
L 328 2372 
Q 403 2725 575 2942 
Q 747 3159 1072 3276 
Q 1397 3394 1825 3394 
Q 2250 3394 2515 3294 
Q 2781 3194 2906 3042 
Q 3031 2891 3081 2659 
Q 3109 2516 3109 2141 
L 3109 1391 
Q 3109 606 3145 398 
Q 3181 191 3288 0 
L 2700 0 
Q 2613 175 2588 409 
z
M 2541 1666 
Q 2234 1541 1622 1453 
Q 1275 1403 1131 1340 
Q 988 1278 909 1158 
Q 831 1038 831 891 
Q 831 666 1001 516 
Q 1172 366 1500 366 
Q 1825 366 2078 508 
Q 2331 650 2450 897 
Q 2541 1088 2541 1459 
L 2541 1666 
z
" transform="scale(0.015625)"/>
      <path id="ArialMT-53" d="M 288 1472 
L 859 1522 
Q 900 1178 1048 958 
Q 1197 738 1509 602 
Q 1822 466 2213 466 
Q 2559 466 2825 569 
Q 3091 672 3220 851 
Q 3350 1031 3350 1244 
Q 3350 1459 3225 1620 
Q 3100 1781 2813 1891 
Q 2628 1963 1997 2114 
Q 1366 2266 1113 2400 
Q 784 2572 623 2826 
Q 463 3081 463 3397 
Q 463 3744 659 4045 
Q 856 4347 1234 4503 
Q 1613 4659 2075 4659 
Q 2584 4659 2973 4495 
Q 3363 4331 3572 4012 
Q 3781 3694 3797 3291 
L 3216 3247 
Q 3169 3681 2898 3903 
Q 2628 4125 2100 4125 
Q 1550 4125 1298 3923 
Q 1047 3722 1047 3438 
Q 1047 3191 1225 3031 
Q 1400 2872 2139 2705 
Q 2878 2538 3153 2413 
Q 3553 2228 3743 1945 
Q 3934 1663 3934 1294 
Q 3934 928 3725 604 
Q 3516 281 3123 101 
Q 2731 -78 2241 -78 
Q 1619 -78 1198 103 
Q 778 284 539 648 
Q 300 1013 288 1472 
z
" transform="scale(0.015625)"/>
      <path id="ArialMT-70" d="M 422 -1272 
L 422 3319 
L 934 3319 
L 934 2888 
Q 1116 3141 1344 3267 
Q 1572 3394 1897 3394 
Q 2322 3394 2647 3175 
Q 2972 2956 3137 2557 
Q 3303 2159 3303 1684 
Q 3303 1175 3120 767 
Q 2938 359 2589 142 
Q 2241 -75 1856 -75 
Q 1575 -75 1351 44 
Q 1128 163 984 344 
L 984 -1272 
L 422 -1272 
z
M 931 1641 
Q 931 1000 1190 694 
Q 1450 388 1819 388 
Q 2194 388 2461 705 
Q 2728 1022 2728 1688 
Q 2728 2322 2467 2637 
Q 2206 2953 1844 2953 
Q 1484 2953 1207 2617 
Q 931 2281 931 1641 
z
" transform="scale(0.015625)"/>
     </defs>
     <use xlink:href="#ArialMT-47"/>
     <use xlink:href="#ArialMT-50" x="77.783203"/>
     <use xlink:href="#ArialMT-20" x="142.732422"/>
     <use xlink:href="#ArialMT-50" x="170.515625"/>
     <use xlink:href="#ArialMT-72" x="237.214844"/>
     <use xlink:href="#ArialMT-65" x="270.515625"/>
     <use xlink:href="#ArialMT-64" x="326.130859"/>
     <use xlink:href="#ArialMT-69" x="381.746094"/>
     <use xlink:href="#ArialMT-63" x="403.962891"/>
     <use xlink:href="#ArialMT-74" x="453.962891"/>
     <use xlink:href="#ArialMT-69" x="481.746094"/>
     <use xlink:href="#ArialMT-6f" x="503.962891"/>
     <use xlink:href="#ArialMT-6e" x="559.578125"/>
     <use xlink:href="#ArialMT-20" x="615.193359"/>
     <use xlink:href="#ArialMT-69" x="642.976562"/>
     <use xlink:href="#ArialMT-6e" x="665.193359"/>
     <use xlink:href="#ArialMT-20" x="720.808594"/>
     <use xlink:href="#ArialMT-32" x="748.591797"/>
     <use xlink:href="#ArialMT-30" x="804.207031"/>
     <use xlink:href="#ArialMT-44" x="859.822266"/>
     <use xlink:href="#ArialMT-20" x="932.039062"/>
     <use xlink:href="#ArialMT-4c" x="959.822266"/>
     <use xlink:href="#ArialMT-61" x="1015.4375"/>
     <use xlink:href="#ArialMT-74" x="1071.052734"/>
     <use xlink:href="#ArialMT-65" x="1098.835938"/>
     <use xlink:href="#ArialMT-6e" x="1154.451172"/>
     <use xlink:href="#ArialMT-74" x="1210.066406"/>
     <use xlink:href="#ArialMT-20" x="1237.849609"/>
     <use xlink:href="#ArialMT-53" x="1265.632812"/>
     <use xlink:href="#ArialMT-70" x="1332.332031"/>
     <use xlink:href="#ArialMT-61" x="1387.947266"/>
     <use xlink:href="#ArialMT-63" x="1443.5625"/>
     <use xlink:href="#ArialMT-65" x="1493.5625"/>
    </g>
   </g>
   <g id="legend_1">
    <g id="patch_7">
     <path d="M 323.205781 61.855312 
L 384.695781 61.855312 
Q 386.895781 61.855312 386.895781 59.655312 
L 386.895781 29.635625 
Q 386.895781 27.435625 384.695781 27.435625 
L 323.205781 27.435625 
Q 321.005781 27.435625 321.005781 29.635625 
L 321.005781 59.655312 
Q 321.005781 61.855312 323.205781 61.855312 
z
" style="fill: #eaeaf2; opacity: 0.8; stroke: #cccccc; stroke-linejoin: miter"/>
    </g>
    <g id="line2d_18">
     <path d="M 325.405781 35.859219 
L 336.405781 35.859219 
L 347.405781 35.859219 
" style="fill: none; stroke: #4c72b0; stroke-width: 1.5; stroke-linecap: round"/>
    </g>
    <g id="text_19">
     <!-- Pred. -->
     <g style="fill: #262626" transform="translate(356.205781 39.709219)scale(0.11 -0.11)">
      <defs>
       <path id="ArialMT-2e" d="M 581 0 
L 581 641 
L 1222 641 
L 1222 0 
L 581 0 
z
" transform="scale(0.015625)"/>
      </defs>
      <use xlink:href="#ArialMT-50"/>
      <use xlink:href="#ArialMT-72" x="66.699219"/>
      <use xlink:href="#ArialMT-65" x="100"/>
      <use xlink:href="#ArialMT-64" x="155.615234"/>
      <use xlink:href="#ArialMT-2e" x="211.230469"/>
     </g>
    </g>
    <g id="line2d_19">
     <path d="M 325.405781 51.419062 
L 336.405781 51.419062 
L 347.405781 51.419062 
" style="fill: none; stroke: #dd8452; stroke-width: 1.5; stroke-linecap: round"/>
    </g>
    <g id="text_20">
     <!-- Truth -->
     <g style="fill: #262626" transform="translate(356.205781 55.269062)scale(0.11 -0.11)">
      <defs>
       <path id="ArialMT-54" d="M 1659 0 
L 1659 4041 
L 150 4041 
L 150 4581 
L 3781 4581 
L 3781 4041 
L 2266 4041 
L 2266 0 
L 1659 0 
z
" transform="scale(0.015625)"/>
       <path id="ArialMT-75" d="M 2597 0 
L 2597 488 
Q 2209 -75 1544 -75 
Q 1250 -75 995 37 
Q 741 150 617 320 
Q 494 491 444 738 
Q 409 903 409 1263 
L 409 3319 
L 972 3319 
L 972 1478 
Q 972 1038 1006 884 
Q 1059 663 1231 536 
Q 1403 409 1656 409 
Q 1909 409 2131 539 
Q 2353 669 2445 892 
Q 2538 1116 2538 1541 
L 2538 3319 
L 3100 3319 
L 3100 0 
L 2597 0 
z
" transform="scale(0.015625)"/>
       <path id="ArialMT-68" d="M 422 0 
L 422 4581 
L 984 4581 
L 984 2938 
Q 1378 3394 1978 3394 
Q 2347 3394 2619 3248 
Q 2891 3103 3008 2847 
Q 3125 2591 3125 2103 
L 3125 0 
L 2563 0 
L 2563 2103 
Q 2563 2525 2380 2717 
Q 2197 2909 1863 2909 
Q 1613 2909 1392 2779 
Q 1172 2650 1078 2428 
Q 984 2206 984 1816 
L 984 0 
L 422 0 
z
" transform="scale(0.015625)"/>
      </defs>
      <use xlink:href="#ArialMT-54"/>
      <use xlink:href="#ArialMT-72" x="57.333984"/>
      <use xlink:href="#ArialMT-75" x="90.634766"/>
      <use xlink:href="#ArialMT-74" x="146.25"/>
      <use xlink:href="#ArialMT-68" x="174.033203"/>
     </g>
    </g>
   </g>
  </g>
 </g>
 <defs>
  <clipPath id="pfc2c174669">
   <rect x="57.595781" y="21.935625" width="334.8" height="217.44"/>
  </clipPath>
 </defs>
</svg>
