<?xml version="1.0" encoding="utf-8" standalone="no"?>
<!DOCTYPE svg PUBLIC "-//W3C//DTD SVG 1.1//EN"
  "http://www.w3.org/Graphics/SVG/1.1/DTD/svg11.dtd">
<svg xmlns:xlink="http://www.w3.org/1999/xlink" width="377.304688pt" height="248.518125pt" viewBox="0 0 377.304688 248.518125" xmlns="http://www.w3.org/2000/svg" version="1.1">
 <metadata>
  <rdf:RDF xmlns:dc="http://purl.org/dc/elements/1.1/" xmlns:cc="http://creativecommons.org/ns#" xmlns:rdf="http://www.w3.org/1999/02/22-rdf-syntax-ns#">
   <cc:Work>
    <dc:type rdf:resource="http://purl.org/dc/dcmitype/StillImage"/>
    <dc:date>2022-05-23T08:25:19.552387</dc:date>
    <dc:format>image/svg+xml</dc:format>
    <dc:creator>
     <cc:Agent>
      <dc:title>Matplotlib v3.5.0, https://matplotlib.org/</dc:title>
     </cc:Agent>
    </dc:creator>
   </cc:Work>
  </rdf:RDF>
 </metadata>
 <defs>
  <style type="text/css">*{stroke-linejoin: round; stroke-linecap: butt}</style>
 </defs>
 <g id="figure_1">
  <g id="patch_1">
   <path d="M 0 248.518125 
L 377.304688 248.518125 
L 377.304688 0 
L 0 0 
L 0 248.518125 
z
" style="fill: none"/>
  </g>
  <g id="axes_1">
   <g id="patch_2">
    <path d="M 35.304688 224.64 
L 370.104688 224.64 
L 370.104688 7.2 
L 35.304688 7.2 
z
" style="fill: #ffffff"/>
   </g>
   <g id="matplotlib.axis_1">
    <g id="xtick_1">
     <g id="line2d_1">
      <defs>
       <path id="mf8a5bffc64" d="M 0 0 
L 0 3.5 
" style="stroke: #000000; stroke-width: 0.8"/>
      </defs>
      <g>
       <use xlink:href="#mf8a5bffc64" x="50.522869" y="224.64" style="stroke: #000000; stroke-width: 0.8"/>
      </g>
     </g>
     <g id="text_1">
      <!-- 0 -->
      <g transform="translate(47.341619 239.238437)scale(0.1 -0.1)">
       <defs>
        <path id="DejaVuSans-30" d="M 2034 4250 
Q 1547 4250 1301 3770 
Q 1056 3291 1056 2328 
Q 1056 1369 1301 889 
Q 1547 409 2034 409 
Q 2525 409 2770 889 
Q 3016 1369 3016 2328 
Q 3016 3291 2770 3770 
Q 2525 4250 2034 4250 
z
M 2034 4750 
Q 2819 4750 3233 4129 
Q 3647 3509 3647 2328 
Q 3647 1150 3233 529 
Q 2819 -91 2034 -91 
Q 1250 -91 836 529 
Q 422 1150 422 2328 
Q 422 3509 836 4129 
Q 1250 4750 2034 4750 
z
" transform="scale(0.015625)"/>
       </defs>
       <use xlink:href="#DejaVuSans-30"/>
      </g>
     </g>
    </g>
    <g id="xtick_2">
     <g id="line2d_2">
      <g>
       <use xlink:href="#mf8a5bffc64" x="92.795597" y="224.64" style="stroke: #000000; stroke-width: 0.8"/>
      </g>
     </g>
     <g id="text_2">
      <!-- 50 -->
      <g transform="translate(86.433097 239.238437)scale(0.1 -0.1)">
       <defs>
        <path id="DejaVuSans-35" d="M 691 4666 
L 3169 4666 
L 3169 4134 
L 1269 4134 
L 1269 2991 
Q 1406 3038 1543 3061 
Q 1681 3084 1819 3084 
Q 2600 3084 3056 2656 
Q 3513 2228 3513 1497 
Q 3513 744 3044 326 
Q 2575 -91 1722 -91 
Q 1428 -91 1123 -41 
Q 819 9 494 109 
L 494 744 
Q 775 591 1075 516 
Q 1375 441 1709 441 
Q 2250 441 2565 725 
Q 2881 1009 2881 1497 
Q 2881 1984 2565 2268 
Q 2250 2553 1709 2553 
Q 1456 2553 1204 2497 
Q 953 2441 691 2322 
L 691 4666 
z
" transform="scale(0.015625)"/>
       </defs>
       <use xlink:href="#DejaVuSans-35"/>
       <use xlink:href="#DejaVuSans-30" x="63.623047"/>
      </g>
     </g>
    </g>
    <g id="xtick_3">
     <g id="line2d_3">
      <g>
       <use xlink:href="#mf8a5bffc64" x="135.068324" y="224.64" style="stroke: #000000; stroke-width: 0.8"/>
      </g>
     </g>
     <g id="text_3">
      <!-- 100 -->
      <g transform="translate(125.524574 239.238437)scale(0.1 -0.1)">
       <defs>
        <path id="DejaVuSans-31" d="M 794 531 
L 1825 531 
L 1825 4091 
L 703 3866 
L 703 4441 
L 1819 4666 
L 2450 4666 
L 2450 531 
L 3481 531 
L 3481 0 
L 794 0 
L 794 531 
z
" transform="scale(0.015625)"/>
       </defs>
       <use xlink:href="#DejaVuSans-31"/>
       <use xlink:href="#DejaVuSans-30" x="63.623047"/>
       <use xlink:href="#DejaVuSans-30" x="127.246094"/>
      </g>
     </g>
    </g>
    <g id="xtick_4">
     <g id="line2d_4">
      <g>
       <use xlink:href="#mf8a5bffc64" x="177.341051" y="224.64" style="stroke: #000000; stroke-width: 0.8"/>
      </g>
     </g>
     <g id="text_4">
      <!-- 150 -->
      <g transform="translate(167.797301 239.238437)scale(0.1 -0.1)">
       <use xlink:href="#DejaVuSans-31"/>
       <use xlink:href="#DejaVuSans-35" x="63.623047"/>
       <use xlink:href="#DejaVuSans-30" x="127.246094"/>
      </g>
     </g>
    </g>
    <g id="xtick_5">
     <g id="line2d_5">
      <g>
       <use xlink:href="#mf8a5bffc64" x="219.613778" y="224.64" style="stroke: #000000; stroke-width: 0.8"/>
      </g>
     </g>
     <g id="text_5">
      <!-- 200 -->
      <g transform="translate(210.070028 239.238437)scale(0.1 -0.1)">
       <defs>
        <path id="DejaVuSans-32" d="M 1228 531 
L 3431 531 
L 3431 0 
L 469 0 
L 469 531 
Q 828 903 1448 1529 
Q 2069 2156 2228 2338 
Q 2531 2678 2651 2914 
Q 2772 3150 2772 3378 
Q 2772 3750 2511 3984 
Q 2250 4219 1831 4219 
Q 1534 4219 1204 4116 
Q 875 4013 500 3803 
L 500 4441 
Q 881 4594 1212 4672 
Q 1544 4750 1819 4750 
Q 2544 4750 2975 4387 
Q 3406 4025 3406 3419 
Q 3406 3131 3298 2873 
Q 3191 2616 2906 2266 
Q 2828 2175 2409 1742 
Q 1991 1309 1228 531 
z
" transform="scale(0.015625)"/>
       </defs>
       <use xlink:href="#DejaVuSans-32"/>
       <use xlink:href="#DejaVuSans-30" x="63.623047"/>
       <use xlink:href="#DejaVuSans-30" x="127.246094"/>
      </g>
     </g>
    </g>
    <g id="xtick_6">
     <g id="line2d_6">
      <g>
       <use xlink:href="#mf8a5bffc64" x="261.886506" y="224.64" style="stroke: #000000; stroke-width: 0.8"/>
      </g>
     </g>
     <g id="text_6">
      <!-- 250 -->
      <g transform="translate(252.342756 239.238437)scale(0.1 -0.1)">
       <use xlink:href="#DejaVuSans-32"/>
       <use xlink:href="#DejaVuSans-35" x="63.623047"/>
       <use xlink:href="#DejaVuSans-30" x="127.246094"/>
      </g>
     </g>
    </g>
    <g id="xtick_7">
     <g id="line2d_7">
      <g>
       <use xlink:href="#mf8a5bffc64" x="304.159233" y="224.64" style="stroke: #000000; stroke-width: 0.8"/>
      </g>
     </g>
     <g id="text_7">
      <!-- 300 -->
      <g transform="translate(294.615483 239.238437)scale(0.1 -0.1)">
       <defs>
        <path id="DejaVuSans-33" d="M 2597 2516 
Q 3050 2419 3304 2112 
Q 3559 1806 3559 1356 
Q 3559 666 3084 287 
Q 2609 -91 1734 -91 
Q 1441 -91 1130 -33 
Q 819 25 488 141 
L 488 750 
Q 750 597 1062 519 
Q 1375 441 1716 441 
Q 2309 441 2620 675 
Q 2931 909 2931 1356 
Q 2931 1769 2642 2001 
Q 2353 2234 1838 2234 
L 1294 2234 
L 1294 2753 
L 1863 2753 
Q 2328 2753 2575 2939 
Q 2822 3125 2822 3475 
Q 2822 3834 2567 4026 
Q 2313 4219 1838 4219 
Q 1578 4219 1281 4162 
Q 984 4106 628 3988 
L 628 4550 
Q 988 4650 1302 4700 
Q 1616 4750 1894 4750 
Q 2613 4750 3031 4423 
Q 3450 4097 3450 3541 
Q 3450 3153 3228 2886 
Q 3006 2619 2597 2516 
z
" transform="scale(0.015625)"/>
       </defs>
       <use xlink:href="#DejaVuSans-33"/>
       <use xlink:href="#DejaVuSans-30" x="63.623047"/>
       <use xlink:href="#DejaVuSans-30" x="127.246094"/>
      </g>
     </g>
    </g>
    <g id="xtick_8">
     <g id="line2d_8">
      <g>
       <use xlink:href="#mf8a5bffc64" x="346.43196" y="224.64" style="stroke: #000000; stroke-width: 0.8"/>
      </g>
     </g>
     <g id="text_8">
      <!-- 350 -->
      <g transform="translate(336.88821 239.238437)scale(0.1 -0.1)">
       <use xlink:href="#DejaVuSans-33"/>
       <use xlink:href="#DejaVuSans-35" x="63.623047"/>
       <use xlink:href="#DejaVuSans-30" x="127.246094"/>
      </g>
     </g>
    </g>
   </g>
   <g id="matplotlib.axis_2">
    <g id="ytick_1">
     <g id="line2d_9">
      <defs>
       <path id="m307344b1c3" d="M 0 0 
L -3.5 0 
" style="stroke: #000000; stroke-width: 0.8"/>
      </defs>
      <g>
       <use xlink:href="#m307344b1c3" x="35.304688" y="201.348741" style="stroke: #000000; stroke-width: 0.8"/>
      </g>
     </g>
     <g id="text_9">
      <!-- −50 -->
      <g transform="translate(7.2 205.147959)scale(0.1 -0.1)">
       <defs>
        <path id="DejaVuSans-2212" d="M 678 2272 
L 4684 2272 
L 4684 1741 
L 678 1741 
L 678 2272 
z
" transform="scale(0.015625)"/>
       </defs>
       <use xlink:href="#DejaVuSans-2212"/>
       <use xlink:href="#DejaVuSans-35" x="83.789062"/>
       <use xlink:href="#DejaVuSans-30" x="147.412109"/>
      </g>
     </g>
    </g>
    <g id="ytick_2">
     <g id="line2d_10">
      <g>
       <use xlink:href="#m307344b1c3" x="35.304688" y="176.199588" style="stroke: #000000; stroke-width: 0.8"/>
      </g>
     </g>
     <g id="text_10">
      <!-- −40 -->
      <g transform="translate(7.2 179.998807)scale(0.1 -0.1)">
       <defs>
        <path id="DejaVuSans-34" d="M 2419 4116 
L 825 1625 
L 2419 1625 
L 2419 4116 
z
M 2253 4666 
L 3047 4666 
L 3047 1625 
L 3713 1625 
L 3713 1100 
L 3047 1100 
L 3047 0 
L 2419 0 
L 2419 1100 
L 313 1100 
L 313 1709 
L 2253 4666 
z
" transform="scale(0.015625)"/>
       </defs>
       <use xlink:href="#DejaVuSans-2212"/>
       <use xlink:href="#DejaVuSans-34" x="83.789062"/>
       <use xlink:href="#DejaVuSans-30" x="147.412109"/>
      </g>
     </g>
    </g>
    <g id="ytick_3">
     <g id="line2d_11">
      <g>
       <use xlink:href="#m307344b1c3" x="35.304688" y="151.050435" style="stroke: #000000; stroke-width: 0.8"/>
      </g>
     </g>
     <g id="text_11">
      <!-- −30 -->
      <g transform="translate(7.2 154.849654)scale(0.1 -0.1)">
       <use xlink:href="#DejaVuSans-2212"/>
       <use xlink:href="#DejaVuSans-33" x="83.789062"/>
       <use xlink:href="#DejaVuSans-30" x="147.412109"/>
      </g>
     </g>
    </g>
    <g id="ytick_4">
     <g id="line2d_12">
      <g>
       <use xlink:href="#m307344b1c3" x="35.304688" y="125.901282" style="stroke: #000000; stroke-width: 0.8"/>
      </g>
     </g>
     <g id="text_12">
      <!-- −20 -->
      <g transform="translate(7.2 129.700501)scale(0.1 -0.1)">
       <use xlink:href="#DejaVuSans-2212"/>
       <use xlink:href="#DejaVuSans-32" x="83.789062"/>
       <use xlink:href="#DejaVuSans-30" x="147.412109"/>
      </g>
     </g>
    </g>
    <g id="ytick_5">
     <g id="line2d_13">
      <g>
       <use xlink:href="#m307344b1c3" x="35.304688" y="100.75213" style="stroke: #000000; stroke-width: 0.8"/>
      </g>
     </g>
     <g id="text_13">
      <!-- −10 -->
      <g transform="translate(7.2 104.551348)scale(0.1 -0.1)">
       <use xlink:href="#DejaVuSans-2212"/>
       <use xlink:href="#DejaVuSans-31" x="83.789062"/>
       <use xlink:href="#DejaVuSans-30" x="147.412109"/>
      </g>
     </g>
    </g>
    <g id="ytick_6">
     <g id="line2d_14">
      <g>
       <use xlink:href="#m307344b1c3" x="35.304688" y="75.602977" style="stroke: #000000; stroke-width: 0.8"/>
      </g>
     </g>
     <g id="text_14">
      <!-- 0 -->
      <g transform="translate(21.942188 79.402196)scale(0.1 -0.1)">
       <use xlink:href="#DejaVuSans-30"/>
      </g>
     </g>
    </g>
    <g id="ytick_7">
     <g id="line2d_15">
      <g>
       <use xlink:href="#m307344b1c3" x="35.304688" y="50.453824" style="stroke: #000000; stroke-width: 0.8"/>
      </g>
     </g>
     <g id="text_15">
      <!-- 10 -->
      <g transform="translate(15.579688 54.253043)scale(0.1 -0.1)">
       <use xlink:href="#DejaVuSans-31"/>
       <use xlink:href="#DejaVuSans-30" x="63.623047"/>
      </g>
     </g>
    </g>
    <g id="ytick_8">
     <g id="line2d_16">
      <g>
       <use xlink:href="#m307344b1c3" x="35.304688" y="25.304671" style="stroke: #000000; stroke-width: 0.8"/>
      </g>
     </g>
     <g id="text_16">
      <!-- 20 -->
      <g transform="translate(15.579688 29.10389)scale(0.1 -0.1)">
       <use xlink:href="#DejaVuSans-32"/>
       <use xlink:href="#DejaVuSans-30" x="63.623047"/>
      </g>
     </g>
    </g>
   </g>
   <g id="line2d_17">
    <path d="M 50.522869 148.260216 
L 51.368324 149.88622 
L 52.213778 151.763035 
L 53.059233 146.909786 
L 53.904688 139.287349 
L 54.750142 134.050683 
L 55.595597 131.927728 
L 56.441051 132.959351 
L 57.286506 137.578675 
L 58.13196 147.198808 
L 58.977415 163.085041 
L 59.822869 157.723622 
L 60.668324 146.406164 
L 61.513778 141.666563 
L 62.359233 141.498207 
L 63.204688 145.476657 
L 64.050142 154.868317 
L 64.895597 174.907228 
L 65.741051 172.01285 
L 66.586506 156.234695 
L 67.43196 150.064405 
L 68.277415 149.24568 
L 69.122869 153.317386 
L 69.968324 164.649926 
L 70.813778 188.195637 
L 71.659233 166.146019 
L 72.504688 154.658071 
L 73.350142 151.37254 
L 74.195597 154.236371 
L 75.041051 165.163429 
L 75.886506 182.956904 
L 76.73196 163.608515 
L 77.577415 154.175221 
L 78.422869 152.917559 
L 79.268324 159.077715 
L 80.113778 176.477639 
L 80.959233 171.47101 
L 81.804688 157.500517 
L 82.650142 153.990276 
L 83.495597 158.584727 
L 84.341051 175.217275 
L 85.186506 176.156723 
L 86.03196 159.479389 
L 86.877415 155.420384 
L 87.722869 160.562495 
L 88.568324 181.973891 
L 89.413778 175.891229 
L 90.259233 159.242346 
L 91.104688 156.603971 
L 91.950142 164.842168 
L 92.795597 214.756364 
L 93.641051 168.387883 
L 94.486506 157.081816 
L 95.33196 158.190221 
L 96.177415 173.407129 
L 97.022869 180.385179 
L 97.868324 159.152943 
L 98.713778 155.039129 
L 99.559233 161.885143 
L 100.404688 175.571129 
L 101.250142 160.215301 
L 102.095597 152.868631 
L 102.941051 155.388211 
L 103.786506 164.28299 
L 104.63196 158.392766 
L 105.477415 150.613038 
L 106.322869 150.802473 
L 107.168324 156.421069 
L 108.013778 154.6234 
L 108.859233 148.209106 
L 109.704688 147.40037 
L 110.550142 151.240198 
L 111.395597 151.095184 
L 112.241051 146.366056 
L 113.086506 145.435899 
L 113.93196 148.6273 
L 114.777415 149.604973 
L 115.622869 146.432509 
L 116.468324 146.014003 
L 117.313778 149.703139 
L 118.159233 152.506808 
L 119.004688 151.133388 
L 119.850142 152.060761 
L 120.695597 158.36302 
L 121.541051 167.262706 
L 122.386506 170.821104 
L 123.23196 171.648808 
L 124.077415 166.859225 
L 124.922869 160.016972 
L 125.768324 154.681082 
L 127.459233 140.296193 
L 128.304688 135.695725 
L 129.995597 130.180977 
L 130.841051 126.977895 
L 131.686506 124.842388 
L 132.53196 124.065595 
L 134.222869 123.108163 
L 135.068324 123.494776 
L 135.913778 125.564968 
L 136.759233 128.902536 
L 137.604688 133.044046 
L 138.450142 139.638067 
L 139.295597 151.001438 
L 140.141051 149.372301 
L 140.986506 136.471966 
L 141.83196 127.66486 
L 142.677415 120.993305 
L 143.522869 115.797181 
L 144.368324 112.303854 
L 145.213778 110.383056 
L 146.059233 109.555997 
L 146.904688 109.612765 
L 147.750142 110.918638 
L 148.595597 113.911244 
L 149.441051 118.146864 
L 150.286506 121.061538 
L 151.13196 119.258966 
L 153.668324 102.84135 
L 154.513778 99.598031 
L 155.359233 97.869866 
L 156.204688 97.365045 
L 157.050142 97.890883 
L 157.895597 99.305222 
L 158.741051 100.937582 
L 159.586506 101.047702 
L 160.43196 98.513251 
L 162.122869 91.078939 
L 162.968324 88.293631 
L 163.813778 86.422925 
L 164.659233 85.470546 
L 165.504688 85.303983 
L 166.350142 85.517117 
L 167.195597 85.456863 
L 168.041051 84.603748 
L 168.886506 82.949866 
L 170.577415 78.510972 
L 172.268324 74.201339 
L 173.113778 72.532321 
L 173.959233 71.310994 
L 174.804688 70.517607 
L 176.495597 69.422717 
L 177.341051 68.302354 
L 178.186506 66.358876 
L 179.877415 61.448154 
L 180.722869 59.678153 
L 181.568324 58.801561 
L 183.259233 58.451944 
L 184.104688 57.01084 
L 184.950142 53.920584 
L 185.795597 50.181057 
L 186.641051 46.964666 
L 187.486506 44.874767 
L 188.33196 44.047697 
L 190.022869 44.455762 
L 190.868324 43.311846 
L 191.713778 40.220551 
L 192.559233 36.376868 
L 193.404688 33.14101 
L 194.250142 31.198061 
L 195.095597 30.807262 
L 195.941051 31.997498 
L 196.786506 34.327567 
L 197.63196 35.952522 
L 198.477415 33.959332 
L 200.168324 23.916557 
L 201.013778 20.128542 
L 201.859233 17.862792 
L 202.704688 17.113366 
L 203.550142 17.862792 
L 204.395597 20.128542 
L 205.241051 23.916557 
L 206.93196 33.959332 
L 207.777415 35.952522 
L 208.622869 34.327567 
L 209.468324 31.997498 
L 210.313778 30.807262 
L 211.159233 31.198061 
L 212.004688 33.14101 
L 212.850142 36.376868 
L 213.695597 40.220551 
L 214.541051 43.311846 
L 215.386506 44.455762 
L 217.077415 44.047697 
L 217.922869 44.874767 
L 218.768324 46.964666 
L 219.613778 50.181057 
L 220.459233 53.920584 
L 221.304688 57.01084 
L 222.150142 58.451944 
L 223.841051 58.801561 
L 224.686506 59.678153 
L 225.53196 61.448154 
L 227.222869 66.358876 
L 228.068324 68.302354 
L 228.913778 69.422717 
L 230.604688 70.517607 
L 231.450142 71.310994 
L 232.295597 72.532321 
L 233.141051 74.201339 
L 234.83196 78.510972 
L 236.522869 82.949866 
L 237.368324 84.603748 
L 238.213778 85.456863 
L 239.059233 85.517117 
L 239.904688 85.303983 
L 240.750142 85.470546 
L 241.595597 86.422925 
L 242.441051 88.293631 
L 243.286506 91.078939 
L 244.977415 98.513251 
L 245.822869 101.047702 
L 246.668324 100.937582 
L 248.359233 97.890883 
L 249.204688 97.365045 
L 250.050142 97.869866 
L 250.895597 99.598031 
L 251.741051 102.84135 
L 252.586506 107.718521 
L 254.277415 119.258966 
L 255.122869 121.061538 
L 255.968324 118.146864 
L 256.813778 113.911244 
L 257.659233 110.918638 
L 258.504688 109.612765 
L 259.350142 109.555997 
L 260.195597 110.383056 
L 261.041051 112.303854 
L 261.886506 115.797181 
L 262.73196 120.993305 
L 263.577415 127.66486 
L 264.422869 136.471966 
L 265.268324 149.372301 
L 266.113778 151.001438 
L 266.959233 139.638067 
L 267.804688 133.044046 
L 268.650142 128.902536 
L 269.495597 125.564968 
L 270.341051 123.494776 
L 271.186506 123.108163 
L 272.877415 124.065595 
L 273.722869 124.842388 
L 274.568324 126.977895 
L 276.259233 133.014956 
L 277.104688 135.695725 
L 277.950142 140.296193 
L 279.641051 154.681082 
L 280.486506 160.016972 
L 281.33196 166.859225 
L 282.177415 171.648808 
L 283.022869 170.821104 
L 283.868324 167.262706 
L 284.713778 158.36302 
L 285.559233 152.060761 
L 286.404688 151.133388 
L 287.250142 152.506808 
L 288.095597 149.703139 
L 288.941051 146.014003 
L 289.786506 146.432509 
L 290.63196 149.604973 
L 291.477415 148.6273 
L 292.322869 145.435899 
L 293.168324 146.366056 
L 294.013778 151.095184 
L 294.859233 151.240198 
L 295.704688 147.40037 
L 296.550142 148.209106 
L 297.395597 154.6234 
L 298.241051 156.421069 
L 299.086506 150.802473 
L 299.93196 150.613038 
L 300.777415 158.392766 
L 301.622869 164.28299 
L 302.468324 155.388211 
L 303.313778 152.868631 
L 304.159233 160.215301 
L 305.004688 175.571129 
L 305.850142 161.885143 
L 306.695597 155.039129 
L 307.541051 159.152943 
L 308.386506 180.385179 
L 309.23196 173.407129 
L 310.077415 158.190221 
L 310.922869 157.081816 
L 311.768324 168.387883 
L 312.613778 214.756364 
L 313.459233 164.842168 
L 314.304688 156.603971 
L 315.150142 159.242346 
L 315.995597 175.891229 
L 316.841051 181.973891 
L 317.686506 160.562495 
L 318.53196 155.420384 
L 319.377415 159.479389 
L 320.222869 176.156723 
L 321.068324 175.217275 
L 321.913778 158.584727 
L 322.759233 153.990276 
L 323.604688 157.500517 
L 324.450142 171.47101 
L 325.295597 176.477639 
L 326.141051 159.077715 
L 326.986506 152.917559 
L 327.83196 154.175221 
L 328.677415 163.608515 
L 329.522869 182.956904 
L 330.368324 165.163429 
L 331.213778 154.236371 
L 332.059233 151.37254 
L 332.904688 154.658071 
L 333.750142 166.146019 
L 334.595597 188.195637 
L 335.441051 164.649926 
L 336.286506 153.317386 
L 337.13196 149.24568 
L 337.977415 150.064405 
L 338.822869 156.234695 
L 339.668324 172.01285 
L 340.513778 174.907228 
L 341.359233 154.868317 
L 342.204688 145.476657 
L 343.050142 141.498207 
L 343.895597 141.666563 
L 344.741051 146.406164 
L 345.586506 157.723622 
L 346.43196 163.085041 
L 347.277415 147.198808 
L 348.122869 137.578675 
L 348.968324 132.959351 
L 349.813778 131.927728 
L 350.659233 134.050683 
L 351.504688 139.287349 
L 352.350142 146.909786 
L 353.195597 151.763035 
L 354.886506 148.260216 
L 354.886506 148.260216 
" clip-path="url(#p971f0cac04)" style="fill: none; stroke: #1f77b4; stroke-width: 1.5; stroke-linecap: square"/>
   </g>
   <g id="line2d_18">
    <path d="M 50.522869 145.858578 
L 51.368324 148.560272 
L 52.213778 150.340362 
L 53.059233 146.280583 
L 54.750142 133.390798 
L 55.595597 131.686204 
L 56.441051 132.179466 
L 57.286506 137.05553 
L 58.13196 146.90487 
L 58.977415 163.425761 
L 59.822869 157.573938 
L 60.668324 144.412058 
L 61.513778 140.882515 
L 62.359233 140.728244 
L 63.204688 144.56441 
L 64.050142 155.069374 
L 64.895597 173.909826 
L 65.741051 169.929482 
L 66.586506 153.505376 
L 67.43196 149.39546 
L 68.277415 148.708589 
L 69.122869 153.558031 
L 69.968324 165.516714 
L 70.813778 186.897533 
L 71.659233 163.363422 
L 72.504688 154.335533 
L 73.350142 151.110386 
L 74.195597 155.982435 
L 75.041051 167.695814 
L 75.886506 183.352107 
L 76.73196 162.948861 
L 77.577415 153.868418 
L 78.422869 153.374682 
L 79.268324 158.805982 
L 80.113778 178.094725 
L 80.959233 168.26959 
L 81.804688 156.423114 
L 82.650142 153.686873 
L 83.495597 159.565607 
L 84.341051 173.808239 
L 85.186506 173.34217 
L 86.03196 159.766085 
L 86.877415 154.309673 
L 87.722869 161.955469 
L 88.568324 182.655005 
L 89.413778 176.508657 
L 90.259233 160.690873 
L 91.104688 158.129237 
L 91.950142 165.454432 
L 92.795597 205.666531 
L 93.641051 168.374391 
L 94.486506 157.907307 
L 95.33196 157.635903 
L 96.177415 175.814653 
L 97.022869 180.769192 
L 97.868324 159.392892 
L 98.713778 154.713479 
L 99.559233 160.31133 
L 100.404688 175.717239 
L 101.250142 160.954152 
L 102.095597 152.432821 
L 102.941051 155.78965 
L 103.786506 163.119734 
L 104.63196 158.830926 
L 105.477415 150.52809 
L 106.322869 151.299668 
L 107.168324 156.155135 
L 108.013778 154.059999 
L 108.859233 148.246358 
L 109.704688 147.430323 
L 110.550142 149.770135 
L 111.395597 149.837281 
L 112.241051 146.421365 
L 113.086506 145.318149 
L 114.777415 149.508411 
L 115.622869 146.216862 
L 116.468324 146.013827 
L 117.313778 148.147639 
L 118.159233 151.769766 
L 119.004688 150.452795 
L 119.850142 150.932841 
L 120.695597 157.236472 
L 121.541051 166.2147 
L 123.23196 169.709241 
L 124.077415 168.184926 
L 124.922869 163.527809 
L 127.459233 141.158169 
L 128.304688 136.093657 
L 131.686506 124.752358 
L 132.53196 124.448412 
L 133.377415 123.817146 
L 134.222869 123.343157 
L 135.068324 123.519911 
L 135.913778 125.712624 
L 136.759233 129.064229 
L 137.604688 133.139252 
L 138.450142 139.744882 
L 139.295597 152.356446 
L 140.141051 150.058832 
L 140.986506 136.212345 
L 141.83196 127.757791 
L 142.677415 120.917161 
L 143.522869 115.353447 
L 144.368324 112.009648 
L 145.213778 110.243488 
L 146.059233 109.486041 
L 146.904688 109.513258 
L 147.750142 110.578989 
L 148.595597 114.038338 
L 149.441051 118.183367 
L 150.286506 121.102726 
L 151.13196 119.512916 
L 153.668324 102.801475 
L 154.513778 99.545403 
L 155.359233 97.86134 
L 156.204688 97.322777 
L 157.050142 97.895794 
L 157.895597 99.460679 
L 158.741051 101.285462 
L 159.586506 101.355469 
L 160.43196 98.753441 
L 162.122869 90.990346 
L 162.968324 88.110723 
L 163.813778 86.360439 
L 164.659233 85.355119 
L 165.504688 85.270057 
L 166.350142 85.592173 
L 167.195597 85.56287 
L 168.041051 84.695708 
L 168.886506 83.050735 
L 170.577415 78.517585 
L 172.268324 74.217192 
L 173.113778 72.579136 
L 173.959233 71.364713 
L 174.804688 70.608914 
L 176.495597 69.508679 
L 177.341051 68.349452 
L 178.186506 66.415118 
L 179.877415 61.509314 
L 180.722869 59.785242 
L 181.568324 58.915757 
L 183.259233 58.571454 
L 184.104688 57.101427 
L 184.950142 54.008172 
L 185.795597 50.24315 
L 186.641051 47.05261 
L 187.486506 44.982269 
L 188.33196 44.170146 
L 190.022869 44.565874 
L 190.868324 43.416508 
L 191.713778 40.288758 
L 192.559233 36.426617 
L 193.404688 33.185276 
L 194.250142 31.251525 
L 195.095597 30.869362 
L 195.941051 32.059669 
L 196.786506 34.399289 
L 197.63196 36.001271 
L 198.477415 33.948537 
L 200.168324 23.878759 
L 201.013778 20.096375 
L 201.859233 17.836953 
L 202.704688 17.083636 
L 203.550142 17.834574 
L 204.395597 20.091128 
L 205.241051 23.889331 
L 206.93196 33.964659 
L 207.777415 36.001024 
L 208.622869 34.386808 
L 209.468324 32.062461 
L 210.313778 30.872825 
L 211.159233 31.244977 
L 212.004688 33.180053 
L 212.850142 36.426166 
L 213.695597 40.298006 
L 214.541051 43.414644 
L 215.386506 44.578799 
L 217.077415 44.152925 
L 217.922869 44.982454 
L 218.768324 47.062266 
L 219.613778 50.244383 
L 220.459233 54.010127 
L 221.304688 57.113689 
L 222.150142 58.559944 
L 223.841051 58.883443 
L 224.686506 59.73975 
L 225.53196 61.508751 
L 227.222869 66.398256 
L 228.068324 68.359394 
L 228.913778 69.537704 
L 229.759233 70.158873 
L 230.604688 70.617056 
L 231.450142 71.413022 
L 232.295597 72.568407 
L 233.141051 74.251065 
L 233.986506 76.241248 
L 236.522869 83.054148 
L 237.368324 84.821988 
L 238.213778 85.544716 
L 239.059233 85.561881 
L 239.904688 85.24877 
L 240.750142 85.397202 
L 241.595597 86.30396 
L 242.441051 88.090412 
L 243.286506 91.071319 
L 244.977415 98.592856 
L 245.822869 101.369181 
L 246.668324 101.241823 
L 247.513778 99.371607 
L 248.359233 98.061946 
L 249.204688 97.382313 
L 250.050142 97.785726 
L 250.895597 99.466604 
L 251.741051 102.819554 
L 252.586506 107.603865 
L 254.277415 119.485905 
L 255.122869 120.978642 
L 255.968324 118.041529 
L 256.813778 113.707312 
L 257.659233 110.75031 
L 258.504688 109.305316 
L 259.350142 109.528565 
L 260.195597 110.240566 
L 261.041051 112.311015 
L 261.886506 115.795174 
L 262.73196 121.03864 
L 263.577415 127.140872 
L 264.422869 137.158259 
L 265.268324 150.102142 
L 266.113778 151.3707 
L 266.959233 140.309228 
L 267.804688 132.745635 
L 269.495597 125.316181 
L 270.341051 123.556026 
L 271.186506 122.949065 
L 272.03196 123.996441 
L 272.877415 123.997261 
L 273.722869 125.215165 
L 274.568324 127.243236 
L 275.413778 129.927086 
L 277.104688 136.580664 
L 277.950142 140.800542 
L 279.641051 156.33183 
L 280.486506 161.566274 
L 281.33196 168.216231 
L 282.177415 173.338093 
L 283.022869 168.268257 
L 283.868324 165.498985 
L 284.713778 156.2544 
L 285.559233 152.842954 
L 286.404688 151.270888 
L 287.250142 151.571763 
L 288.095597 149.774193 
L 288.941051 145.431776 
L 289.786506 146.215068 
L 290.63196 149.256367 
L 291.477415 149.176322 
L 292.322869 145.713421 
L 293.168324 146.053166 
L 294.013778 150.310089 
L 294.859233 151.749135 
L 295.704688 147.410757 
L 296.550142 148.092313 
L 297.395597 154.878149 
L 298.241051 156.703018 
L 299.086506 150.63173 
L 299.93196 151.225351 
L 300.777415 159.100689 
L 301.622869 162.919668 
L 302.468324 156.348303 
L 303.313778 153.764577 
L 304.159233 160.580259 
L 305.004688 174.636765 
L 305.850142 161.155916 
L 306.695597 155.686888 
L 307.541051 159.948115 
L 308.386506 179.543432 
L 309.23196 175.247199 
L 310.077415 158.983877 
L 310.922869 158.993528 
L 311.768324 170.217071 
L 312.613778 205.54048 
L 313.459233 166.219736 
L 314.304688 157.132122 
L 315.150142 159.195062 
L 315.995597 177.549528 
L 316.841051 180.265517 
L 317.686506 162.325515 
L 318.53196 157.490723 
L 319.377415 159.647047 
L 320.222869 178.057003 
L 321.068324 175.346963 
L 321.913778 159.434394 
L 322.759233 154.268425 
L 323.604688 157.684332 
L 324.450142 172.217834 
L 325.295597 176.282966 
L 326.141051 158.643696 
L 326.986506 153.422319 
L 327.83196 154.923378 
L 328.677415 163.012592 
L 329.522869 181.493119 
L 330.368324 166.483168 
L 331.213778 154.882946 
L 332.059233 151.691703 
L 332.904688 154.029352 
L 333.750142 162.74562 
L 334.595597 183.916636 
L 335.441051 163.566049 
L 336.286506 152.396082 
L 337.13196 148.702325 
L 337.977415 150.740484 
L 338.822869 157.237719 
L 339.668324 170.870618 
L 340.513778 176.161367 
L 341.359233 155.533635 
L 342.204688 145.744773 
L 343.050142 140.7071 
L 343.895597 140.514671 
L 344.741051 145.385055 
L 345.586506 157.483086 
L 346.43196 163.30939 
L 347.277415 147.659352 
L 348.122869 137.342313 
L 348.968324 132.322661 
L 349.813778 131.129126 
L 350.659233 133.708568 
L 351.504688 138.813982 
L 352.350142 146.409987 
L 353.195597 151.60394 
L 354.041051 148.309935 
L 354.886506 147.725255 
L 354.886506 147.725255 
" clip-path="url(#p971f0cac04)" style="fill: none; stroke: #ff7f0e; stroke-width: 1.5; stroke-linecap: square"/>
   </g>
   <g id="patch_3">
    <path d="M 35.304688 224.64 
L 35.304688 7.2 
" style="fill: none; stroke: #000000; stroke-width: 0.8; stroke-linejoin: miter; stroke-linecap: square"/>
   </g>
   <g id="patch_4">
    <path d="M 370.104688 224.64 
L 370.104688 7.2 
" style="fill: none; stroke: #000000; stroke-width: 0.8; stroke-linejoin: miter; stroke-linecap: square"/>
   </g>
   <g id="patch_5">
    <path d="M 35.304688 224.64 
L 370.104688 224.64 
" style="fill: none; stroke: #000000; stroke-width: 0.8; stroke-linejoin: miter; stroke-linecap: square"/>
   </g>
   <g id="patch_6">
    <path d="M 35.304688 7.2 
L 370.104688 7.2 
" style="fill: none; stroke: #000000; stroke-width: 0.8; stroke-linejoin: miter; stroke-linecap: square"/>
   </g>
   <g id="legend_1">
    <g id="patch_7">
     <path d="M 281.43125 44.55625 
L 363.104688 44.55625 
Q 365.104688 44.55625 365.104688 42.55625 
L 365.104688 14.2 
Q 365.104688 12.2 363.104688 12.2 
L 281.43125 12.2 
Q 279.43125 12.2 279.43125 14.2 
L 279.43125 42.55625 
Q 279.43125 44.55625 281.43125 44.55625 
z
" style="fill: #ffffff; opacity: 0.8; stroke: #cccccc; stroke-linejoin: miter"/>
    </g>
    <g id="line2d_19">
     <path d="M 283.43125 20.298437 
L 293.43125 20.298437 
L 303.43125 20.298437 
" style="fill: none; stroke: #1f77b4; stroke-width: 1.5; stroke-linecap: square"/>
    </g>
    <g id="text_17">
     <!-- Truth -->
     <g transform="translate(311.43125 23.798437)scale(0.1 -0.1)">
      <defs>
       <path id="DejaVuSans-54" d="M -19 4666 
L 3928 4666 
L 3928 4134 
L 2272 4134 
L 2272 0 
L 1638 0 
L 1638 4134 
L -19 4134 
L -19 4666 
z
" transform="scale(0.015625)"/>
       <path id="DejaVuSans-72" d="M 2631 2963 
Q 2534 3019 2420 3045 
Q 2306 3072 2169 3072 
Q 1681 3072 1420 2755 
Q 1159 2438 1159 1844 
L 1159 0 
L 581 0 
L 581 3500 
L 1159 3500 
L 1159 2956 
Q 1341 3275 1631 3429 
Q 1922 3584 2338 3584 
Q 2397 3584 2469 3576 
Q 2541 3569 2628 3553 
L 2631 2963 
z
" transform="scale(0.015625)"/>
       <path id="DejaVuSans-75" d="M 544 1381 
L 544 3500 
L 1119 3500 
L 1119 1403 
Q 1119 906 1312 657 
Q 1506 409 1894 409 
Q 2359 409 2629 706 
Q 2900 1003 2900 1516 
L 2900 3500 
L 3475 3500 
L 3475 0 
L 2900 0 
L 2900 538 
Q 2691 219 2414 64 
Q 2138 -91 1772 -91 
Q 1169 -91 856 284 
Q 544 659 544 1381 
z
M 1991 3584 
L 1991 3584 
z
" transform="scale(0.015625)"/>
       <path id="DejaVuSans-74" d="M 1172 4494 
L 1172 3500 
L 2356 3500 
L 2356 3053 
L 1172 3053 
L 1172 1153 
Q 1172 725 1289 603 
Q 1406 481 1766 481 
L 2356 481 
L 2356 0 
L 1766 0 
Q 1100 0 847 248 
Q 594 497 594 1153 
L 594 3053 
L 172 3053 
L 172 3500 
L 594 3500 
L 594 4494 
L 1172 4494 
z
" transform="scale(0.015625)"/>
       <path id="DejaVuSans-68" d="M 3513 2113 
L 3513 0 
L 2938 0 
L 2938 2094 
Q 2938 2591 2744 2837 
Q 2550 3084 2163 3084 
Q 1697 3084 1428 2787 
Q 1159 2491 1159 1978 
L 1159 0 
L 581 0 
L 581 4863 
L 1159 4863 
L 1159 2956 
Q 1366 3272 1645 3428 
Q 1925 3584 2291 3584 
Q 2894 3584 3203 3211 
Q 3513 2838 3513 2113 
z
" transform="scale(0.015625)"/>
      </defs>
      <use xlink:href="#DejaVuSans-54"/>
      <use xlink:href="#DejaVuSans-72" x="46.333984"/>
      <use xlink:href="#DejaVuSans-75" x="87.447266"/>
      <use xlink:href="#DejaVuSans-74" x="150.826172"/>
      <use xlink:href="#DejaVuSans-68" x="190.035156"/>
     </g>
    </g>
    <g id="line2d_20">
     <path d="M 283.43125 34.976562 
L 293.43125 34.976562 
L 303.43125 34.976562 
" style="fill: none; stroke: #ff7f0e; stroke-width: 1.5; stroke-linecap: square"/>
    </g>
    <g id="text_18">
     <!-- Prediction -->
     <g transform="translate(311.43125 38.476562)scale(0.1 -0.1)">
      <defs>
       <path id="DejaVuSans-50" d="M 1259 4147 
L 1259 2394 
L 2053 2394 
Q 2494 2394 2734 2622 
Q 2975 2850 2975 3272 
Q 2975 3691 2734 3919 
Q 2494 4147 2053 4147 
L 1259 4147 
z
M 628 4666 
L 2053 4666 
Q 2838 4666 3239 4311 
Q 3641 3956 3641 3272 
Q 3641 2581 3239 2228 
Q 2838 1875 2053 1875 
L 1259 1875 
L 1259 0 
L 628 0 
L 628 4666 
z
" transform="scale(0.015625)"/>
       <path id="DejaVuSans-65" d="M 3597 1894 
L 3597 1613 
L 953 1613 
Q 991 1019 1311 708 
Q 1631 397 2203 397 
Q 2534 397 2845 478 
Q 3156 559 3463 722 
L 3463 178 
Q 3153 47 2828 -22 
Q 2503 -91 2169 -91 
Q 1331 -91 842 396 
Q 353 884 353 1716 
Q 353 2575 817 3079 
Q 1281 3584 2069 3584 
Q 2775 3584 3186 3129 
Q 3597 2675 3597 1894 
z
M 3022 2063 
Q 3016 2534 2758 2815 
Q 2500 3097 2075 3097 
Q 1594 3097 1305 2825 
Q 1016 2553 972 2059 
L 3022 2063 
z
" transform="scale(0.015625)"/>
       <path id="DejaVuSans-64" d="M 2906 2969 
L 2906 4863 
L 3481 4863 
L 3481 0 
L 2906 0 
L 2906 525 
Q 2725 213 2448 61 
Q 2172 -91 1784 -91 
Q 1150 -91 751 415 
Q 353 922 353 1747 
Q 353 2572 751 3078 
Q 1150 3584 1784 3584 
Q 2172 3584 2448 3432 
Q 2725 3281 2906 2969 
z
M 947 1747 
Q 947 1113 1208 752 
Q 1469 391 1925 391 
Q 2381 391 2643 752 
Q 2906 1113 2906 1747 
Q 2906 2381 2643 2742 
Q 2381 3103 1925 3103 
Q 1469 3103 1208 2742 
Q 947 2381 947 1747 
z
" transform="scale(0.015625)"/>
       <path id="DejaVuSans-69" d="M 603 3500 
L 1178 3500 
L 1178 0 
L 603 0 
L 603 3500 
z
M 603 4863 
L 1178 4863 
L 1178 4134 
L 603 4134 
L 603 4863 
z
" transform="scale(0.015625)"/>
       <path id="DejaVuSans-63" d="M 3122 3366 
L 3122 2828 
Q 2878 2963 2633 3030 
Q 2388 3097 2138 3097 
Q 1578 3097 1268 2742 
Q 959 2388 959 1747 
Q 959 1106 1268 751 
Q 1578 397 2138 397 
Q 2388 397 2633 464 
Q 2878 531 3122 666 
L 3122 134 
Q 2881 22 2623 -34 
Q 2366 -91 2075 -91 
Q 1284 -91 818 406 
Q 353 903 353 1747 
Q 353 2603 823 3093 
Q 1294 3584 2113 3584 
Q 2378 3584 2631 3529 
Q 2884 3475 3122 3366 
z
" transform="scale(0.015625)"/>
       <path id="DejaVuSans-6f" d="M 1959 3097 
Q 1497 3097 1228 2736 
Q 959 2375 959 1747 
Q 959 1119 1226 758 
Q 1494 397 1959 397 
Q 2419 397 2687 759 
Q 2956 1122 2956 1747 
Q 2956 2369 2687 2733 
Q 2419 3097 1959 3097 
z
M 1959 3584 
Q 2709 3584 3137 3096 
Q 3566 2609 3566 1747 
Q 3566 888 3137 398 
Q 2709 -91 1959 -91 
Q 1206 -91 779 398 
Q 353 888 353 1747 
Q 353 2609 779 3096 
Q 1206 3584 1959 3584 
z
" transform="scale(0.015625)"/>
       <path id="DejaVuSans-6e" d="M 3513 2113 
L 3513 0 
L 2938 0 
L 2938 2094 
Q 2938 2591 2744 2837 
Q 2550 3084 2163 3084 
Q 1697 3084 1428 2787 
Q 1159 2491 1159 1978 
L 1159 0 
L 581 0 
L 581 3500 
L 1159 3500 
L 1159 2956 
Q 1366 3272 1645 3428 
Q 1925 3584 2291 3584 
Q 2894 3584 3203 3211 
Q 3513 2838 3513 2113 
z
" transform="scale(0.015625)"/>
      </defs>
      <use xlink:href="#DejaVuSans-50"/>
      <use xlink:href="#DejaVuSans-72" x="58.552734"/>
      <use xlink:href="#DejaVuSans-65" x="97.416016"/>
      <use xlink:href="#DejaVuSans-64" x="158.939453"/>
      <use xlink:href="#DejaVuSans-69" x="222.416016"/>
      <use xlink:href="#DejaVuSans-63" x="250.199219"/>
      <use xlink:href="#DejaVuSans-74" x="305.179688"/>
      <use xlink:href="#DejaVuSans-69" x="344.388672"/>
      <use xlink:href="#DejaVuSans-6f" x="372.171875"/>
      <use xlink:href="#DejaVuSans-6e" x="433.353516"/>
     </g>
    </g>
   </g>
  </g>
 </g>
 <defs>
  <clipPath id="p971f0cac04">
   <rect x="35.304688" y="7.2" width="334.8" height="217.44"/>
  </clipPath>
 </defs>
</svg>
