<?xml version="1.0" encoding="utf-8" standalone="no"?>
<!DOCTYPE svg PUBLIC "-//W3C//DTD SVG 1.1//EN"
  "http://www.w3.org/Graphics/SVG/1.1/DTD/svg11.dtd">
<svg xmlns:xlink="http://www.w3.org/1999/xlink" width="377.304688pt" height="248.518125pt" viewBox="0 0 377.304688 248.518125" xmlns="http://www.w3.org/2000/svg" version="1.1">
 <metadata>
  <rdf:RDF xmlns:dc="http://purl.org/dc/elements/1.1/" xmlns:cc="http://creativecommons.org/ns#" xmlns:rdf="http://www.w3.org/1999/02/22-rdf-syntax-ns#">
   <cc:Work>
    <dc:type rdf:resource="http://purl.org/dc/dcmitype/StillImage"/>
    <dc:date>2022-05-16T14:09:40.661804</dc:date>
    <dc:format>image/svg+xml</dc:format>
    <dc:creator>
     <cc:Agent>
      <dc:title>Matplotlib v3.5.1, https://matplotlib.org/</dc:title>
     </cc:Agent>
    </dc:creator>
   </cc:Work>
  </rdf:RDF>
 </metadata>
 <defs>
  <style type="text/css">*{stroke-linejoin: round; stroke-linecap: butt}</style>
 </defs>
 <g id="figure_1">
  <g id="patch_1">
   <path d="M 0 248.518125 
L 377.304688 248.518125 
L 377.304688 0 
L 0 0 
L 0 248.518125 
z
" style="fill: none"/>
  </g>
  <g id="axes_1">
   <g id="patch_2">
    <path d="M 35.304688 224.64 
L 370.104688 224.64 
L 370.104688 7.2 
L 35.304688 7.2 
z
" style="fill: #ffffff"/>
   </g>
   <g id="matplotlib.axis_1">
    <g id="xtick_1">
     <g id="line2d_1">
      <defs>
       <path id="ma07702066b" d="M 0 0 
L 0 3.5 
" style="stroke: #000000; stroke-width: 0.8"/>
      </defs>
      <g>
       <use xlink:href="#ma07702066b" x="50.522869" y="224.64" style="stroke: #000000; stroke-width: 0.8"/>
      </g>
     </g>
     <g id="text_1">
      <!-- 0 -->
      <g transform="translate(47.341619 239.238437)scale(0.1 -0.1)">
       <defs>
        <path id="DejaVuSans-30" d="M 2034 4250 
Q 1547 4250 1301 3770 
Q 1056 3291 1056 2328 
Q 1056 1369 1301 889 
Q 1547 409 2034 409 
Q 2525 409 2770 889 
Q 3016 1369 3016 2328 
Q 3016 3291 2770 3770 
Q 2525 4250 2034 4250 
z
M 2034 4750 
Q 2819 4750 3233 4129 
Q 3647 3509 3647 2328 
Q 3647 1150 3233 529 
Q 2819 -91 2034 -91 
Q 1250 -91 836 529 
Q 422 1150 422 2328 
Q 422 3509 836 4129 
Q 1250 4750 2034 4750 
z
" transform="scale(0.015625)"/>
       </defs>
       <use xlink:href="#DejaVuSans-30"/>
      </g>
     </g>
    </g>
    <g id="xtick_2">
     <g id="line2d_2">
      <g>
       <use xlink:href="#ma07702066b" x="92.795597" y="224.64" style="stroke: #000000; stroke-width: 0.8"/>
      </g>
     </g>
     <g id="text_2">
      <!-- 50 -->
      <g transform="translate(86.433097 239.238437)scale(0.1 -0.1)">
       <defs>
        <path id="DejaVuSans-35" d="M 691 4666 
L 3169 4666 
L 3169 4134 
L 1269 4134 
L 1269 2991 
Q 1406 3038 1543 3061 
Q 1681 3084 1819 3084 
Q 2600 3084 3056 2656 
Q 3513 2228 3513 1497 
Q 3513 744 3044 326 
Q 2575 -91 1722 -91 
Q 1428 -91 1123 -41 
Q 819 9 494 109 
L 494 744 
Q 775 591 1075 516 
Q 1375 441 1709 441 
Q 2250 441 2565 725 
Q 2881 1009 2881 1497 
Q 2881 1984 2565 2268 
Q 2250 2553 1709 2553 
Q 1456 2553 1204 2497 
Q 953 2441 691 2322 
L 691 4666 
z
" transform="scale(0.015625)"/>
       </defs>
       <use xlink:href="#DejaVuSans-35"/>
       <use xlink:href="#DejaVuSans-30" x="63.623047"/>
      </g>
     </g>
    </g>
    <g id="xtick_3">
     <g id="line2d_3">
      <g>
       <use xlink:href="#ma07702066b" x="135.068324" y="224.64" style="stroke: #000000; stroke-width: 0.8"/>
      </g>
     </g>
     <g id="text_3">
      <!-- 100 -->
      <g transform="translate(125.524574 239.238437)scale(0.1 -0.1)">
       <defs>
        <path id="DejaVuSans-31" d="M 794 531 
L 1825 531 
L 1825 4091 
L 703 3866 
L 703 4441 
L 1819 4666 
L 2450 4666 
L 2450 531 
L 3481 531 
L 3481 0 
L 794 0 
L 794 531 
z
" transform="scale(0.015625)"/>
       </defs>
       <use xlink:href="#DejaVuSans-31"/>
       <use xlink:href="#DejaVuSans-30" x="63.623047"/>
       <use xlink:href="#DejaVuSans-30" x="127.246094"/>
      </g>
     </g>
    </g>
    <g id="xtick_4">
     <g id="line2d_4">
      <g>
       <use xlink:href="#ma07702066b" x="177.341051" y="224.64" style="stroke: #000000; stroke-width: 0.8"/>
      </g>
     </g>
     <g id="text_4">
      <!-- 150 -->
      <g transform="translate(167.797301 239.238437)scale(0.1 -0.1)">
       <use xlink:href="#DejaVuSans-31"/>
       <use xlink:href="#DejaVuSans-35" x="63.623047"/>
       <use xlink:href="#DejaVuSans-30" x="127.246094"/>
      </g>
     </g>
    </g>
    <g id="xtick_5">
     <g id="line2d_5">
      <g>
       <use xlink:href="#ma07702066b" x="219.613778" y="224.64" style="stroke: #000000; stroke-width: 0.8"/>
      </g>
     </g>
     <g id="text_5">
      <!-- 200 -->
      <g transform="translate(210.070028 239.238437)scale(0.1 -0.1)">
       <defs>
        <path id="DejaVuSans-32" d="M 1228 531 
L 3431 531 
L 3431 0 
L 469 0 
L 469 531 
Q 828 903 1448 1529 
Q 2069 2156 2228 2338 
Q 2531 2678 2651 2914 
Q 2772 3150 2772 3378 
Q 2772 3750 2511 3984 
Q 2250 4219 1831 4219 
Q 1534 4219 1204 4116 
Q 875 4013 500 3803 
L 500 4441 
Q 881 4594 1212 4672 
Q 1544 4750 1819 4750 
Q 2544 4750 2975 4387 
Q 3406 4025 3406 3419 
Q 3406 3131 3298 2873 
Q 3191 2616 2906 2266 
Q 2828 2175 2409 1742 
Q 1991 1309 1228 531 
z
" transform="scale(0.015625)"/>
       </defs>
       <use xlink:href="#DejaVuSans-32"/>
       <use xlink:href="#DejaVuSans-30" x="63.623047"/>
       <use xlink:href="#DejaVuSans-30" x="127.246094"/>
      </g>
     </g>
    </g>
    <g id="xtick_6">
     <g id="line2d_6">
      <g>
       <use xlink:href="#ma07702066b" x="261.886506" y="224.64" style="stroke: #000000; stroke-width: 0.8"/>
      </g>
     </g>
     <g id="text_6">
      <!-- 250 -->
      <g transform="translate(252.342756 239.238437)scale(0.1 -0.1)">
       <use xlink:href="#DejaVuSans-32"/>
       <use xlink:href="#DejaVuSans-35" x="63.623047"/>
       <use xlink:href="#DejaVuSans-30" x="127.246094"/>
      </g>
     </g>
    </g>
    <g id="xtick_7">
     <g id="line2d_7">
      <g>
       <use xlink:href="#ma07702066b" x="304.159233" y="224.64" style="stroke: #000000; stroke-width: 0.8"/>
      </g>
     </g>
     <g id="text_7">
      <!-- 300 -->
      <g transform="translate(294.615483 239.238437)scale(0.1 -0.1)">
       <defs>
        <path id="DejaVuSans-33" d="M 2597 2516 
Q 3050 2419 3304 2112 
Q 3559 1806 3559 1356 
Q 3559 666 3084 287 
Q 2609 -91 1734 -91 
Q 1441 -91 1130 -33 
Q 819 25 488 141 
L 488 750 
Q 750 597 1062 519 
Q 1375 441 1716 441 
Q 2309 441 2620 675 
Q 2931 909 2931 1356 
Q 2931 1769 2642 2001 
Q 2353 2234 1838 2234 
L 1294 2234 
L 1294 2753 
L 1863 2753 
Q 2328 2753 2575 2939 
Q 2822 3125 2822 3475 
Q 2822 3834 2567 4026 
Q 2313 4219 1838 4219 
Q 1578 4219 1281 4162 
Q 984 4106 628 3988 
L 628 4550 
Q 988 4650 1302 4700 
Q 1616 4750 1894 4750 
Q 2613 4750 3031 4423 
Q 3450 4097 3450 3541 
Q 3450 3153 3228 2886 
Q 3006 2619 2597 2516 
z
" transform="scale(0.015625)"/>
       </defs>
       <use xlink:href="#DejaVuSans-33"/>
       <use xlink:href="#DejaVuSans-30" x="63.623047"/>
       <use xlink:href="#DejaVuSans-30" x="127.246094"/>
      </g>
     </g>
    </g>
    <g id="xtick_8">
     <g id="line2d_8">
      <g>
       <use xlink:href="#ma07702066b" x="346.43196" y="224.64" style="stroke: #000000; stroke-width: 0.8"/>
      </g>
     </g>
     <g id="text_8">
      <!-- 350 -->
      <g transform="translate(336.88821 239.238437)scale(0.1 -0.1)">
       <use xlink:href="#DejaVuSans-33"/>
       <use xlink:href="#DejaVuSans-35" x="63.623047"/>
       <use xlink:href="#DejaVuSans-30" x="127.246094"/>
      </g>
     </g>
    </g>
   </g>
   <g id="matplotlib.axis_2">
    <g id="ytick_1">
     <g id="line2d_9">
      <defs>
       <path id="m07cea40ccf" d="M 0 0 
L -3.5 0 
" style="stroke: #000000; stroke-width: 0.8"/>
      </defs>
      <g>
       <use xlink:href="#m07cea40ccf" x="35.304688" y="196.9964" style="stroke: #000000; stroke-width: 0.8"/>
      </g>
     </g>
     <g id="text_9">
      <!-- −60 -->
      <g transform="translate(7.2 200.795618)scale(0.1 -0.1)">
       <defs>
        <path id="DejaVuSans-2212" d="M 678 2272 
L 4684 2272 
L 4684 1741 
L 678 1741 
L 678 2272 
z
" transform="scale(0.015625)"/>
        <path id="DejaVuSans-36" d="M 2113 2584 
Q 1688 2584 1439 2293 
Q 1191 2003 1191 1497 
Q 1191 994 1439 701 
Q 1688 409 2113 409 
Q 2538 409 2786 701 
Q 3034 994 3034 1497 
Q 3034 2003 2786 2293 
Q 2538 2584 2113 2584 
z
M 3366 4563 
L 3366 3988 
Q 3128 4100 2886 4159 
Q 2644 4219 2406 4219 
Q 1781 4219 1451 3797 
Q 1122 3375 1075 2522 
Q 1259 2794 1537 2939 
Q 1816 3084 2150 3084 
Q 2853 3084 3261 2657 
Q 3669 2231 3669 1497 
Q 3669 778 3244 343 
Q 2819 -91 2113 -91 
Q 1303 -91 875 529 
Q 447 1150 447 2328 
Q 447 3434 972 4092 
Q 1497 4750 2381 4750 
Q 2619 4750 2861 4703 
Q 3103 4656 3366 4563 
z
" transform="scale(0.015625)"/>
       </defs>
       <use xlink:href="#DejaVuSans-2212"/>
       <use xlink:href="#DejaVuSans-36" x="83.789062"/>
       <use xlink:href="#DejaVuSans-30" x="147.412109"/>
      </g>
     </g>
    </g>
    <g id="ytick_2">
     <g id="line2d_10">
      <g>
       <use xlink:href="#m07cea40ccf" x="35.304688" y="155.866927" style="stroke: #000000; stroke-width: 0.8"/>
      </g>
     </g>
     <g id="text_10">
      <!-- −40 -->
      <g transform="translate(7.2 159.666146)scale(0.1 -0.1)">
       <defs>
        <path id="DejaVuSans-34" d="M 2419 4116 
L 825 1625 
L 2419 1625 
L 2419 4116 
z
M 2253 4666 
L 3047 4666 
L 3047 1625 
L 3713 1625 
L 3713 1100 
L 3047 1100 
L 3047 0 
L 2419 0 
L 2419 1100 
L 313 1100 
L 313 1709 
L 2253 4666 
z
" transform="scale(0.015625)"/>
       </defs>
       <use xlink:href="#DejaVuSans-2212"/>
       <use xlink:href="#DejaVuSans-34" x="83.789062"/>
       <use xlink:href="#DejaVuSans-30" x="147.412109"/>
      </g>
     </g>
    </g>
    <g id="ytick_3">
     <g id="line2d_11">
      <g>
       <use xlink:href="#m07cea40ccf" x="35.304688" y="114.737455" style="stroke: #000000; stroke-width: 0.8"/>
      </g>
     </g>
     <g id="text_11">
      <!-- −20 -->
      <g transform="translate(7.2 118.536674)scale(0.1 -0.1)">
       <use xlink:href="#DejaVuSans-2212"/>
       <use xlink:href="#DejaVuSans-32" x="83.789062"/>
       <use xlink:href="#DejaVuSans-30" x="147.412109"/>
      </g>
     </g>
    </g>
    <g id="ytick_4">
     <g id="line2d_12">
      <g>
       <use xlink:href="#m07cea40ccf" x="35.304688" y="73.607983" style="stroke: #000000; stroke-width: 0.8"/>
      </g>
     </g>
     <g id="text_12">
      <!-- 0 -->
      <g transform="translate(21.942188 77.407202)scale(0.1 -0.1)">
       <use xlink:href="#DejaVuSans-30"/>
      </g>
     </g>
    </g>
    <g id="ytick_5">
     <g id="line2d_13">
      <g>
       <use xlink:href="#m07cea40ccf" x="35.304688" y="32.478511" style="stroke: #000000; stroke-width: 0.8"/>
      </g>
     </g>
     <g id="text_13">
      <!-- 20 -->
      <g transform="translate(15.579688 36.277729)scale(0.1 -0.1)">
       <use xlink:href="#DejaVuSans-32"/>
       <use xlink:href="#DejaVuSans-30" x="63.623047"/>
      </g>
     </g>
    </g>
   </g>
   <g id="line2d_14">
    <path d="M 50.522869 163.143898 
L 51.368324 164.538411 
L 52.213778 163.815476 
L 53.904688 149.164459 
L 54.750142 144.90459 
L 55.595597 143.362789 
L 56.441051 144.504073 
L 57.286506 148.825707 
L 58.13196 158.177642 
L 58.977415 177.948229 
L 59.822869 165.315291 
L 60.668324 155.023921 
L 61.513778 151.509425 
L 62.359233 152.097347 
L 63.204688 156.64233 
L 64.050142 167.334183 
L 64.895597 194.324309 
L 65.741051 170.512605 
L 66.586506 160.868405 
L 67.43196 157.660984 
L 68.277415 158.312006 
L 69.122869 162.714118 
L 69.968324 172.075598 
L 70.813778 177.684669 
L 71.659233 166.766791 
L 72.504688 160.322043 
L 73.350142 158.654673 
L 74.195597 161.475644 
L 75.041051 170.091676 
L 75.886506 176.223986 
L 76.73196 164.738038 
L 77.577415 158.772735 
L 78.422869 158.542357 
L 79.268324 164.207426 
L 80.113778 174.999313 
L 81.804688 158.923299 
L 82.650142 157.656397 
L 83.495597 162.635792 
L 84.341051 172.13644 
L 86.03196 158.00015 
L 86.877415 157.544521 
L 88.568324 169.056718 
L 89.413778 161.220717 
L 90.259233 156.748361 
L 91.104688 158.412122 
L 91.950142 164.798017 
L 92.795597 163.876027 
L 93.641051 157.637118 
L 94.486506 156.454958 
L 95.33196 160.435634 
L 96.177415 163.545875 
L 97.022869 158.68315 
L 97.868324 155.843108 
L 98.713778 157.820911 
L 99.559233 161.526611 
L 100.404688 159.143773 
L 101.250142 155.771623 
L 102.095597 156.380484 
L 102.941051 159.569107 
L 103.786506 159.046921 
L 104.63196 155.919759 
L 105.477415 155.660184 
L 106.322869 158.156943 
L 107.168324 158.727896 
L 108.013778 156.188322 
L 108.859233 155.354057 
L 109.704688 157.136378 
L 110.550142 158.248069 
L 111.395597 156.357684 
L 112.241051 155.033302 
L 113.086506 155.946823 
L 113.93196 157.052375 
L 114.777415 155.699352 
L 115.622869 153.903652 
L 116.468324 153.757044 
L 117.313778 154.317456 
L 118.159233 153.305581 
L 119.004688 151.318437 
L 119.850142 150.341757 
L 120.695597 150.292436 
L 121.541051 149.547573 
L 122.386506 147.838711 
L 123.23196 146.618679 
L 124.922869 145.917276 
L 126.613778 143.781279 
L 127.459233 143.585757 
L 128.304688 143.680572 
L 129.995597 142.913259 
L 130.841051 143.245347 
L 133.377415 146.459593 
L 134.222869 148.702902 
L 135.068324 153.042002 
L 135.913778 160.039022 
L 136.759233 172.396799 
L 137.604688 191.679557 
L 138.450142 161.312954 
L 139.295597 149.142603 
L 140.141051 141.852394 
L 140.986506 136.627759 
L 141.83196 132.352194 
L 142.677415 128.858519 
L 143.522869 126.274881 
L 144.368324 124.534234 
L 145.213778 123.41479 
L 146.059233 122.844841 
L 146.904688 123.012232 
L 147.750142 124.143289 
L 148.595597 126.278526 
L 149.441051 129.267264 
L 150.286506 132.72188 
L 151.13196 134.990259 
L 151.977415 133.107994 
L 153.668324 124.373406 
L 154.513778 121.591516 
L 155.359233 120.142067 
L 156.204688 120.056768 
L 157.050142 121.696016 
L 157.895597 125.953751 
L 158.741051 135.32589 
L 159.586506 157.461092 
L 160.43196 134.505423 
L 161.277415 121.596335 
L 162.122869 114.123892 
L 162.968324 109.299365 
L 163.813778 106.274774 
L 164.659233 104.713637 
L 165.504688 104.473506 
L 166.350142 105.52041 
L 167.195597 107.847945 
L 168.041051 111.087289 
L 168.886506 113.229031 
L 169.73196 111.283075 
L 170.577415 107.009845 
L 171.422869 103.45224 
L 172.268324 101.576085 
L 173.113778 101.557221 
L 174.804688 105.001612 
L 175.650142 102.535826 
L 177.341051 90.46214 
L 178.186506 86.361008 
L 179.03196 84.126053 
L 179.877415 83.816915 
L 180.722869 85.583175 
L 181.568324 89.170923 
L 182.413778 90.902831 
L 183.259233 85.644765 
L 184.104688 78.889886 
L 184.950142 74.073906 
L 185.795597 71.401022 
L 186.641051 70.613117 
L 187.486506 71.033957 
L 188.33196 70.538193 
L 189.177415 66.624814 
L 190.868324 55.68625 
L 191.713778 51.948463 
L 192.559233 49.707746 
L 193.404688 48.802237 
L 194.250142 48.631997 
L 195.095597 47.537956 
L 195.941051 43.687302 
L 197.63196 32.255701 
L 198.477415 27.414301 
L 199.322869 23.568828 
L 200.168324 20.674272 
L 201.013778 18.661309 
L 201.859233 17.475354 
L 202.704688 17.083636 
L 203.550142 17.475354 
L 204.395597 18.661309 
L 205.241051 20.674272 
L 206.086506 23.568828 
L 206.93196 27.414301 
L 207.777415 32.255701 
L 209.468324 43.687302 
L 210.313778 47.537956 
L 211.159233 48.631997 
L 212.004688 48.802237 
L 212.850142 49.707746 
L 213.695597 51.948463 
L 214.541051 55.68625 
L 217.077415 70.538193 
L 217.922869 71.033957 
L 218.768324 70.613117 
L 219.613778 71.401022 
L 220.459233 74.073906 
L 221.304688 78.889886 
L 222.150142 85.644765 
L 222.995597 90.902831 
L 223.841051 89.170923 
L 224.686506 85.583175 
L 225.53196 83.816915 
L 226.377415 84.126053 
L 227.222869 86.361008 
L 228.068324 90.46214 
L 229.759233 102.535826 
L 230.604688 105.001612 
L 232.295597 101.557221 
L 233.141051 101.576085 
L 233.986506 103.45224 
L 234.83196 107.009845 
L 235.677415 111.283075 
L 236.522869 113.229031 
L 237.368324 111.087289 
L 238.213778 107.847945 
L 239.059233 105.52041 
L 239.904688 104.473506 
L 240.750142 104.713637 
L 241.595597 106.274774 
L 242.441051 109.299365 
L 243.286506 114.123892 
L 244.13196 121.596335 
L 244.977415 134.505423 
L 245.822869 157.461092 
L 246.668324 135.32589 
L 247.513778 125.953751 
L 248.359233 121.696016 
L 249.204688 120.056768 
L 250.050142 120.142067 
L 250.895597 121.591516 
L 251.741051 124.373406 
L 253.43196 133.107994 
L 254.277415 134.990259 
L 255.122869 132.72188 
L 256.813778 126.278526 
L 257.659233 124.143289 
L 258.504688 123.012232 
L 259.350142 122.844841 
L 260.195597 123.41479 
L 261.041051 124.534234 
L 261.886506 126.274881 
L 262.73196 128.858519 
L 263.577415 132.352194 
L 264.422869 136.627759 
L 265.268324 141.852394 
L 266.113778 149.142603 
L 266.959233 161.312954 
L 267.804688 191.679557 
L 268.650142 172.396799 
L 269.495597 160.039022 
L 270.341051 153.042002 
L 271.186506 148.702902 
L 272.03196 146.459593 
L 274.568324 143.245347 
L 275.413778 142.913259 
L 277.104688 143.680572 
L 277.950142 143.585757 
L 278.795597 143.781279 
L 280.486506 145.917276 
L 282.177415 146.618679 
L 283.022869 147.838711 
L 283.868324 149.547573 
L 284.713778 150.292436 
L 285.559233 150.341757 
L 286.404688 151.318437 
L 287.250142 153.305581 
L 288.095597 154.317456 
L 288.941051 153.757044 
L 289.786506 153.903652 
L 290.63196 155.699352 
L 291.477415 157.052375 
L 292.322869 155.946823 
L 293.168324 155.033302 
L 294.013778 156.357684 
L 294.859233 158.248069 
L 295.704688 157.136378 
L 296.550142 155.354057 
L 297.395597 156.188322 
L 298.241051 158.727896 
L 299.086506 158.156943 
L 299.93196 155.660184 
L 300.777415 155.919759 
L 301.622869 159.046921 
L 302.468324 159.569107 
L 303.313778 156.380484 
L 304.159233 155.771623 
L 305.004688 159.143773 
L 305.850142 161.526611 
L 306.695597 157.820911 
L 307.541051 155.843108 
L 308.386506 158.68315 
L 309.23196 163.545875 
L 310.077415 160.435634 
L 310.922869 156.454958 
L 311.768324 157.637118 
L 312.613778 163.876027 
L 313.459233 164.798017 
L 314.304688 158.412122 
L 315.150142 156.748361 
L 315.995597 161.220717 
L 316.841051 169.056718 
L 318.53196 157.544521 
L 319.377415 158.00015 
L 321.068324 172.13644 
L 321.913778 162.635792 
L 322.759233 157.656397 
L 323.604688 158.923299 
L 325.295597 174.999313 
L 326.141051 164.207426 
L 326.986506 158.542357 
L 327.83196 158.772735 
L 328.677415 164.738038 
L 329.522869 176.223986 
L 330.368324 170.091676 
L 331.213778 161.475644 
L 332.059233 158.654673 
L 332.904688 160.322043 
L 333.750142 166.766791 
L 334.595597 177.684669 
L 335.441051 172.075598 
L 336.286506 162.714118 
L 337.13196 158.312006 
L 337.977415 157.660984 
L 338.822869 160.868405 
L 339.668324 170.512605 
L 340.513778 194.324309 
L 341.359233 167.334183 
L 342.204688 156.64233 
L 343.050142 152.097347 
L 343.895597 151.509425 
L 344.741051 155.023921 
L 345.586506 165.315291 
L 346.43196 177.948229 
L 347.277415 158.177642 
L 348.122869 148.825707 
L 348.968324 144.504073 
L 349.813778 143.362789 
L 350.659233 144.90459 
L 351.504688 149.164459 
L 353.195597 163.815476 
L 354.041051 164.538411 
L 354.886506 163.143898 
L 354.886506 163.143898 
" clip-path="url(#pfb16ee027e)" style="fill: none; stroke: #1f77b4; stroke-width: 1.5; stroke-linecap: square"/>
   </g>
   <g id="line2d_15">
    <path d="M 50.522869 167.664331 
L 51.368324 144.405512 
L 52.213778 158.632148 
L 53.059233 140.803841 
L 53.904688 145.527829 
L 54.750142 141.764536 
L 55.595597 141.150646 
L 56.441051 151.969435 
L 57.286506 155.283834 
L 58.13196 153.833704 
L 58.977415 214.756364 
L 59.822869 169.210861 
L 60.668324 156.451769 
L 61.513778 164.651766 
L 62.359233 187.630308 
L 63.204688 187.103096 
L 64.050142 174.680998 
L 64.895597 157.953569 
L 65.741051 161.671585 
L 66.586506 163.14731 
L 68.277415 175.873432 
L 69.122869 181.530141 
L 69.968324 167.399313 
L 70.813778 172.899556 
L 71.659233 159.391878 
L 72.504688 150.160893 
L 73.350142 162.901978 
L 74.195597 154.969046 
L 75.041051 159.125969 
L 75.886506 154.788672 
L 76.73196 144.243614 
L 77.577415 151.440423 
L 78.422869 154.699551 
L 79.268324 166.688687 
L 80.113778 160.09245 
L 80.959233 178.762254 
L 81.804688 156.291545 
L 82.650142 165.016768 
L 83.495597 197.973433 
L 84.341051 168.983177 
L 85.186506 163.116657 
L 86.03196 186.681351 
L 87.722869 164.111197 
L 88.568324 178.836431 
L 89.413778 187.146951 
L 90.259233 160.315005 
L 91.104688 165.048442 
L 91.950142 168.811899 
L 92.795597 160.096561 
L 93.641051 165.097635 
L 94.486506 156.033684 
L 95.33196 159.398733 
L 96.177415 184.315529 
L 97.022869 157.191169 
L 97.868324 160.882797 
L 98.713778 163.389382 
L 99.559233 174.078056 
L 100.404688 151.156577 
L 101.250142 144.740575 
L 102.095597 145.753105 
L 102.941051 145.86395 
L 103.786506 161.2651 
L 104.63196 147.425598 
L 105.477415 151.757206 
L 107.168324 178.03708 
L 108.013778 174.001492 
L 108.859233 183.68413 
L 109.704688 156.996207 
L 110.550142 154.674918 
L 111.395597 166.475253 
L 112.241051 155.904793 
L 113.086506 182.874596 
L 113.93196 162.566243 
L 114.777415 168.187811 
L 115.622869 151.025196 
L 116.468324 150.350671 
L 117.313778 157.464317 
L 118.159233 188.096733 
L 119.004688 165.123737 
L 119.850142 163.600259 
L 120.695597 178.561262 
L 121.541051 157.756397 
L 122.386506 152.934187 
L 123.23196 150.891709 
L 124.077415 150.955101 
L 124.922869 165.304271 
L 125.768324 147.069923 
L 126.613778 148.744469 
L 127.459233 129.140013 
L 128.304688 147.274703 
L 129.150142 156.699414 
L 129.995597 157.438592 
L 131.686506 171.569079 
L 132.53196 193.306316 
L 133.377415 150.06953 
L 134.222869 160.609882 
L 135.068324 148.108449 
L 135.913778 170.486568 
L 136.759233 158.089415 
L 137.604688 155.888734 
L 138.450142 139.42897 
L 139.295597 169.391006 
L 140.141051 136.743305 
L 140.986506 145.046259 
L 141.83196 125.936517 
L 142.677415 126.423833 
L 143.522869 130.365963 
L 144.368324 117.479415 
L 145.213778 121.381718 
L 146.059233 128.196895 
L 146.904688 120.315132 
L 147.750142 126.971711 
L 148.595597 129.585432 
L 149.441051 133.095169 
L 150.286506 123.572722 
L 151.13196 129.178223 
L 151.977415 133.146954 
L 152.822869 113.685768 
L 153.668324 118.252548 
L 154.513778 108.080057 
L 155.359233 109.001163 
L 157.050142 113.888919 
L 157.895597 118.448422 
L 158.741051 115.356989 
L 159.586506 131.647189 
L 160.43196 153.944543 
L 161.277415 122.232337 
L 162.122869 115.904828 
L 162.968324 107.709584 
L 163.813778 111.561738 
L 164.659233 104.260581 
L 165.504688 107.307643 
L 167.195597 105.830391 
L 168.041051 105.311306 
L 168.886506 106.778744 
L 169.73196 103.210518 
L 170.577415 105.160855 
L 171.422869 101.55771 
L 172.268324 102.016745 
L 173.113778 100.558417 
L 173.959233 106.563768 
L 174.804688 111.257093 
L 175.650142 101.72295 
L 176.495597 96.56632 
L 177.341051 89.341891 
L 178.186506 85.205375 
L 179.03196 83.20909 
L 179.877415 83.880974 
L 180.722869 85.201314 
L 181.568324 88.884957 
L 182.413778 93.484722 
L 184.104688 79.715644 
L 184.950142 74.711947 
L 185.795597 71.156417 
L 186.641051 70.557771 
L 187.486506 71.310099 
L 188.33196 70.168977 
L 189.177415 66.837691 
L 190.868324 55.932759 
L 191.713778 52.15098 
L 192.559233 50.037665 
L 193.404688 49.375665 
L 194.250142 49.247062 
L 195.095597 48.114592 
L 195.941051 44.319483 
L 197.63196 32.439593 
L 198.477415 27.673132 
L 199.322869 23.756161 
L 200.168324 20.830922 
L 201.013778 18.835208 
L 201.859233 17.640699 
L 202.704688 17.363829 
L 203.550142 17.728095 
L 204.395597 18.820998 
L 205.241051 20.824545 
L 206.086506 23.704631 
L 206.93196 27.616145 
L 208.622869 37.991989 
L 209.468324 43.853012 
L 210.313778 48.119024 
L 211.159233 49.032293 
L 212.004688 49.086351 
L 212.850142 49.979994 
L 213.695597 52.244779 
L 214.541051 55.786317 
L 216.23196 66.389903 
L 217.077415 70.503026 
L 217.922869 70.841296 
L 218.768324 70.228438 
L 219.613778 71.245961 
L 220.459233 74.136469 
L 221.304688 78.332422 
L 222.150142 86.714207 
L 222.995597 92.851232 
L 223.841051 89.590011 
L 224.686506 85.065534 
L 225.53196 83.752172 
L 226.377415 83.632246 
L 228.068324 89.031938 
L 228.913778 94.760727 
L 230.604688 112.289466 
L 232.295597 98.832725 
L 233.141051 102.171074 
L 233.986506 103.443684 
L 234.83196 109.139401 
L 235.677415 102.984195 
L 236.522869 113.790037 
L 237.368324 106.52712 
L 238.213778 104.663008 
L 239.059233 105.099753 
L 239.904688 103.828015 
L 240.750142 104.079148 
L 241.595597 104.448658 
L 242.441051 105.810384 
L 243.286506 110.549731 
L 244.13196 122.344333 
L 244.977415 123.083007 
L 245.822869 148.866327 
L 246.668324 144.958921 
L 247.513778 120.577399 
L 249.204688 114.358055 
L 250.050142 111.215808 
L 250.895597 111.349328 
L 251.741051 117.659081 
L 252.586506 115.872495 
L 253.43196 120.502715 
L 254.277415 123.895141 
L 255.122869 125.222881 
L 255.968324 120.19558 
L 256.813778 122.10196 
L 257.659233 121.193613 
L 258.504688 121.61851 
L 259.350142 117.753057 
L 261.041051 128.320538 
L 261.886506 122.040404 
L 262.73196 128.373373 
L 263.577415 142.823076 
L 264.422869 151.059666 
L 265.268324 148.579875 
L 266.113778 143.211048 
L 266.959233 157.41192 
L 267.804688 149.688595 
L 268.650142 139.540844 
L 269.495597 175.128517 
L 270.341051 143.293275 
L 271.186506 134.746838 
L 272.03196 132.168738 
L 272.877415 137.204621 
L 273.722869 128.589303 
L 274.568324 142.551746 
L 275.413778 128.91811 
L 276.259233 129.07835 
L 277.104688 130.377007 
L 277.950142 146.377424 
L 278.795597 159.161457 
L 279.641051 150.424899 
L 280.486506 147.606464 
L 281.33196 150.308093 
L 282.177415 150.398419 
L 283.022869 147.20745 
L 283.868324 170.731096 
L 284.713778 156.755637 
L 285.559233 150.527578 
L 286.404688 155.492278 
L 287.250142 152.394491 
L 288.095597 158.26042 
L 288.941051 164.945236 
L 289.786506 166.6073 
L 290.63196 158.895599 
L 291.477415 166.913747 
L 293.168324 150.199962 
L 294.013778 156.232786 
L 294.859233 160.555707 
L 296.550142 190.622287 
L 297.395597 159.714613 
L 298.241051 181.867692 
L 299.086506 161.219105 
L 299.93196 197.52646 
L 300.777415 160.074487 
L 301.622869 150.819312 
L 302.468324 172.228119 
L 303.313778 157.585016 
L 304.159233 145.036888 
L 305.004688 172.332574 
L 305.850142 158.055048 
L 306.695597 154.801139 
L 307.541051 156.499275 
L 308.386506 148.52261 
L 309.23196 163.978154 
L 310.077415 165.545746 
L 310.922869 172.9796 
L 311.768324 163.908781 
L 312.613778 161.938309 
L 313.459233 171.644743 
L 314.304688 159.775275 
L 315.150142 178.099153 
L 315.995597 168.242639 
L 316.841051 160.526565 
L 317.686506 180.775719 
L 318.53196 180.955095 
L 319.377415 167.489703 
L 320.222869 172.713124 
L 321.068324 168.226845 
L 321.913778 179.480109 
L 322.759233 186.301632 
L 323.604688 159.854666 
L 324.450142 158.751488 
L 325.295597 161.592411 
L 326.141051 163.995204 
L 326.986506 149.182493 
L 327.83196 156.934113 
L 328.677415 148.967039 
L 329.522869 156.516788 
L 330.368324 165.767298 
L 331.213778 148.51845 
L 332.059233 151.283589 
L 332.904688 168.620121 
L 333.750142 191.860704 
L 334.595597 172.337529 
L 335.441051 212.097571 
L 336.286506 168.359103 
L 337.13196 172.130435 
L 337.977415 169.589969 
L 338.822869 163.749309 
L 339.668324 166.72027 
L 340.513778 186.27567 
L 341.359233 176.082351 
L 342.204688 179.198204 
L 343.050142 177.286354 
L 343.895597 169.840556 
L 344.741051 164.449925 
L 345.586506 175.083486 
L 346.43196 155.498795 
L 347.277415 176.120156 
L 348.122869 155.859243 
L 348.968324 159.842462 
L 349.813778 153.11277 
L 350.659233 153.699803 
L 351.504688 153.162375 
L 352.350142 145.556718 
L 353.195597 153.135416 
L 354.041051 196.528151 
L 354.886506 172.871752 
L 354.886506 172.871752 
" clip-path="url(#pfb16ee027e)" style="fill: none; stroke: #ff7f0e; stroke-width: 1.5; stroke-linecap: square"/>
   </g>
   <g id="patch_3">
    <path d="M 35.304688 224.64 
L 35.304688 7.2 
" style="fill: none; stroke: #000000; stroke-width: 0.8; stroke-linejoin: miter; stroke-linecap: square"/>
   </g>
   <g id="patch_4">
    <path d="M 370.104688 224.64 
L 370.104688 7.2 
" style="fill: none; stroke: #000000; stroke-width: 0.8; stroke-linejoin: miter; stroke-linecap: square"/>
   </g>
   <g id="patch_5">
    <path d="M 35.304688 224.64 
L 370.104688 224.64 
" style="fill: none; stroke: #000000; stroke-width: 0.8; stroke-linejoin: miter; stroke-linecap: square"/>
   </g>
   <g id="patch_6">
    <path d="M 35.304688 7.2 
L 370.104688 7.2 
" style="fill: none; stroke: #000000; stroke-width: 0.8; stroke-linejoin: miter; stroke-linecap: square"/>
   </g>
   <g id="legend_1">
    <g id="patch_7">
     <path d="M 281.43125 44.55625 
L 363.104688 44.55625 
Q 365.104688 44.55625 365.104688 42.55625 
L 365.104688 14.2 
Q 365.104688 12.2 363.104688 12.2 
L 281.43125 12.2 
Q 279.43125 12.2 279.43125 14.2 
L 279.43125 42.55625 
Q 279.43125 44.55625 281.43125 44.55625 
z
" style="fill: #ffffff; opacity: 0.8; stroke: #cccccc; stroke-linejoin: miter"/>
    </g>
    <g id="line2d_16">
     <path d="M 283.43125 20.298437 
L 293.43125 20.298437 
L 303.43125 20.298437 
" style="fill: none; stroke: #1f77b4; stroke-width: 1.5; stroke-linecap: square"/>
    </g>
    <g id="text_14">
     <!-- Truth -->
     <g transform="translate(311.43125 23.798437)scale(0.1 -0.1)">
      <defs>
       <path id="DejaVuSans-54" d="M -19 4666 
L 3928 4666 
L 3928 4134 
L 2272 4134 
L 2272 0 
L 1638 0 
L 1638 4134 
L -19 4134 
L -19 4666 
z
" transform="scale(0.015625)"/>
       <path id="DejaVuSans-72" d="M 2631 2963 
Q 2534 3019 2420 3045 
Q 2306 3072 2169 3072 
Q 1681 3072 1420 2755 
Q 1159 2438 1159 1844 
L 1159 0 
L 581 0 
L 581 3500 
L 1159 3500 
L 1159 2956 
Q 1341 3275 1631 3429 
Q 1922 3584 2338 3584 
Q 2397 3584 2469 3576 
Q 2541 3569 2628 3553 
L 2631 2963 
z
" transform="scale(0.015625)"/>
       <path id="DejaVuSans-75" d="M 544 1381 
L 544 3500 
L 1119 3500 
L 1119 1403 
Q 1119 906 1312 657 
Q 1506 409 1894 409 
Q 2359 409 2629 706 
Q 2900 1003 2900 1516 
L 2900 3500 
L 3475 3500 
L 3475 0 
L 2900 0 
L 2900 538 
Q 2691 219 2414 64 
Q 2138 -91 1772 -91 
Q 1169 -91 856 284 
Q 544 659 544 1381 
z
M 1991 3584 
L 1991 3584 
z
" transform="scale(0.015625)"/>
       <path id="DejaVuSans-74" d="M 1172 4494 
L 1172 3500 
L 2356 3500 
L 2356 3053 
L 1172 3053 
L 1172 1153 
Q 1172 725 1289 603 
Q 1406 481 1766 481 
L 2356 481 
L 2356 0 
L 1766 0 
Q 1100 0 847 248 
Q 594 497 594 1153 
L 594 3053 
L 172 3053 
L 172 3500 
L 594 3500 
L 594 4494 
L 1172 4494 
z
" transform="scale(0.015625)"/>
       <path id="DejaVuSans-68" d="M 3513 2113 
L 3513 0 
L 2938 0 
L 2938 2094 
Q 2938 2591 2744 2837 
Q 2550 3084 2163 3084 
Q 1697 3084 1428 2787 
Q 1159 2491 1159 1978 
L 1159 0 
L 581 0 
L 581 4863 
L 1159 4863 
L 1159 2956 
Q 1366 3272 1645 3428 
Q 1925 3584 2291 3584 
Q 2894 3584 3203 3211 
Q 3513 2838 3513 2113 
z
" transform="scale(0.015625)"/>
      </defs>
      <use xlink:href="#DejaVuSans-54"/>
      <use xlink:href="#DejaVuSans-72" x="46.333984"/>
      <use xlink:href="#DejaVuSans-75" x="87.447266"/>
      <use xlink:href="#DejaVuSans-74" x="150.826172"/>
      <use xlink:href="#DejaVuSans-68" x="190.035156"/>
     </g>
    </g>
    <g id="line2d_17">
     <path d="M 283.43125 34.976562 
L 293.43125 34.976562 
L 303.43125 34.976562 
" style="fill: none; stroke: #ff7f0e; stroke-width: 1.5; stroke-linecap: square"/>
    </g>
    <g id="text_15">
     <!-- Prediction -->
     <g transform="translate(311.43125 38.476562)scale(0.1 -0.1)">
      <defs>
       <path id="DejaVuSans-50" d="M 1259 4147 
L 1259 2394 
L 2053 2394 
Q 2494 2394 2734 2622 
Q 2975 2850 2975 3272 
Q 2975 3691 2734 3919 
Q 2494 4147 2053 4147 
L 1259 4147 
z
M 628 4666 
L 2053 4666 
Q 2838 4666 3239 4311 
Q 3641 3956 3641 3272 
Q 3641 2581 3239 2228 
Q 2838 1875 2053 1875 
L 1259 1875 
L 1259 0 
L 628 0 
L 628 4666 
z
" transform="scale(0.015625)"/>
       <path id="DejaVuSans-65" d="M 3597 1894 
L 3597 1613 
L 953 1613 
Q 991 1019 1311 708 
Q 1631 397 2203 397 
Q 2534 397 2845 478 
Q 3156 559 3463 722 
L 3463 178 
Q 3153 47 2828 -22 
Q 2503 -91 2169 -91 
Q 1331 -91 842 396 
Q 353 884 353 1716 
Q 353 2575 817 3079 
Q 1281 3584 2069 3584 
Q 2775 3584 3186 3129 
Q 3597 2675 3597 1894 
z
M 3022 2063 
Q 3016 2534 2758 2815 
Q 2500 3097 2075 3097 
Q 1594 3097 1305 2825 
Q 1016 2553 972 2059 
L 3022 2063 
z
" transform="scale(0.015625)"/>
       <path id="DejaVuSans-64" d="M 2906 2969 
L 2906 4863 
L 3481 4863 
L 3481 0 
L 2906 0 
L 2906 525 
Q 2725 213 2448 61 
Q 2172 -91 1784 -91 
Q 1150 -91 751 415 
Q 353 922 353 1747 
Q 353 2572 751 3078 
Q 1150 3584 1784 3584 
Q 2172 3584 2448 3432 
Q 2725 3281 2906 2969 
z
M 947 1747 
Q 947 1113 1208 752 
Q 1469 391 1925 391 
Q 2381 391 2643 752 
Q 2906 1113 2906 1747 
Q 2906 2381 2643 2742 
Q 2381 3103 1925 3103 
Q 1469 3103 1208 2742 
Q 947 2381 947 1747 
z
" transform="scale(0.015625)"/>
       <path id="DejaVuSans-69" d="M 603 3500 
L 1178 3500 
L 1178 0 
L 603 0 
L 603 3500 
z
M 603 4863 
L 1178 4863 
L 1178 4134 
L 603 4134 
L 603 4863 
z
" transform="scale(0.015625)"/>
       <path id="DejaVuSans-63" d="M 3122 3366 
L 3122 2828 
Q 2878 2963 2633 3030 
Q 2388 3097 2138 3097 
Q 1578 3097 1268 2742 
Q 959 2388 959 1747 
Q 959 1106 1268 751 
Q 1578 397 2138 397 
Q 2388 397 2633 464 
Q 2878 531 3122 666 
L 3122 134 
Q 2881 22 2623 -34 
Q 2366 -91 2075 -91 
Q 1284 -91 818 406 
Q 353 903 353 1747 
Q 353 2603 823 3093 
Q 1294 3584 2113 3584 
Q 2378 3584 2631 3529 
Q 2884 3475 3122 3366 
z
" transform="scale(0.015625)"/>
       <path id="DejaVuSans-6f" d="M 1959 3097 
Q 1497 3097 1228 2736 
Q 959 2375 959 1747 
Q 959 1119 1226 758 
Q 1494 397 1959 397 
Q 2419 397 2687 759 
Q 2956 1122 2956 1747 
Q 2956 2369 2687 2733 
Q 2419 3097 1959 3097 
z
M 1959 3584 
Q 2709 3584 3137 3096 
Q 3566 2609 3566 1747 
Q 3566 888 3137 398 
Q 2709 -91 1959 -91 
Q 1206 -91 779 398 
Q 353 888 353 1747 
Q 353 2609 779 3096 
Q 1206 3584 1959 3584 
z
" transform="scale(0.015625)"/>
       <path id="DejaVuSans-6e" d="M 3513 2113 
L 3513 0 
L 2938 0 
L 2938 2094 
Q 2938 2591 2744 2837 
Q 2550 3084 2163 3084 
Q 1697 3084 1428 2787 
Q 1159 2491 1159 1978 
L 1159 0 
L 581 0 
L 581 3500 
L 1159 3500 
L 1159 2956 
Q 1366 3272 1645 3428 
Q 1925 3584 2291 3584 
Q 2894 3584 3203 3211 
Q 3513 2838 3513 2113 
z
" transform="scale(0.015625)"/>
      </defs>
      <use xlink:href="#DejaVuSans-50"/>
      <use xlink:href="#DejaVuSans-72" x="58.552734"/>
      <use xlink:href="#DejaVuSans-65" x="97.416016"/>
      <use xlink:href="#DejaVuSans-64" x="158.939453"/>
      <use xlink:href="#DejaVuSans-69" x="222.416016"/>
      <use xlink:href="#DejaVuSans-63" x="250.199219"/>
      <use xlink:href="#DejaVuSans-74" x="305.179688"/>
      <use xlink:href="#DejaVuSans-69" x="344.388672"/>
      <use xlink:href="#DejaVuSans-6f" x="372.171875"/>
      <use xlink:href="#DejaVuSans-6e" x="433.353516"/>
     </g>
    </g>
   </g>
  </g>
 </g>
 <defs>
  <clipPath id="pfb16ee027e">
   <rect x="35.304688" y="7.2" width="334.8" height="217.44"/>
  </clipPath>
 </defs>
</svg>
